%TF.GenerationSoftware,KiCad,Pcbnew,7.0.5*%
%TF.CreationDate,2023-06-25T23:49:52-07:00*%
%TF.ProjectId,umfd,756d6664-2e6b-4696-9361-645f70636258,rev?*%
%TF.SameCoordinates,Original*%
%TF.FileFunction,Drillmap*%
%TF.FilePolarity,Positive*%
%FSLAX45Y45*%
G04 Gerber Fmt 4.5, Leading zero omitted, Abs format (unit mm)*
G04 Created by KiCad (PCBNEW 7.0.5) date 2023-06-25 23:49:52*
%MOMM*%
%LPD*%
G01*
G04 APERTURE LIST*
%ADD10C,0.100000*%
%ADD11C,0.200000*%
%ADD12C,0.150000*%
%ADD13C,0.180000*%
%ADD14C,0.220000*%
%ADD15C,0.640000*%
G04 APERTURE END LIST*
D10*
X15300000Y-4700000D02*
X15300000Y-11000000D01*
X8600000Y-4300000D02*
X14900000Y-4300000D01*
X8200000Y-11000000D02*
X8200000Y-4700000D01*
X14900000Y-11400000D02*
X8600000Y-11400000D01*
X8200000Y-11000000D02*
G75*
G03*
X8600000Y-11400000I400000J0D01*
G01*
X14900000Y-11400000D02*
G75*
G03*
X15300000Y-11000000I0J400000D01*
G01*
X15300000Y-4700000D02*
G75*
G03*
X14900000Y-4300000I-400000J0D01*
G01*
X8600000Y-4300000D02*
G75*
G03*
X8200000Y-4700000I0J-400000D01*
G01*
D11*
D12*
X11446500Y-5718000D02*
X11596500Y-5868000D01*
X11596500Y-5718000D02*
X11446500Y-5868000D01*
X11931500Y-5718000D02*
X12081500Y-5868000D01*
X12081500Y-5718000D02*
X11931500Y-5868000D01*
D13*
X11581500Y-5490000D02*
G75*
G03*
X11581500Y-5490000I-90000J0D01*
G01*
X12126500Y-5490000D02*
G75*
G03*
X12126500Y-5490000I-90000J0D01*
G01*
D14*
X8600000Y-4590000D02*
X8600000Y-4810000D01*
X8490000Y-4700000D02*
X8710000Y-4700000D01*
X8600000Y-10890000D02*
X8600000Y-11110000D01*
X8490000Y-11000000D02*
X8710000Y-11000000D01*
X14900000Y-4590000D02*
X14900000Y-4810000D01*
X14790000Y-4700000D02*
X15010000Y-4700000D01*
X14900000Y-10890000D02*
X14900000Y-11110000D01*
X14790000Y-11000000D02*
X15010000Y-11000000D01*
D15*
X9906276Y-6016276D02*
X9906276Y-5563724D01*
X9453724Y-5563724D01*
X9453724Y-6016276D01*
X9906276Y-6016276D01*
D11*
X8455777Y-11716484D02*
X8455777Y-11516484D01*
X8455777Y-11516484D02*
X8503396Y-11516484D01*
X8503396Y-11516484D02*
X8531967Y-11526008D01*
X8531967Y-11526008D02*
X8551015Y-11545055D01*
X8551015Y-11545055D02*
X8560539Y-11564103D01*
X8560539Y-11564103D02*
X8570063Y-11602198D01*
X8570063Y-11602198D02*
X8570063Y-11630769D01*
X8570063Y-11630769D02*
X8560539Y-11668865D01*
X8560539Y-11668865D02*
X8551015Y-11687912D01*
X8551015Y-11687912D02*
X8531967Y-11706960D01*
X8531967Y-11706960D02*
X8503396Y-11716484D01*
X8503396Y-11716484D02*
X8455777Y-11716484D01*
X8655777Y-11716484D02*
X8655777Y-11583150D01*
X8655777Y-11621246D02*
X8665301Y-11602198D01*
X8665301Y-11602198D02*
X8674824Y-11592674D01*
X8674824Y-11592674D02*
X8693872Y-11583150D01*
X8693872Y-11583150D02*
X8712920Y-11583150D01*
X8779586Y-11716484D02*
X8779586Y-11583150D01*
X8779586Y-11516484D02*
X8770063Y-11526008D01*
X8770063Y-11526008D02*
X8779586Y-11535531D01*
X8779586Y-11535531D02*
X8789110Y-11526008D01*
X8789110Y-11526008D02*
X8779586Y-11516484D01*
X8779586Y-11516484D02*
X8779586Y-11535531D01*
X8903396Y-11716484D02*
X8884348Y-11706960D01*
X8884348Y-11706960D02*
X8874824Y-11687912D01*
X8874824Y-11687912D02*
X8874824Y-11516484D01*
X9008158Y-11716484D02*
X8989110Y-11706960D01*
X8989110Y-11706960D02*
X8979586Y-11687912D01*
X8979586Y-11687912D02*
X8979586Y-11516484D01*
X9236729Y-11716484D02*
X9236729Y-11516484D01*
X9236729Y-11516484D02*
X9303396Y-11659341D01*
X9303396Y-11659341D02*
X9370063Y-11516484D01*
X9370063Y-11516484D02*
X9370063Y-11716484D01*
X9551015Y-11716484D02*
X9551015Y-11611722D01*
X9551015Y-11611722D02*
X9541491Y-11592674D01*
X9541491Y-11592674D02*
X9522444Y-11583150D01*
X9522444Y-11583150D02*
X9484348Y-11583150D01*
X9484348Y-11583150D02*
X9465301Y-11592674D01*
X9551015Y-11706960D02*
X9531967Y-11716484D01*
X9531967Y-11716484D02*
X9484348Y-11716484D01*
X9484348Y-11716484D02*
X9465301Y-11706960D01*
X9465301Y-11706960D02*
X9455777Y-11687912D01*
X9455777Y-11687912D02*
X9455777Y-11668865D01*
X9455777Y-11668865D02*
X9465301Y-11649817D01*
X9465301Y-11649817D02*
X9484348Y-11640293D01*
X9484348Y-11640293D02*
X9531967Y-11640293D01*
X9531967Y-11640293D02*
X9551015Y-11630769D01*
X9646253Y-11583150D02*
X9646253Y-11783150D01*
X9646253Y-11592674D02*
X9665301Y-11583150D01*
X9665301Y-11583150D02*
X9703396Y-11583150D01*
X9703396Y-11583150D02*
X9722444Y-11592674D01*
X9722444Y-11592674D02*
X9731967Y-11602198D01*
X9731967Y-11602198D02*
X9741491Y-11621246D01*
X9741491Y-11621246D02*
X9741491Y-11678388D01*
X9741491Y-11678388D02*
X9731967Y-11697436D01*
X9731967Y-11697436D02*
X9722444Y-11706960D01*
X9722444Y-11706960D02*
X9703396Y-11716484D01*
X9703396Y-11716484D02*
X9665301Y-11716484D01*
X9665301Y-11716484D02*
X9646253Y-11706960D01*
X9827205Y-11697436D02*
X9836729Y-11706960D01*
X9836729Y-11706960D02*
X9827205Y-11716484D01*
X9827205Y-11716484D02*
X9817682Y-11706960D01*
X9817682Y-11706960D02*
X9827205Y-11697436D01*
X9827205Y-11697436D02*
X9827205Y-11716484D01*
X9827205Y-11592674D02*
X9836729Y-11602198D01*
X9836729Y-11602198D02*
X9827205Y-11611722D01*
X9827205Y-11611722D02*
X9817682Y-11602198D01*
X9817682Y-11602198D02*
X9827205Y-11592674D01*
X9827205Y-11592674D02*
X9827205Y-11611722D01*
D12*
X8045000Y-11970000D02*
X8195000Y-12120000D01*
X8195000Y-11970000D02*
X8045000Y-12120000D01*
D11*
X8560539Y-12136484D02*
X8446253Y-12136484D01*
X8503396Y-12136484D02*
X8503396Y-11936484D01*
X8503396Y-11936484D02*
X8484348Y-11965055D01*
X8484348Y-11965055D02*
X8465301Y-11984103D01*
X8465301Y-11984103D02*
X8446253Y-11993627D01*
X8646253Y-12117436D02*
X8655777Y-12126960D01*
X8655777Y-12126960D02*
X8646253Y-12136484D01*
X8646253Y-12136484D02*
X8636729Y-12126960D01*
X8636729Y-12126960D02*
X8646253Y-12117436D01*
X8646253Y-12117436D02*
X8646253Y-12136484D01*
X8836729Y-11936484D02*
X8741491Y-11936484D01*
X8741491Y-11936484D02*
X8731967Y-12031722D01*
X8731967Y-12031722D02*
X8741491Y-12022198D01*
X8741491Y-12022198D02*
X8760539Y-12012674D01*
X8760539Y-12012674D02*
X8808158Y-12012674D01*
X8808158Y-12012674D02*
X8827205Y-12022198D01*
X8827205Y-12022198D02*
X8836729Y-12031722D01*
X8836729Y-12031722D02*
X8846253Y-12050769D01*
X8846253Y-12050769D02*
X8846253Y-12098388D01*
X8846253Y-12098388D02*
X8836729Y-12117436D01*
X8836729Y-12117436D02*
X8827205Y-12126960D01*
X8827205Y-12126960D02*
X8808158Y-12136484D01*
X8808158Y-12136484D02*
X8760539Y-12136484D01*
X8760539Y-12136484D02*
X8741491Y-12126960D01*
X8741491Y-12126960D02*
X8731967Y-12117436D01*
X8970063Y-11936484D02*
X8989110Y-11936484D01*
X8989110Y-11936484D02*
X9008158Y-11946008D01*
X9008158Y-11946008D02*
X9017682Y-11955531D01*
X9017682Y-11955531D02*
X9027205Y-11974579D01*
X9027205Y-11974579D02*
X9036729Y-12012674D01*
X9036729Y-12012674D02*
X9036729Y-12060293D01*
X9036729Y-12060293D02*
X9027205Y-12098388D01*
X9027205Y-12098388D02*
X9017682Y-12117436D01*
X9017682Y-12117436D02*
X9008158Y-12126960D01*
X9008158Y-12126960D02*
X8989110Y-12136484D01*
X8989110Y-12136484D02*
X8970063Y-12136484D01*
X8970063Y-12136484D02*
X8951015Y-12126960D01*
X8951015Y-12126960D02*
X8941491Y-12117436D01*
X8941491Y-12117436D02*
X8931967Y-12098388D01*
X8931967Y-12098388D02*
X8922444Y-12060293D01*
X8922444Y-12060293D02*
X8922444Y-12012674D01*
X8922444Y-12012674D02*
X8931967Y-11974579D01*
X8931967Y-11974579D02*
X8941491Y-11955531D01*
X8941491Y-11955531D02*
X8951015Y-11946008D01*
X8951015Y-11946008D02*
X8970063Y-11936484D01*
X9160539Y-11936484D02*
X9179586Y-11936484D01*
X9179586Y-11936484D02*
X9198634Y-11946008D01*
X9198634Y-11946008D02*
X9208158Y-11955531D01*
X9208158Y-11955531D02*
X9217682Y-11974579D01*
X9217682Y-11974579D02*
X9227205Y-12012674D01*
X9227205Y-12012674D02*
X9227205Y-12060293D01*
X9227205Y-12060293D02*
X9217682Y-12098388D01*
X9217682Y-12098388D02*
X9208158Y-12117436D01*
X9208158Y-12117436D02*
X9198634Y-12126960D01*
X9198634Y-12126960D02*
X9179586Y-12136484D01*
X9179586Y-12136484D02*
X9160539Y-12136484D01*
X9160539Y-12136484D02*
X9141491Y-12126960D01*
X9141491Y-12126960D02*
X9131967Y-12117436D01*
X9131967Y-12117436D02*
X9122444Y-12098388D01*
X9122444Y-12098388D02*
X9112920Y-12060293D01*
X9112920Y-12060293D02*
X9112920Y-12012674D01*
X9112920Y-12012674D02*
X9122444Y-11974579D01*
X9122444Y-11974579D02*
X9131967Y-11955531D01*
X9131967Y-11955531D02*
X9141491Y-11946008D01*
X9141491Y-11946008D02*
X9160539Y-11936484D01*
X9312920Y-12136484D02*
X9312920Y-12003150D01*
X9312920Y-12022198D02*
X9322444Y-12012674D01*
X9322444Y-12012674D02*
X9341491Y-12003150D01*
X9341491Y-12003150D02*
X9370063Y-12003150D01*
X9370063Y-12003150D02*
X9389110Y-12012674D01*
X9389110Y-12012674D02*
X9398634Y-12031722D01*
X9398634Y-12031722D02*
X9398634Y-12136484D01*
X9398634Y-12031722D02*
X9408158Y-12012674D01*
X9408158Y-12012674D02*
X9427205Y-12003150D01*
X9427205Y-12003150D02*
X9455777Y-12003150D01*
X9455777Y-12003150D02*
X9474825Y-12012674D01*
X9474825Y-12012674D02*
X9484348Y-12031722D01*
X9484348Y-12031722D02*
X9484348Y-12136484D01*
X9579586Y-12136484D02*
X9579586Y-12003150D01*
X9579586Y-12022198D02*
X9589110Y-12012674D01*
X9589110Y-12012674D02*
X9608158Y-12003150D01*
X9608158Y-12003150D02*
X9636729Y-12003150D01*
X9636729Y-12003150D02*
X9655777Y-12012674D01*
X9655777Y-12012674D02*
X9665301Y-12031722D01*
X9665301Y-12031722D02*
X9665301Y-12136484D01*
X9665301Y-12031722D02*
X9674825Y-12012674D01*
X9674825Y-12012674D02*
X9693872Y-12003150D01*
X9693872Y-12003150D02*
X9722444Y-12003150D01*
X9722444Y-12003150D02*
X9741491Y-12012674D01*
X9741491Y-12012674D02*
X9751015Y-12031722D01*
X9751015Y-12031722D02*
X9751015Y-12136484D01*
X10141491Y-11926960D02*
X9970063Y-12184103D01*
X10398634Y-11936484D02*
X10417682Y-11936484D01*
X10417682Y-11936484D02*
X10436729Y-11946008D01*
X10436729Y-11946008D02*
X10446253Y-11955531D01*
X10446253Y-11955531D02*
X10455777Y-11974579D01*
X10455777Y-11974579D02*
X10465301Y-12012674D01*
X10465301Y-12012674D02*
X10465301Y-12060293D01*
X10465301Y-12060293D02*
X10455777Y-12098388D01*
X10455777Y-12098388D02*
X10446253Y-12117436D01*
X10446253Y-12117436D02*
X10436729Y-12126960D01*
X10436729Y-12126960D02*
X10417682Y-12136484D01*
X10417682Y-12136484D02*
X10398634Y-12136484D01*
X10398634Y-12136484D02*
X10379587Y-12126960D01*
X10379587Y-12126960D02*
X10370063Y-12117436D01*
X10370063Y-12117436D02*
X10360539Y-12098388D01*
X10360539Y-12098388D02*
X10351015Y-12060293D01*
X10351015Y-12060293D02*
X10351015Y-12012674D01*
X10351015Y-12012674D02*
X10360539Y-11974579D01*
X10360539Y-11974579D02*
X10370063Y-11955531D01*
X10370063Y-11955531D02*
X10379587Y-11946008D01*
X10379587Y-11946008D02*
X10398634Y-11936484D01*
X10551015Y-12117436D02*
X10560539Y-12126960D01*
X10560539Y-12126960D02*
X10551015Y-12136484D01*
X10551015Y-12136484D02*
X10541491Y-12126960D01*
X10541491Y-12126960D02*
X10551015Y-12117436D01*
X10551015Y-12117436D02*
X10551015Y-12136484D01*
X10684348Y-11936484D02*
X10703396Y-11936484D01*
X10703396Y-11936484D02*
X10722444Y-11946008D01*
X10722444Y-11946008D02*
X10731968Y-11955531D01*
X10731968Y-11955531D02*
X10741491Y-11974579D01*
X10741491Y-11974579D02*
X10751015Y-12012674D01*
X10751015Y-12012674D02*
X10751015Y-12060293D01*
X10751015Y-12060293D02*
X10741491Y-12098388D01*
X10741491Y-12098388D02*
X10731968Y-12117436D01*
X10731968Y-12117436D02*
X10722444Y-12126960D01*
X10722444Y-12126960D02*
X10703396Y-12136484D01*
X10703396Y-12136484D02*
X10684348Y-12136484D01*
X10684348Y-12136484D02*
X10665301Y-12126960D01*
X10665301Y-12126960D02*
X10655777Y-12117436D01*
X10655777Y-12117436D02*
X10646253Y-12098388D01*
X10646253Y-12098388D02*
X10636729Y-12060293D01*
X10636729Y-12060293D02*
X10636729Y-12012674D01*
X10636729Y-12012674D02*
X10646253Y-11974579D01*
X10646253Y-11974579D02*
X10655777Y-11955531D01*
X10655777Y-11955531D02*
X10665301Y-11946008D01*
X10665301Y-11946008D02*
X10684348Y-11936484D01*
X10931968Y-11936484D02*
X10836729Y-11936484D01*
X10836729Y-11936484D02*
X10827206Y-12031722D01*
X10827206Y-12031722D02*
X10836729Y-12022198D01*
X10836729Y-12022198D02*
X10855777Y-12012674D01*
X10855777Y-12012674D02*
X10903396Y-12012674D01*
X10903396Y-12012674D02*
X10922444Y-12022198D01*
X10922444Y-12022198D02*
X10931968Y-12031722D01*
X10931968Y-12031722D02*
X10941491Y-12050769D01*
X10941491Y-12050769D02*
X10941491Y-12098388D01*
X10941491Y-12098388D02*
X10931968Y-12117436D01*
X10931968Y-12117436D02*
X10922444Y-12126960D01*
X10922444Y-12126960D02*
X10903396Y-12136484D01*
X10903396Y-12136484D02*
X10855777Y-12136484D01*
X10855777Y-12136484D02*
X10836729Y-12126960D01*
X10836729Y-12126960D02*
X10827206Y-12117436D01*
X11036729Y-12136484D02*
X11074825Y-12136484D01*
X11074825Y-12136484D02*
X11093872Y-12126960D01*
X11093872Y-12126960D02*
X11103396Y-12117436D01*
X11103396Y-12117436D02*
X11122444Y-12088865D01*
X11122444Y-12088865D02*
X11131968Y-12050769D01*
X11131968Y-12050769D02*
X11131968Y-11974579D01*
X11131968Y-11974579D02*
X11122444Y-11955531D01*
X11122444Y-11955531D02*
X11112920Y-11946008D01*
X11112920Y-11946008D02*
X11093872Y-11936484D01*
X11093872Y-11936484D02*
X11055777Y-11936484D01*
X11055777Y-11936484D02*
X11036729Y-11946008D01*
X11036729Y-11946008D02*
X11027206Y-11955531D01*
X11027206Y-11955531D02*
X11017682Y-11974579D01*
X11017682Y-11974579D02*
X11017682Y-12022198D01*
X11017682Y-12022198D02*
X11027206Y-12041246D01*
X11027206Y-12041246D02*
X11036729Y-12050769D01*
X11036729Y-12050769D02*
X11055777Y-12060293D01*
X11055777Y-12060293D02*
X11093872Y-12060293D01*
X11093872Y-12060293D02*
X11112920Y-12050769D01*
X11112920Y-12050769D02*
X11122444Y-12041246D01*
X11122444Y-12041246D02*
X11131968Y-12022198D01*
X11322444Y-12136484D02*
X11208158Y-12136484D01*
X11265301Y-12136484D02*
X11265301Y-11936484D01*
X11265301Y-11936484D02*
X11246253Y-11965055D01*
X11246253Y-11965055D02*
X11227206Y-11984103D01*
X11227206Y-11984103D02*
X11208158Y-11993627D01*
X11398634Y-11936484D02*
X11398634Y-11974579D01*
X11474825Y-11936484D02*
X11474825Y-11974579D01*
X11770063Y-12212674D02*
X11760539Y-12203150D01*
X11760539Y-12203150D02*
X11741491Y-12174579D01*
X11741491Y-12174579D02*
X11731968Y-12155531D01*
X11731968Y-12155531D02*
X11722444Y-12126960D01*
X11722444Y-12126960D02*
X11712920Y-12079341D01*
X11712920Y-12079341D02*
X11712920Y-12041246D01*
X11712920Y-12041246D02*
X11722444Y-11993627D01*
X11722444Y-11993627D02*
X11731968Y-11965055D01*
X11731968Y-11965055D02*
X11741491Y-11946008D01*
X11741491Y-11946008D02*
X11760539Y-11917436D01*
X11760539Y-11917436D02*
X11770063Y-11907912D01*
X11836729Y-11955531D02*
X11846253Y-11946008D01*
X11846253Y-11946008D02*
X11865301Y-11936484D01*
X11865301Y-11936484D02*
X11912920Y-11936484D01*
X11912920Y-11936484D02*
X11931968Y-11946008D01*
X11931968Y-11946008D02*
X11941491Y-11955531D01*
X11941491Y-11955531D02*
X11951015Y-11974579D01*
X11951015Y-11974579D02*
X11951015Y-11993627D01*
X11951015Y-11993627D02*
X11941491Y-12022198D01*
X11941491Y-12022198D02*
X11827206Y-12136484D01*
X11827206Y-12136484D02*
X11951015Y-12136484D01*
X12189110Y-12136484D02*
X12189110Y-11936484D01*
X12274825Y-12136484D02*
X12274825Y-12031722D01*
X12274825Y-12031722D02*
X12265301Y-12012674D01*
X12265301Y-12012674D02*
X12246253Y-12003150D01*
X12246253Y-12003150D02*
X12217682Y-12003150D01*
X12217682Y-12003150D02*
X12198634Y-12012674D01*
X12198634Y-12012674D02*
X12189110Y-12022198D01*
X12398634Y-12136484D02*
X12379587Y-12126960D01*
X12379587Y-12126960D02*
X12370063Y-12117436D01*
X12370063Y-12117436D02*
X12360539Y-12098388D01*
X12360539Y-12098388D02*
X12360539Y-12041246D01*
X12360539Y-12041246D02*
X12370063Y-12022198D01*
X12370063Y-12022198D02*
X12379587Y-12012674D01*
X12379587Y-12012674D02*
X12398634Y-12003150D01*
X12398634Y-12003150D02*
X12427206Y-12003150D01*
X12427206Y-12003150D02*
X12446253Y-12012674D01*
X12446253Y-12012674D02*
X12455777Y-12022198D01*
X12455777Y-12022198D02*
X12465301Y-12041246D01*
X12465301Y-12041246D02*
X12465301Y-12098388D01*
X12465301Y-12098388D02*
X12455777Y-12117436D01*
X12455777Y-12117436D02*
X12446253Y-12126960D01*
X12446253Y-12126960D02*
X12427206Y-12136484D01*
X12427206Y-12136484D02*
X12398634Y-12136484D01*
X12579587Y-12136484D02*
X12560539Y-12126960D01*
X12560539Y-12126960D02*
X12551015Y-12107912D01*
X12551015Y-12107912D02*
X12551015Y-11936484D01*
X12731968Y-12126960D02*
X12712920Y-12136484D01*
X12712920Y-12136484D02*
X12674825Y-12136484D01*
X12674825Y-12136484D02*
X12655777Y-12126960D01*
X12655777Y-12126960D02*
X12646253Y-12107912D01*
X12646253Y-12107912D02*
X12646253Y-12031722D01*
X12646253Y-12031722D02*
X12655777Y-12012674D01*
X12655777Y-12012674D02*
X12674825Y-12003150D01*
X12674825Y-12003150D02*
X12712920Y-12003150D01*
X12712920Y-12003150D02*
X12731968Y-12012674D01*
X12731968Y-12012674D02*
X12741491Y-12031722D01*
X12741491Y-12031722D02*
X12741491Y-12050769D01*
X12741491Y-12050769D02*
X12646253Y-12069817D01*
X12817682Y-12126960D02*
X12836730Y-12136484D01*
X12836730Y-12136484D02*
X12874825Y-12136484D01*
X12874825Y-12136484D02*
X12893872Y-12126960D01*
X12893872Y-12126960D02*
X12903396Y-12107912D01*
X12903396Y-12107912D02*
X12903396Y-12098388D01*
X12903396Y-12098388D02*
X12893872Y-12079341D01*
X12893872Y-12079341D02*
X12874825Y-12069817D01*
X12874825Y-12069817D02*
X12846253Y-12069817D01*
X12846253Y-12069817D02*
X12827206Y-12060293D01*
X12827206Y-12060293D02*
X12817682Y-12041246D01*
X12817682Y-12041246D02*
X12817682Y-12031722D01*
X12817682Y-12031722D02*
X12827206Y-12012674D01*
X12827206Y-12012674D02*
X12846253Y-12003150D01*
X12846253Y-12003150D02*
X12874825Y-12003150D01*
X12874825Y-12003150D02*
X12893872Y-12012674D01*
X12970063Y-12212674D02*
X12979587Y-12203150D01*
X12979587Y-12203150D02*
X12998634Y-12174579D01*
X12998634Y-12174579D02*
X13008158Y-12155531D01*
X13008158Y-12155531D02*
X13017682Y-12126960D01*
X13017682Y-12126960D02*
X13027206Y-12079341D01*
X13027206Y-12079341D02*
X13027206Y-12041246D01*
X13027206Y-12041246D02*
X13017682Y-11993627D01*
X13017682Y-11993627D02*
X13008158Y-11965055D01*
X13008158Y-11965055D02*
X12998634Y-11946008D01*
X12998634Y-11946008D02*
X12979587Y-11917436D01*
X12979587Y-11917436D02*
X12970063Y-11907912D01*
X13331968Y-12212674D02*
X13322444Y-12203150D01*
X13322444Y-12203150D02*
X13303396Y-12174579D01*
X13303396Y-12174579D02*
X13293872Y-12155531D01*
X13293872Y-12155531D02*
X13284349Y-12126960D01*
X13284349Y-12126960D02*
X13274825Y-12079341D01*
X13274825Y-12079341D02*
X13274825Y-12041246D01*
X13274825Y-12041246D02*
X13284349Y-11993627D01*
X13284349Y-11993627D02*
X13293872Y-11965055D01*
X13293872Y-11965055D02*
X13303396Y-11946008D01*
X13303396Y-11946008D02*
X13322444Y-11917436D01*
X13322444Y-11917436D02*
X13331968Y-11907912D01*
X13408158Y-12003150D02*
X13408158Y-12136484D01*
X13408158Y-12022198D02*
X13417682Y-12012674D01*
X13417682Y-12012674D02*
X13436730Y-12003150D01*
X13436730Y-12003150D02*
X13465301Y-12003150D01*
X13465301Y-12003150D02*
X13484349Y-12012674D01*
X13484349Y-12012674D02*
X13493872Y-12031722D01*
X13493872Y-12031722D02*
X13493872Y-12136484D01*
X13617682Y-12136484D02*
X13598634Y-12126960D01*
X13598634Y-12126960D02*
X13589111Y-12117436D01*
X13589111Y-12117436D02*
X13579587Y-12098388D01*
X13579587Y-12098388D02*
X13579587Y-12041246D01*
X13579587Y-12041246D02*
X13589111Y-12022198D01*
X13589111Y-12022198D02*
X13598634Y-12012674D01*
X13598634Y-12012674D02*
X13617682Y-12003150D01*
X13617682Y-12003150D02*
X13646253Y-12003150D01*
X13646253Y-12003150D02*
X13665301Y-12012674D01*
X13665301Y-12012674D02*
X13674825Y-12022198D01*
X13674825Y-12022198D02*
X13684349Y-12041246D01*
X13684349Y-12041246D02*
X13684349Y-12098388D01*
X13684349Y-12098388D02*
X13674825Y-12117436D01*
X13674825Y-12117436D02*
X13665301Y-12126960D01*
X13665301Y-12126960D02*
X13646253Y-12136484D01*
X13646253Y-12136484D02*
X13617682Y-12136484D01*
X13741492Y-12003150D02*
X13817682Y-12003150D01*
X13770063Y-11936484D02*
X13770063Y-12107912D01*
X13770063Y-12107912D02*
X13779587Y-12126960D01*
X13779587Y-12126960D02*
X13798634Y-12136484D01*
X13798634Y-12136484D02*
X13817682Y-12136484D01*
X14036730Y-12003150D02*
X14036730Y-12203150D01*
X14036730Y-12012674D02*
X14055777Y-12003150D01*
X14055777Y-12003150D02*
X14093873Y-12003150D01*
X14093873Y-12003150D02*
X14112920Y-12012674D01*
X14112920Y-12012674D02*
X14122444Y-12022198D01*
X14122444Y-12022198D02*
X14131968Y-12041246D01*
X14131968Y-12041246D02*
X14131968Y-12098388D01*
X14131968Y-12098388D02*
X14122444Y-12117436D01*
X14122444Y-12117436D02*
X14112920Y-12126960D01*
X14112920Y-12126960D02*
X14093873Y-12136484D01*
X14093873Y-12136484D02*
X14055777Y-12136484D01*
X14055777Y-12136484D02*
X14036730Y-12126960D01*
X14246253Y-12136484D02*
X14227206Y-12126960D01*
X14227206Y-12126960D02*
X14217682Y-12107912D01*
X14217682Y-12107912D02*
X14217682Y-11936484D01*
X14408158Y-12136484D02*
X14408158Y-12031722D01*
X14408158Y-12031722D02*
X14398634Y-12012674D01*
X14398634Y-12012674D02*
X14379587Y-12003150D01*
X14379587Y-12003150D02*
X14341492Y-12003150D01*
X14341492Y-12003150D02*
X14322444Y-12012674D01*
X14408158Y-12126960D02*
X14389111Y-12136484D01*
X14389111Y-12136484D02*
X14341492Y-12136484D01*
X14341492Y-12136484D02*
X14322444Y-12126960D01*
X14322444Y-12126960D02*
X14312920Y-12107912D01*
X14312920Y-12107912D02*
X14312920Y-12088865D01*
X14312920Y-12088865D02*
X14322444Y-12069817D01*
X14322444Y-12069817D02*
X14341492Y-12060293D01*
X14341492Y-12060293D02*
X14389111Y-12060293D01*
X14389111Y-12060293D02*
X14408158Y-12050769D01*
X14474825Y-12003150D02*
X14551015Y-12003150D01*
X14503396Y-11936484D02*
X14503396Y-12107912D01*
X14503396Y-12107912D02*
X14512920Y-12126960D01*
X14512920Y-12126960D02*
X14531968Y-12136484D01*
X14531968Y-12136484D02*
X14551015Y-12136484D01*
X14693873Y-12126960D02*
X14674825Y-12136484D01*
X14674825Y-12136484D02*
X14636730Y-12136484D01*
X14636730Y-12136484D02*
X14617682Y-12126960D01*
X14617682Y-12126960D02*
X14608158Y-12107912D01*
X14608158Y-12107912D02*
X14608158Y-12031722D01*
X14608158Y-12031722D02*
X14617682Y-12012674D01*
X14617682Y-12012674D02*
X14636730Y-12003150D01*
X14636730Y-12003150D02*
X14674825Y-12003150D01*
X14674825Y-12003150D02*
X14693873Y-12012674D01*
X14693873Y-12012674D02*
X14703396Y-12031722D01*
X14703396Y-12031722D02*
X14703396Y-12050769D01*
X14703396Y-12050769D02*
X14608158Y-12069817D01*
X14874825Y-12136484D02*
X14874825Y-11936484D01*
X14874825Y-12126960D02*
X14855777Y-12136484D01*
X14855777Y-12136484D02*
X14817682Y-12136484D01*
X14817682Y-12136484D02*
X14798634Y-12126960D01*
X14798634Y-12126960D02*
X14789111Y-12117436D01*
X14789111Y-12117436D02*
X14779587Y-12098388D01*
X14779587Y-12098388D02*
X14779587Y-12041246D01*
X14779587Y-12041246D02*
X14789111Y-12022198D01*
X14789111Y-12022198D02*
X14798634Y-12012674D01*
X14798634Y-12012674D02*
X14817682Y-12003150D01*
X14817682Y-12003150D02*
X14855777Y-12003150D01*
X14855777Y-12003150D02*
X14874825Y-12012674D01*
X14951015Y-12212674D02*
X14960539Y-12203150D01*
X14960539Y-12203150D02*
X14979587Y-12174579D01*
X14979587Y-12174579D02*
X14989111Y-12155531D01*
X14989111Y-12155531D02*
X14998634Y-12126960D01*
X14998634Y-12126960D02*
X15008158Y-12079341D01*
X15008158Y-12079341D02*
X15008158Y-12041246D01*
X15008158Y-12041246D02*
X14998634Y-11993627D01*
X14998634Y-11993627D02*
X14989111Y-11965055D01*
X14989111Y-11965055D02*
X14979587Y-11946008D01*
X14979587Y-11946008D02*
X14960539Y-11917436D01*
X14960539Y-11917436D02*
X14951015Y-11907912D01*
D13*
X8195000Y-12315000D02*
G75*
G03*
X8195000Y-12315000I-90000J0D01*
G01*
D11*
X8560539Y-12406484D02*
X8446253Y-12406484D01*
X8503396Y-12406484D02*
X8503396Y-12206484D01*
X8503396Y-12206484D02*
X8484348Y-12235055D01*
X8484348Y-12235055D02*
X8465301Y-12254103D01*
X8465301Y-12254103D02*
X8446253Y-12263627D01*
X8646253Y-12387436D02*
X8655777Y-12396960D01*
X8655777Y-12396960D02*
X8646253Y-12406484D01*
X8646253Y-12406484D02*
X8636729Y-12396960D01*
X8636729Y-12396960D02*
X8646253Y-12387436D01*
X8646253Y-12387436D02*
X8646253Y-12406484D01*
X8770063Y-12292198D02*
X8751015Y-12282674D01*
X8751015Y-12282674D02*
X8741491Y-12273150D01*
X8741491Y-12273150D02*
X8731967Y-12254103D01*
X8731967Y-12254103D02*
X8731967Y-12244579D01*
X8731967Y-12244579D02*
X8741491Y-12225531D01*
X8741491Y-12225531D02*
X8751015Y-12216008D01*
X8751015Y-12216008D02*
X8770063Y-12206484D01*
X8770063Y-12206484D02*
X8808158Y-12206484D01*
X8808158Y-12206484D02*
X8827205Y-12216008D01*
X8827205Y-12216008D02*
X8836729Y-12225531D01*
X8836729Y-12225531D02*
X8846253Y-12244579D01*
X8846253Y-12244579D02*
X8846253Y-12254103D01*
X8846253Y-12254103D02*
X8836729Y-12273150D01*
X8836729Y-12273150D02*
X8827205Y-12282674D01*
X8827205Y-12282674D02*
X8808158Y-12292198D01*
X8808158Y-12292198D02*
X8770063Y-12292198D01*
X8770063Y-12292198D02*
X8751015Y-12301722D01*
X8751015Y-12301722D02*
X8741491Y-12311246D01*
X8741491Y-12311246D02*
X8731967Y-12330293D01*
X8731967Y-12330293D02*
X8731967Y-12368388D01*
X8731967Y-12368388D02*
X8741491Y-12387436D01*
X8741491Y-12387436D02*
X8751015Y-12396960D01*
X8751015Y-12396960D02*
X8770063Y-12406484D01*
X8770063Y-12406484D02*
X8808158Y-12406484D01*
X8808158Y-12406484D02*
X8827205Y-12396960D01*
X8827205Y-12396960D02*
X8836729Y-12387436D01*
X8836729Y-12387436D02*
X8846253Y-12368388D01*
X8846253Y-12368388D02*
X8846253Y-12330293D01*
X8846253Y-12330293D02*
X8836729Y-12311246D01*
X8836729Y-12311246D02*
X8827205Y-12301722D01*
X8827205Y-12301722D02*
X8808158Y-12292198D01*
X8970063Y-12206484D02*
X8989110Y-12206484D01*
X8989110Y-12206484D02*
X9008158Y-12216008D01*
X9008158Y-12216008D02*
X9017682Y-12225531D01*
X9017682Y-12225531D02*
X9027205Y-12244579D01*
X9027205Y-12244579D02*
X9036729Y-12282674D01*
X9036729Y-12282674D02*
X9036729Y-12330293D01*
X9036729Y-12330293D02*
X9027205Y-12368388D01*
X9027205Y-12368388D02*
X9017682Y-12387436D01*
X9017682Y-12387436D02*
X9008158Y-12396960D01*
X9008158Y-12396960D02*
X8989110Y-12406484D01*
X8989110Y-12406484D02*
X8970063Y-12406484D01*
X8970063Y-12406484D02*
X8951015Y-12396960D01*
X8951015Y-12396960D02*
X8941491Y-12387436D01*
X8941491Y-12387436D02*
X8931967Y-12368388D01*
X8931967Y-12368388D02*
X8922444Y-12330293D01*
X8922444Y-12330293D02*
X8922444Y-12282674D01*
X8922444Y-12282674D02*
X8931967Y-12244579D01*
X8931967Y-12244579D02*
X8941491Y-12225531D01*
X8941491Y-12225531D02*
X8951015Y-12216008D01*
X8951015Y-12216008D02*
X8970063Y-12206484D01*
X9160539Y-12206484D02*
X9179586Y-12206484D01*
X9179586Y-12206484D02*
X9198634Y-12216008D01*
X9198634Y-12216008D02*
X9208158Y-12225531D01*
X9208158Y-12225531D02*
X9217682Y-12244579D01*
X9217682Y-12244579D02*
X9227205Y-12282674D01*
X9227205Y-12282674D02*
X9227205Y-12330293D01*
X9227205Y-12330293D02*
X9217682Y-12368388D01*
X9217682Y-12368388D02*
X9208158Y-12387436D01*
X9208158Y-12387436D02*
X9198634Y-12396960D01*
X9198634Y-12396960D02*
X9179586Y-12406484D01*
X9179586Y-12406484D02*
X9160539Y-12406484D01*
X9160539Y-12406484D02*
X9141491Y-12396960D01*
X9141491Y-12396960D02*
X9131967Y-12387436D01*
X9131967Y-12387436D02*
X9122444Y-12368388D01*
X9122444Y-12368388D02*
X9112920Y-12330293D01*
X9112920Y-12330293D02*
X9112920Y-12282674D01*
X9112920Y-12282674D02*
X9122444Y-12244579D01*
X9122444Y-12244579D02*
X9131967Y-12225531D01*
X9131967Y-12225531D02*
X9141491Y-12216008D01*
X9141491Y-12216008D02*
X9160539Y-12206484D01*
X9312920Y-12406484D02*
X9312920Y-12273150D01*
X9312920Y-12292198D02*
X9322444Y-12282674D01*
X9322444Y-12282674D02*
X9341491Y-12273150D01*
X9341491Y-12273150D02*
X9370063Y-12273150D01*
X9370063Y-12273150D02*
X9389110Y-12282674D01*
X9389110Y-12282674D02*
X9398634Y-12301722D01*
X9398634Y-12301722D02*
X9398634Y-12406484D01*
X9398634Y-12301722D02*
X9408158Y-12282674D01*
X9408158Y-12282674D02*
X9427205Y-12273150D01*
X9427205Y-12273150D02*
X9455777Y-12273150D01*
X9455777Y-12273150D02*
X9474825Y-12282674D01*
X9474825Y-12282674D02*
X9484348Y-12301722D01*
X9484348Y-12301722D02*
X9484348Y-12406484D01*
X9579586Y-12406484D02*
X9579586Y-12273150D01*
X9579586Y-12292198D02*
X9589110Y-12282674D01*
X9589110Y-12282674D02*
X9608158Y-12273150D01*
X9608158Y-12273150D02*
X9636729Y-12273150D01*
X9636729Y-12273150D02*
X9655777Y-12282674D01*
X9655777Y-12282674D02*
X9665301Y-12301722D01*
X9665301Y-12301722D02*
X9665301Y-12406484D01*
X9665301Y-12301722D02*
X9674825Y-12282674D01*
X9674825Y-12282674D02*
X9693872Y-12273150D01*
X9693872Y-12273150D02*
X9722444Y-12273150D01*
X9722444Y-12273150D02*
X9741491Y-12282674D01*
X9741491Y-12282674D02*
X9751015Y-12301722D01*
X9751015Y-12301722D02*
X9751015Y-12406484D01*
X10141491Y-12196960D02*
X9970063Y-12454103D01*
X10398634Y-12206484D02*
X10417682Y-12206484D01*
X10417682Y-12206484D02*
X10436729Y-12216008D01*
X10436729Y-12216008D02*
X10446253Y-12225531D01*
X10446253Y-12225531D02*
X10455777Y-12244579D01*
X10455777Y-12244579D02*
X10465301Y-12282674D01*
X10465301Y-12282674D02*
X10465301Y-12330293D01*
X10465301Y-12330293D02*
X10455777Y-12368388D01*
X10455777Y-12368388D02*
X10446253Y-12387436D01*
X10446253Y-12387436D02*
X10436729Y-12396960D01*
X10436729Y-12396960D02*
X10417682Y-12406484D01*
X10417682Y-12406484D02*
X10398634Y-12406484D01*
X10398634Y-12406484D02*
X10379587Y-12396960D01*
X10379587Y-12396960D02*
X10370063Y-12387436D01*
X10370063Y-12387436D02*
X10360539Y-12368388D01*
X10360539Y-12368388D02*
X10351015Y-12330293D01*
X10351015Y-12330293D02*
X10351015Y-12282674D01*
X10351015Y-12282674D02*
X10360539Y-12244579D01*
X10360539Y-12244579D02*
X10370063Y-12225531D01*
X10370063Y-12225531D02*
X10379587Y-12216008D01*
X10379587Y-12216008D02*
X10398634Y-12206484D01*
X10551015Y-12387436D02*
X10560539Y-12396960D01*
X10560539Y-12396960D02*
X10551015Y-12406484D01*
X10551015Y-12406484D02*
X10541491Y-12396960D01*
X10541491Y-12396960D02*
X10551015Y-12387436D01*
X10551015Y-12387436D02*
X10551015Y-12406484D01*
X10684348Y-12206484D02*
X10703396Y-12206484D01*
X10703396Y-12206484D02*
X10722444Y-12216008D01*
X10722444Y-12216008D02*
X10731968Y-12225531D01*
X10731968Y-12225531D02*
X10741491Y-12244579D01*
X10741491Y-12244579D02*
X10751015Y-12282674D01*
X10751015Y-12282674D02*
X10751015Y-12330293D01*
X10751015Y-12330293D02*
X10741491Y-12368388D01*
X10741491Y-12368388D02*
X10731968Y-12387436D01*
X10731968Y-12387436D02*
X10722444Y-12396960D01*
X10722444Y-12396960D02*
X10703396Y-12406484D01*
X10703396Y-12406484D02*
X10684348Y-12406484D01*
X10684348Y-12406484D02*
X10665301Y-12396960D01*
X10665301Y-12396960D02*
X10655777Y-12387436D01*
X10655777Y-12387436D02*
X10646253Y-12368388D01*
X10646253Y-12368388D02*
X10636729Y-12330293D01*
X10636729Y-12330293D02*
X10636729Y-12282674D01*
X10636729Y-12282674D02*
X10646253Y-12244579D01*
X10646253Y-12244579D02*
X10655777Y-12225531D01*
X10655777Y-12225531D02*
X10665301Y-12216008D01*
X10665301Y-12216008D02*
X10684348Y-12206484D01*
X10817682Y-12206484D02*
X10951015Y-12206484D01*
X10951015Y-12206484D02*
X10865301Y-12406484D01*
X11065301Y-12206484D02*
X11084349Y-12206484D01*
X11084349Y-12206484D02*
X11103396Y-12216008D01*
X11103396Y-12216008D02*
X11112920Y-12225531D01*
X11112920Y-12225531D02*
X11122444Y-12244579D01*
X11122444Y-12244579D02*
X11131968Y-12282674D01*
X11131968Y-12282674D02*
X11131968Y-12330293D01*
X11131968Y-12330293D02*
X11122444Y-12368388D01*
X11122444Y-12368388D02*
X11112920Y-12387436D01*
X11112920Y-12387436D02*
X11103396Y-12396960D01*
X11103396Y-12396960D02*
X11084349Y-12406484D01*
X11084349Y-12406484D02*
X11065301Y-12406484D01*
X11065301Y-12406484D02*
X11046253Y-12396960D01*
X11046253Y-12396960D02*
X11036729Y-12387436D01*
X11036729Y-12387436D02*
X11027206Y-12368388D01*
X11027206Y-12368388D02*
X11017682Y-12330293D01*
X11017682Y-12330293D02*
X11017682Y-12282674D01*
X11017682Y-12282674D02*
X11027206Y-12244579D01*
X11027206Y-12244579D02*
X11036729Y-12225531D01*
X11036729Y-12225531D02*
X11046253Y-12216008D01*
X11046253Y-12216008D02*
X11065301Y-12206484D01*
X11227206Y-12406484D02*
X11265301Y-12406484D01*
X11265301Y-12406484D02*
X11284348Y-12396960D01*
X11284348Y-12396960D02*
X11293872Y-12387436D01*
X11293872Y-12387436D02*
X11312920Y-12358865D01*
X11312920Y-12358865D02*
X11322444Y-12320769D01*
X11322444Y-12320769D02*
X11322444Y-12244579D01*
X11322444Y-12244579D02*
X11312920Y-12225531D01*
X11312920Y-12225531D02*
X11303396Y-12216008D01*
X11303396Y-12216008D02*
X11284348Y-12206484D01*
X11284348Y-12206484D02*
X11246253Y-12206484D01*
X11246253Y-12206484D02*
X11227206Y-12216008D01*
X11227206Y-12216008D02*
X11217682Y-12225531D01*
X11217682Y-12225531D02*
X11208158Y-12244579D01*
X11208158Y-12244579D02*
X11208158Y-12292198D01*
X11208158Y-12292198D02*
X11217682Y-12311246D01*
X11217682Y-12311246D02*
X11227206Y-12320769D01*
X11227206Y-12320769D02*
X11246253Y-12330293D01*
X11246253Y-12330293D02*
X11284348Y-12330293D01*
X11284348Y-12330293D02*
X11303396Y-12320769D01*
X11303396Y-12320769D02*
X11312920Y-12311246D01*
X11312920Y-12311246D02*
X11322444Y-12292198D01*
X11398634Y-12206484D02*
X11398634Y-12244579D01*
X11474825Y-12206484D02*
X11474825Y-12244579D01*
X11770063Y-12482674D02*
X11760539Y-12473150D01*
X11760539Y-12473150D02*
X11741491Y-12444579D01*
X11741491Y-12444579D02*
X11731968Y-12425531D01*
X11731968Y-12425531D02*
X11722444Y-12396960D01*
X11722444Y-12396960D02*
X11712920Y-12349341D01*
X11712920Y-12349341D02*
X11712920Y-12311246D01*
X11712920Y-12311246D02*
X11722444Y-12263627D01*
X11722444Y-12263627D02*
X11731968Y-12235055D01*
X11731968Y-12235055D02*
X11741491Y-12216008D01*
X11741491Y-12216008D02*
X11760539Y-12187436D01*
X11760539Y-12187436D02*
X11770063Y-12177912D01*
X11836729Y-12225531D02*
X11846253Y-12216008D01*
X11846253Y-12216008D02*
X11865301Y-12206484D01*
X11865301Y-12206484D02*
X11912920Y-12206484D01*
X11912920Y-12206484D02*
X11931968Y-12216008D01*
X11931968Y-12216008D02*
X11941491Y-12225531D01*
X11941491Y-12225531D02*
X11951015Y-12244579D01*
X11951015Y-12244579D02*
X11951015Y-12263627D01*
X11951015Y-12263627D02*
X11941491Y-12292198D01*
X11941491Y-12292198D02*
X11827206Y-12406484D01*
X11827206Y-12406484D02*
X11951015Y-12406484D01*
X12189110Y-12406484D02*
X12189110Y-12206484D01*
X12274825Y-12406484D02*
X12274825Y-12301722D01*
X12274825Y-12301722D02*
X12265301Y-12282674D01*
X12265301Y-12282674D02*
X12246253Y-12273150D01*
X12246253Y-12273150D02*
X12217682Y-12273150D01*
X12217682Y-12273150D02*
X12198634Y-12282674D01*
X12198634Y-12282674D02*
X12189110Y-12292198D01*
X12398634Y-12406484D02*
X12379587Y-12396960D01*
X12379587Y-12396960D02*
X12370063Y-12387436D01*
X12370063Y-12387436D02*
X12360539Y-12368388D01*
X12360539Y-12368388D02*
X12360539Y-12311246D01*
X12360539Y-12311246D02*
X12370063Y-12292198D01*
X12370063Y-12292198D02*
X12379587Y-12282674D01*
X12379587Y-12282674D02*
X12398634Y-12273150D01*
X12398634Y-12273150D02*
X12427206Y-12273150D01*
X12427206Y-12273150D02*
X12446253Y-12282674D01*
X12446253Y-12282674D02*
X12455777Y-12292198D01*
X12455777Y-12292198D02*
X12465301Y-12311246D01*
X12465301Y-12311246D02*
X12465301Y-12368388D01*
X12465301Y-12368388D02*
X12455777Y-12387436D01*
X12455777Y-12387436D02*
X12446253Y-12396960D01*
X12446253Y-12396960D02*
X12427206Y-12406484D01*
X12427206Y-12406484D02*
X12398634Y-12406484D01*
X12579587Y-12406484D02*
X12560539Y-12396960D01*
X12560539Y-12396960D02*
X12551015Y-12377912D01*
X12551015Y-12377912D02*
X12551015Y-12206484D01*
X12731968Y-12396960D02*
X12712920Y-12406484D01*
X12712920Y-12406484D02*
X12674825Y-12406484D01*
X12674825Y-12406484D02*
X12655777Y-12396960D01*
X12655777Y-12396960D02*
X12646253Y-12377912D01*
X12646253Y-12377912D02*
X12646253Y-12301722D01*
X12646253Y-12301722D02*
X12655777Y-12282674D01*
X12655777Y-12282674D02*
X12674825Y-12273150D01*
X12674825Y-12273150D02*
X12712920Y-12273150D01*
X12712920Y-12273150D02*
X12731968Y-12282674D01*
X12731968Y-12282674D02*
X12741491Y-12301722D01*
X12741491Y-12301722D02*
X12741491Y-12320769D01*
X12741491Y-12320769D02*
X12646253Y-12339817D01*
X12817682Y-12396960D02*
X12836730Y-12406484D01*
X12836730Y-12406484D02*
X12874825Y-12406484D01*
X12874825Y-12406484D02*
X12893872Y-12396960D01*
X12893872Y-12396960D02*
X12903396Y-12377912D01*
X12903396Y-12377912D02*
X12903396Y-12368388D01*
X12903396Y-12368388D02*
X12893872Y-12349341D01*
X12893872Y-12349341D02*
X12874825Y-12339817D01*
X12874825Y-12339817D02*
X12846253Y-12339817D01*
X12846253Y-12339817D02*
X12827206Y-12330293D01*
X12827206Y-12330293D02*
X12817682Y-12311246D01*
X12817682Y-12311246D02*
X12817682Y-12301722D01*
X12817682Y-12301722D02*
X12827206Y-12282674D01*
X12827206Y-12282674D02*
X12846253Y-12273150D01*
X12846253Y-12273150D02*
X12874825Y-12273150D01*
X12874825Y-12273150D02*
X12893872Y-12282674D01*
X12970063Y-12482674D02*
X12979587Y-12473150D01*
X12979587Y-12473150D02*
X12998634Y-12444579D01*
X12998634Y-12444579D02*
X13008158Y-12425531D01*
X13008158Y-12425531D02*
X13017682Y-12396960D01*
X13017682Y-12396960D02*
X13027206Y-12349341D01*
X13027206Y-12349341D02*
X13027206Y-12311246D01*
X13027206Y-12311246D02*
X13017682Y-12263627D01*
X13017682Y-12263627D02*
X13008158Y-12235055D01*
X13008158Y-12235055D02*
X12998634Y-12216008D01*
X12998634Y-12216008D02*
X12979587Y-12187436D01*
X12979587Y-12187436D02*
X12970063Y-12177912D01*
X13331968Y-12482674D02*
X13322444Y-12473150D01*
X13322444Y-12473150D02*
X13303396Y-12444579D01*
X13303396Y-12444579D02*
X13293872Y-12425531D01*
X13293872Y-12425531D02*
X13284349Y-12396960D01*
X13284349Y-12396960D02*
X13274825Y-12349341D01*
X13274825Y-12349341D02*
X13274825Y-12311246D01*
X13274825Y-12311246D02*
X13284349Y-12263627D01*
X13284349Y-12263627D02*
X13293872Y-12235055D01*
X13293872Y-12235055D02*
X13303396Y-12216008D01*
X13303396Y-12216008D02*
X13322444Y-12187436D01*
X13322444Y-12187436D02*
X13331968Y-12177912D01*
X13408158Y-12273150D02*
X13408158Y-12406484D01*
X13408158Y-12292198D02*
X13417682Y-12282674D01*
X13417682Y-12282674D02*
X13436730Y-12273150D01*
X13436730Y-12273150D02*
X13465301Y-12273150D01*
X13465301Y-12273150D02*
X13484349Y-12282674D01*
X13484349Y-12282674D02*
X13493872Y-12301722D01*
X13493872Y-12301722D02*
X13493872Y-12406484D01*
X13617682Y-12406484D02*
X13598634Y-12396960D01*
X13598634Y-12396960D02*
X13589111Y-12387436D01*
X13589111Y-12387436D02*
X13579587Y-12368388D01*
X13579587Y-12368388D02*
X13579587Y-12311246D01*
X13579587Y-12311246D02*
X13589111Y-12292198D01*
X13589111Y-12292198D02*
X13598634Y-12282674D01*
X13598634Y-12282674D02*
X13617682Y-12273150D01*
X13617682Y-12273150D02*
X13646253Y-12273150D01*
X13646253Y-12273150D02*
X13665301Y-12282674D01*
X13665301Y-12282674D02*
X13674825Y-12292198D01*
X13674825Y-12292198D02*
X13684349Y-12311246D01*
X13684349Y-12311246D02*
X13684349Y-12368388D01*
X13684349Y-12368388D02*
X13674825Y-12387436D01*
X13674825Y-12387436D02*
X13665301Y-12396960D01*
X13665301Y-12396960D02*
X13646253Y-12406484D01*
X13646253Y-12406484D02*
X13617682Y-12406484D01*
X13741492Y-12273150D02*
X13817682Y-12273150D01*
X13770063Y-12206484D02*
X13770063Y-12377912D01*
X13770063Y-12377912D02*
X13779587Y-12396960D01*
X13779587Y-12396960D02*
X13798634Y-12406484D01*
X13798634Y-12406484D02*
X13817682Y-12406484D01*
X14036730Y-12273150D02*
X14036730Y-12473150D01*
X14036730Y-12282674D02*
X14055777Y-12273150D01*
X14055777Y-12273150D02*
X14093873Y-12273150D01*
X14093873Y-12273150D02*
X14112920Y-12282674D01*
X14112920Y-12282674D02*
X14122444Y-12292198D01*
X14122444Y-12292198D02*
X14131968Y-12311246D01*
X14131968Y-12311246D02*
X14131968Y-12368388D01*
X14131968Y-12368388D02*
X14122444Y-12387436D01*
X14122444Y-12387436D02*
X14112920Y-12396960D01*
X14112920Y-12396960D02*
X14093873Y-12406484D01*
X14093873Y-12406484D02*
X14055777Y-12406484D01*
X14055777Y-12406484D02*
X14036730Y-12396960D01*
X14246253Y-12406484D02*
X14227206Y-12396960D01*
X14227206Y-12396960D02*
X14217682Y-12377912D01*
X14217682Y-12377912D02*
X14217682Y-12206484D01*
X14408158Y-12406484D02*
X14408158Y-12301722D01*
X14408158Y-12301722D02*
X14398634Y-12282674D01*
X14398634Y-12282674D02*
X14379587Y-12273150D01*
X14379587Y-12273150D02*
X14341492Y-12273150D01*
X14341492Y-12273150D02*
X14322444Y-12282674D01*
X14408158Y-12396960D02*
X14389111Y-12406484D01*
X14389111Y-12406484D02*
X14341492Y-12406484D01*
X14341492Y-12406484D02*
X14322444Y-12396960D01*
X14322444Y-12396960D02*
X14312920Y-12377912D01*
X14312920Y-12377912D02*
X14312920Y-12358865D01*
X14312920Y-12358865D02*
X14322444Y-12339817D01*
X14322444Y-12339817D02*
X14341492Y-12330293D01*
X14341492Y-12330293D02*
X14389111Y-12330293D01*
X14389111Y-12330293D02*
X14408158Y-12320769D01*
X14474825Y-12273150D02*
X14551015Y-12273150D01*
X14503396Y-12206484D02*
X14503396Y-12377912D01*
X14503396Y-12377912D02*
X14512920Y-12396960D01*
X14512920Y-12396960D02*
X14531968Y-12406484D01*
X14531968Y-12406484D02*
X14551015Y-12406484D01*
X14693873Y-12396960D02*
X14674825Y-12406484D01*
X14674825Y-12406484D02*
X14636730Y-12406484D01*
X14636730Y-12406484D02*
X14617682Y-12396960D01*
X14617682Y-12396960D02*
X14608158Y-12377912D01*
X14608158Y-12377912D02*
X14608158Y-12301722D01*
X14608158Y-12301722D02*
X14617682Y-12282674D01*
X14617682Y-12282674D02*
X14636730Y-12273150D01*
X14636730Y-12273150D02*
X14674825Y-12273150D01*
X14674825Y-12273150D02*
X14693873Y-12282674D01*
X14693873Y-12282674D02*
X14703396Y-12301722D01*
X14703396Y-12301722D02*
X14703396Y-12320769D01*
X14703396Y-12320769D02*
X14608158Y-12339817D01*
X14874825Y-12406484D02*
X14874825Y-12206484D01*
X14874825Y-12396960D02*
X14855777Y-12406484D01*
X14855777Y-12406484D02*
X14817682Y-12406484D01*
X14817682Y-12406484D02*
X14798634Y-12396960D01*
X14798634Y-12396960D02*
X14789111Y-12387436D01*
X14789111Y-12387436D02*
X14779587Y-12368388D01*
X14779587Y-12368388D02*
X14779587Y-12311246D01*
X14779587Y-12311246D02*
X14789111Y-12292198D01*
X14789111Y-12292198D02*
X14798634Y-12282674D01*
X14798634Y-12282674D02*
X14817682Y-12273150D01*
X14817682Y-12273150D02*
X14855777Y-12273150D01*
X14855777Y-12273150D02*
X14874825Y-12282674D01*
X14951015Y-12482674D02*
X14960539Y-12473150D01*
X14960539Y-12473150D02*
X14979587Y-12444579D01*
X14979587Y-12444579D02*
X14989111Y-12425531D01*
X14989111Y-12425531D02*
X14998634Y-12396960D01*
X14998634Y-12396960D02*
X15008158Y-12349341D01*
X15008158Y-12349341D02*
X15008158Y-12311246D01*
X15008158Y-12311246D02*
X14998634Y-12263627D01*
X14998634Y-12263627D02*
X14989111Y-12235055D01*
X14989111Y-12235055D02*
X14979587Y-12216008D01*
X14979587Y-12216008D02*
X14960539Y-12187436D01*
X14960539Y-12187436D02*
X14951015Y-12177912D01*
X8095000Y-12515000D02*
X8095000Y-12715000D01*
X7995000Y-12615000D02*
X8195000Y-12615000D01*
X8446253Y-12525531D02*
X8455777Y-12516008D01*
X8455777Y-12516008D02*
X8474824Y-12506484D01*
X8474824Y-12506484D02*
X8522444Y-12506484D01*
X8522444Y-12506484D02*
X8541491Y-12516008D01*
X8541491Y-12516008D02*
X8551015Y-12525531D01*
X8551015Y-12525531D02*
X8560539Y-12544579D01*
X8560539Y-12544579D02*
X8560539Y-12563627D01*
X8560539Y-12563627D02*
X8551015Y-12592198D01*
X8551015Y-12592198D02*
X8436729Y-12706484D01*
X8436729Y-12706484D02*
X8560539Y-12706484D01*
X8646253Y-12687436D02*
X8655777Y-12696960D01*
X8655777Y-12696960D02*
X8646253Y-12706484D01*
X8646253Y-12706484D02*
X8636729Y-12696960D01*
X8636729Y-12696960D02*
X8646253Y-12687436D01*
X8646253Y-12687436D02*
X8646253Y-12706484D01*
X8731967Y-12525531D02*
X8741491Y-12516008D01*
X8741491Y-12516008D02*
X8760539Y-12506484D01*
X8760539Y-12506484D02*
X8808158Y-12506484D01*
X8808158Y-12506484D02*
X8827205Y-12516008D01*
X8827205Y-12516008D02*
X8836729Y-12525531D01*
X8836729Y-12525531D02*
X8846253Y-12544579D01*
X8846253Y-12544579D02*
X8846253Y-12563627D01*
X8846253Y-12563627D02*
X8836729Y-12592198D01*
X8836729Y-12592198D02*
X8722444Y-12706484D01*
X8722444Y-12706484D02*
X8846253Y-12706484D01*
X8970063Y-12506484D02*
X8989110Y-12506484D01*
X8989110Y-12506484D02*
X9008158Y-12516008D01*
X9008158Y-12516008D02*
X9017682Y-12525531D01*
X9017682Y-12525531D02*
X9027205Y-12544579D01*
X9027205Y-12544579D02*
X9036729Y-12582674D01*
X9036729Y-12582674D02*
X9036729Y-12630293D01*
X9036729Y-12630293D02*
X9027205Y-12668388D01*
X9027205Y-12668388D02*
X9017682Y-12687436D01*
X9017682Y-12687436D02*
X9008158Y-12696960D01*
X9008158Y-12696960D02*
X8989110Y-12706484D01*
X8989110Y-12706484D02*
X8970063Y-12706484D01*
X8970063Y-12706484D02*
X8951015Y-12696960D01*
X8951015Y-12696960D02*
X8941491Y-12687436D01*
X8941491Y-12687436D02*
X8931967Y-12668388D01*
X8931967Y-12668388D02*
X8922444Y-12630293D01*
X8922444Y-12630293D02*
X8922444Y-12582674D01*
X8922444Y-12582674D02*
X8931967Y-12544579D01*
X8931967Y-12544579D02*
X8941491Y-12525531D01*
X8941491Y-12525531D02*
X8951015Y-12516008D01*
X8951015Y-12516008D02*
X8970063Y-12506484D01*
X9160539Y-12506484D02*
X9179586Y-12506484D01*
X9179586Y-12506484D02*
X9198634Y-12516008D01*
X9198634Y-12516008D02*
X9208158Y-12525531D01*
X9208158Y-12525531D02*
X9217682Y-12544579D01*
X9217682Y-12544579D02*
X9227205Y-12582674D01*
X9227205Y-12582674D02*
X9227205Y-12630293D01*
X9227205Y-12630293D02*
X9217682Y-12668388D01*
X9217682Y-12668388D02*
X9208158Y-12687436D01*
X9208158Y-12687436D02*
X9198634Y-12696960D01*
X9198634Y-12696960D02*
X9179586Y-12706484D01*
X9179586Y-12706484D02*
X9160539Y-12706484D01*
X9160539Y-12706484D02*
X9141491Y-12696960D01*
X9141491Y-12696960D02*
X9131967Y-12687436D01*
X9131967Y-12687436D02*
X9122444Y-12668388D01*
X9122444Y-12668388D02*
X9112920Y-12630293D01*
X9112920Y-12630293D02*
X9112920Y-12582674D01*
X9112920Y-12582674D02*
X9122444Y-12544579D01*
X9122444Y-12544579D02*
X9131967Y-12525531D01*
X9131967Y-12525531D02*
X9141491Y-12516008D01*
X9141491Y-12516008D02*
X9160539Y-12506484D01*
X9312920Y-12706484D02*
X9312920Y-12573150D01*
X9312920Y-12592198D02*
X9322444Y-12582674D01*
X9322444Y-12582674D02*
X9341491Y-12573150D01*
X9341491Y-12573150D02*
X9370063Y-12573150D01*
X9370063Y-12573150D02*
X9389110Y-12582674D01*
X9389110Y-12582674D02*
X9398634Y-12601722D01*
X9398634Y-12601722D02*
X9398634Y-12706484D01*
X9398634Y-12601722D02*
X9408158Y-12582674D01*
X9408158Y-12582674D02*
X9427205Y-12573150D01*
X9427205Y-12573150D02*
X9455777Y-12573150D01*
X9455777Y-12573150D02*
X9474825Y-12582674D01*
X9474825Y-12582674D02*
X9484348Y-12601722D01*
X9484348Y-12601722D02*
X9484348Y-12706484D01*
X9579586Y-12706484D02*
X9579586Y-12573150D01*
X9579586Y-12592198D02*
X9589110Y-12582674D01*
X9589110Y-12582674D02*
X9608158Y-12573150D01*
X9608158Y-12573150D02*
X9636729Y-12573150D01*
X9636729Y-12573150D02*
X9655777Y-12582674D01*
X9655777Y-12582674D02*
X9665301Y-12601722D01*
X9665301Y-12601722D02*
X9665301Y-12706484D01*
X9665301Y-12601722D02*
X9674825Y-12582674D01*
X9674825Y-12582674D02*
X9693872Y-12573150D01*
X9693872Y-12573150D02*
X9722444Y-12573150D01*
X9722444Y-12573150D02*
X9741491Y-12582674D01*
X9741491Y-12582674D02*
X9751015Y-12601722D01*
X9751015Y-12601722D02*
X9751015Y-12706484D01*
X10141491Y-12496960D02*
X9970063Y-12754103D01*
X10398634Y-12506484D02*
X10417682Y-12506484D01*
X10417682Y-12506484D02*
X10436729Y-12516008D01*
X10436729Y-12516008D02*
X10446253Y-12525531D01*
X10446253Y-12525531D02*
X10455777Y-12544579D01*
X10455777Y-12544579D02*
X10465301Y-12582674D01*
X10465301Y-12582674D02*
X10465301Y-12630293D01*
X10465301Y-12630293D02*
X10455777Y-12668388D01*
X10455777Y-12668388D02*
X10446253Y-12687436D01*
X10446253Y-12687436D02*
X10436729Y-12696960D01*
X10436729Y-12696960D02*
X10417682Y-12706484D01*
X10417682Y-12706484D02*
X10398634Y-12706484D01*
X10398634Y-12706484D02*
X10379587Y-12696960D01*
X10379587Y-12696960D02*
X10370063Y-12687436D01*
X10370063Y-12687436D02*
X10360539Y-12668388D01*
X10360539Y-12668388D02*
X10351015Y-12630293D01*
X10351015Y-12630293D02*
X10351015Y-12582674D01*
X10351015Y-12582674D02*
X10360539Y-12544579D01*
X10360539Y-12544579D02*
X10370063Y-12525531D01*
X10370063Y-12525531D02*
X10379587Y-12516008D01*
X10379587Y-12516008D02*
X10398634Y-12506484D01*
X10551015Y-12687436D02*
X10560539Y-12696960D01*
X10560539Y-12696960D02*
X10551015Y-12706484D01*
X10551015Y-12706484D02*
X10541491Y-12696960D01*
X10541491Y-12696960D02*
X10551015Y-12687436D01*
X10551015Y-12687436D02*
X10551015Y-12706484D01*
X10684348Y-12506484D02*
X10703396Y-12506484D01*
X10703396Y-12506484D02*
X10722444Y-12516008D01*
X10722444Y-12516008D02*
X10731968Y-12525531D01*
X10731968Y-12525531D02*
X10741491Y-12544579D01*
X10741491Y-12544579D02*
X10751015Y-12582674D01*
X10751015Y-12582674D02*
X10751015Y-12630293D01*
X10751015Y-12630293D02*
X10741491Y-12668388D01*
X10741491Y-12668388D02*
X10731968Y-12687436D01*
X10731968Y-12687436D02*
X10722444Y-12696960D01*
X10722444Y-12696960D02*
X10703396Y-12706484D01*
X10703396Y-12706484D02*
X10684348Y-12706484D01*
X10684348Y-12706484D02*
X10665301Y-12696960D01*
X10665301Y-12696960D02*
X10655777Y-12687436D01*
X10655777Y-12687436D02*
X10646253Y-12668388D01*
X10646253Y-12668388D02*
X10636729Y-12630293D01*
X10636729Y-12630293D02*
X10636729Y-12582674D01*
X10636729Y-12582674D02*
X10646253Y-12544579D01*
X10646253Y-12544579D02*
X10655777Y-12525531D01*
X10655777Y-12525531D02*
X10665301Y-12516008D01*
X10665301Y-12516008D02*
X10684348Y-12506484D01*
X10865301Y-12592198D02*
X10846253Y-12582674D01*
X10846253Y-12582674D02*
X10836729Y-12573150D01*
X10836729Y-12573150D02*
X10827206Y-12554103D01*
X10827206Y-12554103D02*
X10827206Y-12544579D01*
X10827206Y-12544579D02*
X10836729Y-12525531D01*
X10836729Y-12525531D02*
X10846253Y-12516008D01*
X10846253Y-12516008D02*
X10865301Y-12506484D01*
X10865301Y-12506484D02*
X10903396Y-12506484D01*
X10903396Y-12506484D02*
X10922444Y-12516008D01*
X10922444Y-12516008D02*
X10931968Y-12525531D01*
X10931968Y-12525531D02*
X10941491Y-12544579D01*
X10941491Y-12544579D02*
X10941491Y-12554103D01*
X10941491Y-12554103D02*
X10931968Y-12573150D01*
X10931968Y-12573150D02*
X10922444Y-12582674D01*
X10922444Y-12582674D02*
X10903396Y-12592198D01*
X10903396Y-12592198D02*
X10865301Y-12592198D01*
X10865301Y-12592198D02*
X10846253Y-12601722D01*
X10846253Y-12601722D02*
X10836729Y-12611246D01*
X10836729Y-12611246D02*
X10827206Y-12630293D01*
X10827206Y-12630293D02*
X10827206Y-12668388D01*
X10827206Y-12668388D02*
X10836729Y-12687436D01*
X10836729Y-12687436D02*
X10846253Y-12696960D01*
X10846253Y-12696960D02*
X10865301Y-12706484D01*
X10865301Y-12706484D02*
X10903396Y-12706484D01*
X10903396Y-12706484D02*
X10922444Y-12696960D01*
X10922444Y-12696960D02*
X10931968Y-12687436D01*
X10931968Y-12687436D02*
X10941491Y-12668388D01*
X10941491Y-12668388D02*
X10941491Y-12630293D01*
X10941491Y-12630293D02*
X10931968Y-12611246D01*
X10931968Y-12611246D02*
X10922444Y-12601722D01*
X10922444Y-12601722D02*
X10903396Y-12592198D01*
X11112920Y-12506484D02*
X11074825Y-12506484D01*
X11074825Y-12506484D02*
X11055777Y-12516008D01*
X11055777Y-12516008D02*
X11046253Y-12525531D01*
X11046253Y-12525531D02*
X11027206Y-12554103D01*
X11027206Y-12554103D02*
X11017682Y-12592198D01*
X11017682Y-12592198D02*
X11017682Y-12668388D01*
X11017682Y-12668388D02*
X11027206Y-12687436D01*
X11027206Y-12687436D02*
X11036729Y-12696960D01*
X11036729Y-12696960D02*
X11055777Y-12706484D01*
X11055777Y-12706484D02*
X11093872Y-12706484D01*
X11093872Y-12706484D02*
X11112920Y-12696960D01*
X11112920Y-12696960D02*
X11122444Y-12687436D01*
X11122444Y-12687436D02*
X11131968Y-12668388D01*
X11131968Y-12668388D02*
X11131968Y-12620769D01*
X11131968Y-12620769D02*
X11122444Y-12601722D01*
X11122444Y-12601722D02*
X11112920Y-12592198D01*
X11112920Y-12592198D02*
X11093872Y-12582674D01*
X11093872Y-12582674D02*
X11055777Y-12582674D01*
X11055777Y-12582674D02*
X11036729Y-12592198D01*
X11036729Y-12592198D02*
X11027206Y-12601722D01*
X11027206Y-12601722D02*
X11017682Y-12620769D01*
X11303396Y-12506484D02*
X11265301Y-12506484D01*
X11265301Y-12506484D02*
X11246253Y-12516008D01*
X11246253Y-12516008D02*
X11236729Y-12525531D01*
X11236729Y-12525531D02*
X11217682Y-12554103D01*
X11217682Y-12554103D02*
X11208158Y-12592198D01*
X11208158Y-12592198D02*
X11208158Y-12668388D01*
X11208158Y-12668388D02*
X11217682Y-12687436D01*
X11217682Y-12687436D02*
X11227206Y-12696960D01*
X11227206Y-12696960D02*
X11246253Y-12706484D01*
X11246253Y-12706484D02*
X11284348Y-12706484D01*
X11284348Y-12706484D02*
X11303396Y-12696960D01*
X11303396Y-12696960D02*
X11312920Y-12687436D01*
X11312920Y-12687436D02*
X11322444Y-12668388D01*
X11322444Y-12668388D02*
X11322444Y-12620769D01*
X11322444Y-12620769D02*
X11312920Y-12601722D01*
X11312920Y-12601722D02*
X11303396Y-12592198D01*
X11303396Y-12592198D02*
X11284348Y-12582674D01*
X11284348Y-12582674D02*
X11246253Y-12582674D01*
X11246253Y-12582674D02*
X11227206Y-12592198D01*
X11227206Y-12592198D02*
X11217682Y-12601722D01*
X11217682Y-12601722D02*
X11208158Y-12620769D01*
X11398634Y-12506484D02*
X11398634Y-12544579D01*
X11474825Y-12506484D02*
X11474825Y-12544579D01*
X11770063Y-12782674D02*
X11760539Y-12773150D01*
X11760539Y-12773150D02*
X11741491Y-12744579D01*
X11741491Y-12744579D02*
X11731968Y-12725531D01*
X11731968Y-12725531D02*
X11722444Y-12696960D01*
X11722444Y-12696960D02*
X11712920Y-12649341D01*
X11712920Y-12649341D02*
X11712920Y-12611246D01*
X11712920Y-12611246D02*
X11722444Y-12563627D01*
X11722444Y-12563627D02*
X11731968Y-12535055D01*
X11731968Y-12535055D02*
X11741491Y-12516008D01*
X11741491Y-12516008D02*
X11760539Y-12487436D01*
X11760539Y-12487436D02*
X11770063Y-12477912D01*
X11931968Y-12573150D02*
X11931968Y-12706484D01*
X11884348Y-12496960D02*
X11836729Y-12639817D01*
X11836729Y-12639817D02*
X11960539Y-12639817D01*
X12189110Y-12706484D02*
X12189110Y-12506484D01*
X12274825Y-12706484D02*
X12274825Y-12601722D01*
X12274825Y-12601722D02*
X12265301Y-12582674D01*
X12265301Y-12582674D02*
X12246253Y-12573150D01*
X12246253Y-12573150D02*
X12217682Y-12573150D01*
X12217682Y-12573150D02*
X12198634Y-12582674D01*
X12198634Y-12582674D02*
X12189110Y-12592198D01*
X12398634Y-12706484D02*
X12379587Y-12696960D01*
X12379587Y-12696960D02*
X12370063Y-12687436D01*
X12370063Y-12687436D02*
X12360539Y-12668388D01*
X12360539Y-12668388D02*
X12360539Y-12611246D01*
X12360539Y-12611246D02*
X12370063Y-12592198D01*
X12370063Y-12592198D02*
X12379587Y-12582674D01*
X12379587Y-12582674D02*
X12398634Y-12573150D01*
X12398634Y-12573150D02*
X12427206Y-12573150D01*
X12427206Y-12573150D02*
X12446253Y-12582674D01*
X12446253Y-12582674D02*
X12455777Y-12592198D01*
X12455777Y-12592198D02*
X12465301Y-12611246D01*
X12465301Y-12611246D02*
X12465301Y-12668388D01*
X12465301Y-12668388D02*
X12455777Y-12687436D01*
X12455777Y-12687436D02*
X12446253Y-12696960D01*
X12446253Y-12696960D02*
X12427206Y-12706484D01*
X12427206Y-12706484D02*
X12398634Y-12706484D01*
X12579587Y-12706484D02*
X12560539Y-12696960D01*
X12560539Y-12696960D02*
X12551015Y-12677912D01*
X12551015Y-12677912D02*
X12551015Y-12506484D01*
X12731968Y-12696960D02*
X12712920Y-12706484D01*
X12712920Y-12706484D02*
X12674825Y-12706484D01*
X12674825Y-12706484D02*
X12655777Y-12696960D01*
X12655777Y-12696960D02*
X12646253Y-12677912D01*
X12646253Y-12677912D02*
X12646253Y-12601722D01*
X12646253Y-12601722D02*
X12655777Y-12582674D01*
X12655777Y-12582674D02*
X12674825Y-12573150D01*
X12674825Y-12573150D02*
X12712920Y-12573150D01*
X12712920Y-12573150D02*
X12731968Y-12582674D01*
X12731968Y-12582674D02*
X12741491Y-12601722D01*
X12741491Y-12601722D02*
X12741491Y-12620769D01*
X12741491Y-12620769D02*
X12646253Y-12639817D01*
X12817682Y-12696960D02*
X12836730Y-12706484D01*
X12836730Y-12706484D02*
X12874825Y-12706484D01*
X12874825Y-12706484D02*
X12893872Y-12696960D01*
X12893872Y-12696960D02*
X12903396Y-12677912D01*
X12903396Y-12677912D02*
X12903396Y-12668388D01*
X12903396Y-12668388D02*
X12893872Y-12649341D01*
X12893872Y-12649341D02*
X12874825Y-12639817D01*
X12874825Y-12639817D02*
X12846253Y-12639817D01*
X12846253Y-12639817D02*
X12827206Y-12630293D01*
X12827206Y-12630293D02*
X12817682Y-12611246D01*
X12817682Y-12611246D02*
X12817682Y-12601722D01*
X12817682Y-12601722D02*
X12827206Y-12582674D01*
X12827206Y-12582674D02*
X12846253Y-12573150D01*
X12846253Y-12573150D02*
X12874825Y-12573150D01*
X12874825Y-12573150D02*
X12893872Y-12582674D01*
X12970063Y-12782674D02*
X12979587Y-12773150D01*
X12979587Y-12773150D02*
X12998634Y-12744579D01*
X12998634Y-12744579D02*
X13008158Y-12725531D01*
X13008158Y-12725531D02*
X13017682Y-12696960D01*
X13017682Y-12696960D02*
X13027206Y-12649341D01*
X13027206Y-12649341D02*
X13027206Y-12611246D01*
X13027206Y-12611246D02*
X13017682Y-12563627D01*
X13017682Y-12563627D02*
X13008158Y-12535055D01*
X13008158Y-12535055D02*
X12998634Y-12516008D01*
X12998634Y-12516008D02*
X12979587Y-12487436D01*
X12979587Y-12487436D02*
X12970063Y-12477912D01*
X13331968Y-12782674D02*
X13322444Y-12773150D01*
X13322444Y-12773150D02*
X13303396Y-12744579D01*
X13303396Y-12744579D02*
X13293872Y-12725531D01*
X13293872Y-12725531D02*
X13284349Y-12696960D01*
X13284349Y-12696960D02*
X13274825Y-12649341D01*
X13274825Y-12649341D02*
X13274825Y-12611246D01*
X13274825Y-12611246D02*
X13284349Y-12563627D01*
X13284349Y-12563627D02*
X13293872Y-12535055D01*
X13293872Y-12535055D02*
X13303396Y-12516008D01*
X13303396Y-12516008D02*
X13322444Y-12487436D01*
X13322444Y-12487436D02*
X13331968Y-12477912D01*
X13408158Y-12573150D02*
X13408158Y-12706484D01*
X13408158Y-12592198D02*
X13417682Y-12582674D01*
X13417682Y-12582674D02*
X13436730Y-12573150D01*
X13436730Y-12573150D02*
X13465301Y-12573150D01*
X13465301Y-12573150D02*
X13484349Y-12582674D01*
X13484349Y-12582674D02*
X13493872Y-12601722D01*
X13493872Y-12601722D02*
X13493872Y-12706484D01*
X13617682Y-12706484D02*
X13598634Y-12696960D01*
X13598634Y-12696960D02*
X13589111Y-12687436D01*
X13589111Y-12687436D02*
X13579587Y-12668388D01*
X13579587Y-12668388D02*
X13579587Y-12611246D01*
X13579587Y-12611246D02*
X13589111Y-12592198D01*
X13589111Y-12592198D02*
X13598634Y-12582674D01*
X13598634Y-12582674D02*
X13617682Y-12573150D01*
X13617682Y-12573150D02*
X13646253Y-12573150D01*
X13646253Y-12573150D02*
X13665301Y-12582674D01*
X13665301Y-12582674D02*
X13674825Y-12592198D01*
X13674825Y-12592198D02*
X13684349Y-12611246D01*
X13684349Y-12611246D02*
X13684349Y-12668388D01*
X13684349Y-12668388D02*
X13674825Y-12687436D01*
X13674825Y-12687436D02*
X13665301Y-12696960D01*
X13665301Y-12696960D02*
X13646253Y-12706484D01*
X13646253Y-12706484D02*
X13617682Y-12706484D01*
X13741492Y-12573150D02*
X13817682Y-12573150D01*
X13770063Y-12506484D02*
X13770063Y-12677912D01*
X13770063Y-12677912D02*
X13779587Y-12696960D01*
X13779587Y-12696960D02*
X13798634Y-12706484D01*
X13798634Y-12706484D02*
X13817682Y-12706484D01*
X14036730Y-12573150D02*
X14036730Y-12773150D01*
X14036730Y-12582674D02*
X14055777Y-12573150D01*
X14055777Y-12573150D02*
X14093873Y-12573150D01*
X14093873Y-12573150D02*
X14112920Y-12582674D01*
X14112920Y-12582674D02*
X14122444Y-12592198D01*
X14122444Y-12592198D02*
X14131968Y-12611246D01*
X14131968Y-12611246D02*
X14131968Y-12668388D01*
X14131968Y-12668388D02*
X14122444Y-12687436D01*
X14122444Y-12687436D02*
X14112920Y-12696960D01*
X14112920Y-12696960D02*
X14093873Y-12706484D01*
X14093873Y-12706484D02*
X14055777Y-12706484D01*
X14055777Y-12706484D02*
X14036730Y-12696960D01*
X14246253Y-12706484D02*
X14227206Y-12696960D01*
X14227206Y-12696960D02*
X14217682Y-12677912D01*
X14217682Y-12677912D02*
X14217682Y-12506484D01*
X14408158Y-12706484D02*
X14408158Y-12601722D01*
X14408158Y-12601722D02*
X14398634Y-12582674D01*
X14398634Y-12582674D02*
X14379587Y-12573150D01*
X14379587Y-12573150D02*
X14341492Y-12573150D01*
X14341492Y-12573150D02*
X14322444Y-12582674D01*
X14408158Y-12696960D02*
X14389111Y-12706484D01*
X14389111Y-12706484D02*
X14341492Y-12706484D01*
X14341492Y-12706484D02*
X14322444Y-12696960D01*
X14322444Y-12696960D02*
X14312920Y-12677912D01*
X14312920Y-12677912D02*
X14312920Y-12658865D01*
X14312920Y-12658865D02*
X14322444Y-12639817D01*
X14322444Y-12639817D02*
X14341492Y-12630293D01*
X14341492Y-12630293D02*
X14389111Y-12630293D01*
X14389111Y-12630293D02*
X14408158Y-12620769D01*
X14474825Y-12573150D02*
X14551015Y-12573150D01*
X14503396Y-12506484D02*
X14503396Y-12677912D01*
X14503396Y-12677912D02*
X14512920Y-12696960D01*
X14512920Y-12696960D02*
X14531968Y-12706484D01*
X14531968Y-12706484D02*
X14551015Y-12706484D01*
X14693873Y-12696960D02*
X14674825Y-12706484D01*
X14674825Y-12706484D02*
X14636730Y-12706484D01*
X14636730Y-12706484D02*
X14617682Y-12696960D01*
X14617682Y-12696960D02*
X14608158Y-12677912D01*
X14608158Y-12677912D02*
X14608158Y-12601722D01*
X14608158Y-12601722D02*
X14617682Y-12582674D01*
X14617682Y-12582674D02*
X14636730Y-12573150D01*
X14636730Y-12573150D02*
X14674825Y-12573150D01*
X14674825Y-12573150D02*
X14693873Y-12582674D01*
X14693873Y-12582674D02*
X14703396Y-12601722D01*
X14703396Y-12601722D02*
X14703396Y-12620769D01*
X14703396Y-12620769D02*
X14608158Y-12639817D01*
X14874825Y-12706484D02*
X14874825Y-12506484D01*
X14874825Y-12696960D02*
X14855777Y-12706484D01*
X14855777Y-12706484D02*
X14817682Y-12706484D01*
X14817682Y-12706484D02*
X14798634Y-12696960D01*
X14798634Y-12696960D02*
X14789111Y-12687436D01*
X14789111Y-12687436D02*
X14779587Y-12668388D01*
X14779587Y-12668388D02*
X14779587Y-12611246D01*
X14779587Y-12611246D02*
X14789111Y-12592198D01*
X14789111Y-12592198D02*
X14798634Y-12582674D01*
X14798634Y-12582674D02*
X14817682Y-12573150D01*
X14817682Y-12573150D02*
X14855777Y-12573150D01*
X14855777Y-12573150D02*
X14874825Y-12582674D01*
X14951015Y-12782674D02*
X14960539Y-12773150D01*
X14960539Y-12773150D02*
X14979587Y-12744579D01*
X14979587Y-12744579D02*
X14989111Y-12725531D01*
X14989111Y-12725531D02*
X14998634Y-12696960D01*
X14998634Y-12696960D02*
X15008158Y-12649341D01*
X15008158Y-12649341D02*
X15008158Y-12611246D01*
X15008158Y-12611246D02*
X14998634Y-12563627D01*
X14998634Y-12563627D02*
X14989111Y-12535055D01*
X14989111Y-12535055D02*
X14979587Y-12516008D01*
X14979587Y-12516008D02*
X14960539Y-12487436D01*
X14960539Y-12487436D02*
X14951015Y-12477912D01*
X8165711Y-13005711D02*
X8165711Y-12864289D01*
X8024289Y-12864289D01*
X8024289Y-13005711D01*
X8165711Y-13005711D01*
X8541491Y-12826484D02*
X8503396Y-12826484D01*
X8503396Y-12826484D02*
X8484348Y-12836008D01*
X8484348Y-12836008D02*
X8474824Y-12845531D01*
X8474824Y-12845531D02*
X8455777Y-12874103D01*
X8455777Y-12874103D02*
X8446253Y-12912198D01*
X8446253Y-12912198D02*
X8446253Y-12988388D01*
X8446253Y-12988388D02*
X8455777Y-13007436D01*
X8455777Y-13007436D02*
X8465301Y-13016960D01*
X8465301Y-13016960D02*
X8484348Y-13026484D01*
X8484348Y-13026484D02*
X8522444Y-13026484D01*
X8522444Y-13026484D02*
X8541491Y-13016960D01*
X8541491Y-13016960D02*
X8551015Y-13007436D01*
X8551015Y-13007436D02*
X8560539Y-12988388D01*
X8560539Y-12988388D02*
X8560539Y-12940769D01*
X8560539Y-12940769D02*
X8551015Y-12921722D01*
X8551015Y-12921722D02*
X8541491Y-12912198D01*
X8541491Y-12912198D02*
X8522444Y-12902674D01*
X8522444Y-12902674D02*
X8484348Y-12902674D01*
X8484348Y-12902674D02*
X8465301Y-12912198D01*
X8465301Y-12912198D02*
X8455777Y-12921722D01*
X8455777Y-12921722D02*
X8446253Y-12940769D01*
X8646253Y-13007436D02*
X8655777Y-13016960D01*
X8655777Y-13016960D02*
X8646253Y-13026484D01*
X8646253Y-13026484D02*
X8636729Y-13016960D01*
X8636729Y-13016960D02*
X8646253Y-13007436D01*
X8646253Y-13007436D02*
X8646253Y-13026484D01*
X8827205Y-12893150D02*
X8827205Y-13026484D01*
X8779586Y-12816960D02*
X8731967Y-12959817D01*
X8731967Y-12959817D02*
X8855777Y-12959817D01*
X8970063Y-12826484D02*
X8989110Y-12826484D01*
X8989110Y-12826484D02*
X9008158Y-12836008D01*
X9008158Y-12836008D02*
X9017682Y-12845531D01*
X9017682Y-12845531D02*
X9027205Y-12864579D01*
X9027205Y-12864579D02*
X9036729Y-12902674D01*
X9036729Y-12902674D02*
X9036729Y-12950293D01*
X9036729Y-12950293D02*
X9027205Y-12988388D01*
X9027205Y-12988388D02*
X9017682Y-13007436D01*
X9017682Y-13007436D02*
X9008158Y-13016960D01*
X9008158Y-13016960D02*
X8989110Y-13026484D01*
X8989110Y-13026484D02*
X8970063Y-13026484D01*
X8970063Y-13026484D02*
X8951015Y-13016960D01*
X8951015Y-13016960D02*
X8941491Y-13007436D01*
X8941491Y-13007436D02*
X8931967Y-12988388D01*
X8931967Y-12988388D02*
X8922444Y-12950293D01*
X8922444Y-12950293D02*
X8922444Y-12902674D01*
X8922444Y-12902674D02*
X8931967Y-12864579D01*
X8931967Y-12864579D02*
X8941491Y-12845531D01*
X8941491Y-12845531D02*
X8951015Y-12836008D01*
X8951015Y-12836008D02*
X8970063Y-12826484D01*
X9160539Y-12826484D02*
X9179586Y-12826484D01*
X9179586Y-12826484D02*
X9198634Y-12836008D01*
X9198634Y-12836008D02*
X9208158Y-12845531D01*
X9208158Y-12845531D02*
X9217682Y-12864579D01*
X9217682Y-12864579D02*
X9227205Y-12902674D01*
X9227205Y-12902674D02*
X9227205Y-12950293D01*
X9227205Y-12950293D02*
X9217682Y-12988388D01*
X9217682Y-12988388D02*
X9208158Y-13007436D01*
X9208158Y-13007436D02*
X9198634Y-13016960D01*
X9198634Y-13016960D02*
X9179586Y-13026484D01*
X9179586Y-13026484D02*
X9160539Y-13026484D01*
X9160539Y-13026484D02*
X9141491Y-13016960D01*
X9141491Y-13016960D02*
X9131967Y-13007436D01*
X9131967Y-13007436D02*
X9122444Y-12988388D01*
X9122444Y-12988388D02*
X9112920Y-12950293D01*
X9112920Y-12950293D02*
X9112920Y-12902674D01*
X9112920Y-12902674D02*
X9122444Y-12864579D01*
X9122444Y-12864579D02*
X9131967Y-12845531D01*
X9131967Y-12845531D02*
X9141491Y-12836008D01*
X9141491Y-12836008D02*
X9160539Y-12826484D01*
X9312920Y-13026484D02*
X9312920Y-12893150D01*
X9312920Y-12912198D02*
X9322444Y-12902674D01*
X9322444Y-12902674D02*
X9341491Y-12893150D01*
X9341491Y-12893150D02*
X9370063Y-12893150D01*
X9370063Y-12893150D02*
X9389110Y-12902674D01*
X9389110Y-12902674D02*
X9398634Y-12921722D01*
X9398634Y-12921722D02*
X9398634Y-13026484D01*
X9398634Y-12921722D02*
X9408158Y-12902674D01*
X9408158Y-12902674D02*
X9427205Y-12893150D01*
X9427205Y-12893150D02*
X9455777Y-12893150D01*
X9455777Y-12893150D02*
X9474825Y-12902674D01*
X9474825Y-12902674D02*
X9484348Y-12921722D01*
X9484348Y-12921722D02*
X9484348Y-13026484D01*
X9579586Y-13026484D02*
X9579586Y-12893150D01*
X9579586Y-12912198D02*
X9589110Y-12902674D01*
X9589110Y-12902674D02*
X9608158Y-12893150D01*
X9608158Y-12893150D02*
X9636729Y-12893150D01*
X9636729Y-12893150D02*
X9655777Y-12902674D01*
X9655777Y-12902674D02*
X9665301Y-12921722D01*
X9665301Y-12921722D02*
X9665301Y-13026484D01*
X9665301Y-12921722D02*
X9674825Y-12902674D01*
X9674825Y-12902674D02*
X9693872Y-12893150D01*
X9693872Y-12893150D02*
X9722444Y-12893150D01*
X9722444Y-12893150D02*
X9741491Y-12902674D01*
X9741491Y-12902674D02*
X9751015Y-12921722D01*
X9751015Y-12921722D02*
X9751015Y-13026484D01*
X10141491Y-12816960D02*
X9970063Y-13074103D01*
X10398634Y-12826484D02*
X10417682Y-12826484D01*
X10417682Y-12826484D02*
X10436729Y-12836008D01*
X10436729Y-12836008D02*
X10446253Y-12845531D01*
X10446253Y-12845531D02*
X10455777Y-12864579D01*
X10455777Y-12864579D02*
X10465301Y-12902674D01*
X10465301Y-12902674D02*
X10465301Y-12950293D01*
X10465301Y-12950293D02*
X10455777Y-12988388D01*
X10455777Y-12988388D02*
X10446253Y-13007436D01*
X10446253Y-13007436D02*
X10436729Y-13016960D01*
X10436729Y-13016960D02*
X10417682Y-13026484D01*
X10417682Y-13026484D02*
X10398634Y-13026484D01*
X10398634Y-13026484D02*
X10379587Y-13016960D01*
X10379587Y-13016960D02*
X10370063Y-13007436D01*
X10370063Y-13007436D02*
X10360539Y-12988388D01*
X10360539Y-12988388D02*
X10351015Y-12950293D01*
X10351015Y-12950293D02*
X10351015Y-12902674D01*
X10351015Y-12902674D02*
X10360539Y-12864579D01*
X10360539Y-12864579D02*
X10370063Y-12845531D01*
X10370063Y-12845531D02*
X10379587Y-12836008D01*
X10379587Y-12836008D02*
X10398634Y-12826484D01*
X10551015Y-13007436D02*
X10560539Y-13016960D01*
X10560539Y-13016960D02*
X10551015Y-13026484D01*
X10551015Y-13026484D02*
X10541491Y-13016960D01*
X10541491Y-13016960D02*
X10551015Y-13007436D01*
X10551015Y-13007436D02*
X10551015Y-13026484D01*
X10636729Y-12845531D02*
X10646253Y-12836008D01*
X10646253Y-12836008D02*
X10665301Y-12826484D01*
X10665301Y-12826484D02*
X10712920Y-12826484D01*
X10712920Y-12826484D02*
X10731968Y-12836008D01*
X10731968Y-12836008D02*
X10741491Y-12845531D01*
X10741491Y-12845531D02*
X10751015Y-12864579D01*
X10751015Y-12864579D02*
X10751015Y-12883627D01*
X10751015Y-12883627D02*
X10741491Y-12912198D01*
X10741491Y-12912198D02*
X10627206Y-13026484D01*
X10627206Y-13026484D02*
X10751015Y-13026484D01*
X10931968Y-12826484D02*
X10836729Y-12826484D01*
X10836729Y-12826484D02*
X10827206Y-12921722D01*
X10827206Y-12921722D02*
X10836729Y-12912198D01*
X10836729Y-12912198D02*
X10855777Y-12902674D01*
X10855777Y-12902674D02*
X10903396Y-12902674D01*
X10903396Y-12902674D02*
X10922444Y-12912198D01*
X10922444Y-12912198D02*
X10931968Y-12921722D01*
X10931968Y-12921722D02*
X10941491Y-12940769D01*
X10941491Y-12940769D02*
X10941491Y-12988388D01*
X10941491Y-12988388D02*
X10931968Y-13007436D01*
X10931968Y-13007436D02*
X10922444Y-13016960D01*
X10922444Y-13016960D02*
X10903396Y-13026484D01*
X10903396Y-13026484D02*
X10855777Y-13026484D01*
X10855777Y-13026484D02*
X10836729Y-13016960D01*
X10836729Y-13016960D02*
X10827206Y-13007436D01*
X11017682Y-12845531D02*
X11027206Y-12836008D01*
X11027206Y-12836008D02*
X11046253Y-12826484D01*
X11046253Y-12826484D02*
X11093872Y-12826484D01*
X11093872Y-12826484D02*
X11112920Y-12836008D01*
X11112920Y-12836008D02*
X11122444Y-12845531D01*
X11122444Y-12845531D02*
X11131968Y-12864579D01*
X11131968Y-12864579D02*
X11131968Y-12883627D01*
X11131968Y-12883627D02*
X11122444Y-12912198D01*
X11122444Y-12912198D02*
X11008158Y-13026484D01*
X11008158Y-13026484D02*
X11131968Y-13026484D01*
X11255777Y-12826484D02*
X11274825Y-12826484D01*
X11274825Y-12826484D02*
X11293872Y-12836008D01*
X11293872Y-12836008D02*
X11303396Y-12845531D01*
X11303396Y-12845531D02*
X11312920Y-12864579D01*
X11312920Y-12864579D02*
X11322444Y-12902674D01*
X11322444Y-12902674D02*
X11322444Y-12950293D01*
X11322444Y-12950293D02*
X11312920Y-12988388D01*
X11312920Y-12988388D02*
X11303396Y-13007436D01*
X11303396Y-13007436D02*
X11293872Y-13016960D01*
X11293872Y-13016960D02*
X11274825Y-13026484D01*
X11274825Y-13026484D02*
X11255777Y-13026484D01*
X11255777Y-13026484D02*
X11236729Y-13016960D01*
X11236729Y-13016960D02*
X11227206Y-13007436D01*
X11227206Y-13007436D02*
X11217682Y-12988388D01*
X11217682Y-12988388D02*
X11208158Y-12950293D01*
X11208158Y-12950293D02*
X11208158Y-12902674D01*
X11208158Y-12902674D02*
X11217682Y-12864579D01*
X11217682Y-12864579D02*
X11227206Y-12845531D01*
X11227206Y-12845531D02*
X11236729Y-12836008D01*
X11236729Y-12836008D02*
X11255777Y-12826484D01*
X11398634Y-12826484D02*
X11398634Y-12864579D01*
X11474825Y-12826484D02*
X11474825Y-12864579D01*
X11770063Y-13102674D02*
X11760539Y-13093150D01*
X11760539Y-13093150D02*
X11741491Y-13064579D01*
X11741491Y-13064579D02*
X11731968Y-13045531D01*
X11731968Y-13045531D02*
X11722444Y-13016960D01*
X11722444Y-13016960D02*
X11712920Y-12969341D01*
X11712920Y-12969341D02*
X11712920Y-12931246D01*
X11712920Y-12931246D02*
X11722444Y-12883627D01*
X11722444Y-12883627D02*
X11731968Y-12855055D01*
X11731968Y-12855055D02*
X11741491Y-12836008D01*
X11741491Y-12836008D02*
X11760539Y-12807436D01*
X11760539Y-12807436D02*
X11770063Y-12797912D01*
X11951015Y-13026484D02*
X11836729Y-13026484D01*
X11893872Y-13026484D02*
X11893872Y-12826484D01*
X11893872Y-12826484D02*
X11874825Y-12855055D01*
X11874825Y-12855055D02*
X11855777Y-12874103D01*
X11855777Y-12874103D02*
X11836729Y-12883627D01*
X12189110Y-13026484D02*
X12189110Y-12826484D01*
X12274825Y-13026484D02*
X12274825Y-12921722D01*
X12274825Y-12921722D02*
X12265301Y-12902674D01*
X12265301Y-12902674D02*
X12246253Y-12893150D01*
X12246253Y-12893150D02*
X12217682Y-12893150D01*
X12217682Y-12893150D02*
X12198634Y-12902674D01*
X12198634Y-12902674D02*
X12189110Y-12912198D01*
X12398634Y-13026484D02*
X12379587Y-13016960D01*
X12379587Y-13016960D02*
X12370063Y-13007436D01*
X12370063Y-13007436D02*
X12360539Y-12988388D01*
X12360539Y-12988388D02*
X12360539Y-12931246D01*
X12360539Y-12931246D02*
X12370063Y-12912198D01*
X12370063Y-12912198D02*
X12379587Y-12902674D01*
X12379587Y-12902674D02*
X12398634Y-12893150D01*
X12398634Y-12893150D02*
X12427206Y-12893150D01*
X12427206Y-12893150D02*
X12446253Y-12902674D01*
X12446253Y-12902674D02*
X12455777Y-12912198D01*
X12455777Y-12912198D02*
X12465301Y-12931246D01*
X12465301Y-12931246D02*
X12465301Y-12988388D01*
X12465301Y-12988388D02*
X12455777Y-13007436D01*
X12455777Y-13007436D02*
X12446253Y-13016960D01*
X12446253Y-13016960D02*
X12427206Y-13026484D01*
X12427206Y-13026484D02*
X12398634Y-13026484D01*
X12579587Y-13026484D02*
X12560539Y-13016960D01*
X12560539Y-13016960D02*
X12551015Y-12997912D01*
X12551015Y-12997912D02*
X12551015Y-12826484D01*
X12731968Y-13016960D02*
X12712920Y-13026484D01*
X12712920Y-13026484D02*
X12674825Y-13026484D01*
X12674825Y-13026484D02*
X12655777Y-13016960D01*
X12655777Y-13016960D02*
X12646253Y-12997912D01*
X12646253Y-12997912D02*
X12646253Y-12921722D01*
X12646253Y-12921722D02*
X12655777Y-12902674D01*
X12655777Y-12902674D02*
X12674825Y-12893150D01*
X12674825Y-12893150D02*
X12712920Y-12893150D01*
X12712920Y-12893150D02*
X12731968Y-12902674D01*
X12731968Y-12902674D02*
X12741491Y-12921722D01*
X12741491Y-12921722D02*
X12741491Y-12940769D01*
X12741491Y-12940769D02*
X12646253Y-12959817D01*
X12808158Y-13102674D02*
X12817682Y-13093150D01*
X12817682Y-13093150D02*
X12836730Y-13064579D01*
X12836730Y-13064579D02*
X12846253Y-13045531D01*
X12846253Y-13045531D02*
X12855777Y-13016960D01*
X12855777Y-13016960D02*
X12865301Y-12969341D01*
X12865301Y-12969341D02*
X12865301Y-12931246D01*
X12865301Y-12931246D02*
X12855777Y-12883627D01*
X12855777Y-12883627D02*
X12846253Y-12855055D01*
X12846253Y-12855055D02*
X12836730Y-12836008D01*
X12836730Y-12836008D02*
X12817682Y-12807436D01*
X12817682Y-12807436D02*
X12808158Y-12797912D01*
X13170063Y-13102674D02*
X13160539Y-13093150D01*
X13160539Y-13093150D02*
X13141491Y-13064579D01*
X13141491Y-13064579D02*
X13131968Y-13045531D01*
X13131968Y-13045531D02*
X13122444Y-13016960D01*
X13122444Y-13016960D02*
X13112920Y-12969341D01*
X13112920Y-12969341D02*
X13112920Y-12931246D01*
X13112920Y-12931246D02*
X13122444Y-12883627D01*
X13122444Y-12883627D02*
X13131968Y-12855055D01*
X13131968Y-12855055D02*
X13141491Y-12836008D01*
X13141491Y-12836008D02*
X13160539Y-12807436D01*
X13160539Y-12807436D02*
X13170063Y-12797912D01*
X13246253Y-12893150D02*
X13246253Y-13026484D01*
X13246253Y-12912198D02*
X13255777Y-12902674D01*
X13255777Y-12902674D02*
X13274825Y-12893150D01*
X13274825Y-12893150D02*
X13303396Y-12893150D01*
X13303396Y-12893150D02*
X13322444Y-12902674D01*
X13322444Y-12902674D02*
X13331968Y-12921722D01*
X13331968Y-12921722D02*
X13331968Y-13026484D01*
X13455777Y-13026484D02*
X13436730Y-13016960D01*
X13436730Y-13016960D02*
X13427206Y-13007436D01*
X13427206Y-13007436D02*
X13417682Y-12988388D01*
X13417682Y-12988388D02*
X13417682Y-12931246D01*
X13417682Y-12931246D02*
X13427206Y-12912198D01*
X13427206Y-12912198D02*
X13436730Y-12902674D01*
X13436730Y-12902674D02*
X13455777Y-12893150D01*
X13455777Y-12893150D02*
X13484349Y-12893150D01*
X13484349Y-12893150D02*
X13503396Y-12902674D01*
X13503396Y-12902674D02*
X13512920Y-12912198D01*
X13512920Y-12912198D02*
X13522444Y-12931246D01*
X13522444Y-12931246D02*
X13522444Y-12988388D01*
X13522444Y-12988388D02*
X13512920Y-13007436D01*
X13512920Y-13007436D02*
X13503396Y-13016960D01*
X13503396Y-13016960D02*
X13484349Y-13026484D01*
X13484349Y-13026484D02*
X13455777Y-13026484D01*
X13579587Y-12893150D02*
X13655777Y-12893150D01*
X13608158Y-12826484D02*
X13608158Y-12997912D01*
X13608158Y-12997912D02*
X13617682Y-13016960D01*
X13617682Y-13016960D02*
X13636730Y-13026484D01*
X13636730Y-13026484D02*
X13655777Y-13026484D01*
X13874825Y-12893150D02*
X13874825Y-13093150D01*
X13874825Y-12902674D02*
X13893872Y-12893150D01*
X13893872Y-12893150D02*
X13931968Y-12893150D01*
X13931968Y-12893150D02*
X13951015Y-12902674D01*
X13951015Y-12902674D02*
X13960539Y-12912198D01*
X13960539Y-12912198D02*
X13970063Y-12931246D01*
X13970063Y-12931246D02*
X13970063Y-12988388D01*
X13970063Y-12988388D02*
X13960539Y-13007436D01*
X13960539Y-13007436D02*
X13951015Y-13016960D01*
X13951015Y-13016960D02*
X13931968Y-13026484D01*
X13931968Y-13026484D02*
X13893872Y-13026484D01*
X13893872Y-13026484D02*
X13874825Y-13016960D01*
X14084349Y-13026484D02*
X14065301Y-13016960D01*
X14065301Y-13016960D02*
X14055777Y-12997912D01*
X14055777Y-12997912D02*
X14055777Y-12826484D01*
X14246253Y-13026484D02*
X14246253Y-12921722D01*
X14246253Y-12921722D02*
X14236730Y-12902674D01*
X14236730Y-12902674D02*
X14217682Y-12893150D01*
X14217682Y-12893150D02*
X14179587Y-12893150D01*
X14179587Y-12893150D02*
X14160539Y-12902674D01*
X14246253Y-13016960D02*
X14227206Y-13026484D01*
X14227206Y-13026484D02*
X14179587Y-13026484D01*
X14179587Y-13026484D02*
X14160539Y-13016960D01*
X14160539Y-13016960D02*
X14151015Y-12997912D01*
X14151015Y-12997912D02*
X14151015Y-12978865D01*
X14151015Y-12978865D02*
X14160539Y-12959817D01*
X14160539Y-12959817D02*
X14179587Y-12950293D01*
X14179587Y-12950293D02*
X14227206Y-12950293D01*
X14227206Y-12950293D02*
X14246253Y-12940769D01*
X14312920Y-12893150D02*
X14389111Y-12893150D01*
X14341492Y-12826484D02*
X14341492Y-12997912D01*
X14341492Y-12997912D02*
X14351015Y-13016960D01*
X14351015Y-13016960D02*
X14370063Y-13026484D01*
X14370063Y-13026484D02*
X14389111Y-13026484D01*
X14531968Y-13016960D02*
X14512920Y-13026484D01*
X14512920Y-13026484D02*
X14474825Y-13026484D01*
X14474825Y-13026484D02*
X14455777Y-13016960D01*
X14455777Y-13016960D02*
X14446253Y-12997912D01*
X14446253Y-12997912D02*
X14446253Y-12921722D01*
X14446253Y-12921722D02*
X14455777Y-12902674D01*
X14455777Y-12902674D02*
X14474825Y-12893150D01*
X14474825Y-12893150D02*
X14512920Y-12893150D01*
X14512920Y-12893150D02*
X14531968Y-12902674D01*
X14531968Y-12902674D02*
X14541492Y-12921722D01*
X14541492Y-12921722D02*
X14541492Y-12940769D01*
X14541492Y-12940769D02*
X14446253Y-12959817D01*
X14712920Y-13026484D02*
X14712920Y-12826484D01*
X14712920Y-13016960D02*
X14693873Y-13026484D01*
X14693873Y-13026484D02*
X14655777Y-13026484D01*
X14655777Y-13026484D02*
X14636730Y-13016960D01*
X14636730Y-13016960D02*
X14627206Y-13007436D01*
X14627206Y-13007436D02*
X14617682Y-12988388D01*
X14617682Y-12988388D02*
X14617682Y-12931246D01*
X14617682Y-12931246D02*
X14627206Y-12912198D01*
X14627206Y-12912198D02*
X14636730Y-12902674D01*
X14636730Y-12902674D02*
X14655777Y-12893150D01*
X14655777Y-12893150D02*
X14693873Y-12893150D01*
X14693873Y-12893150D02*
X14712920Y-12902674D01*
X14789111Y-13102674D02*
X14798634Y-13093150D01*
X14798634Y-13093150D02*
X14817682Y-13064579D01*
X14817682Y-13064579D02*
X14827206Y-13045531D01*
X14827206Y-13045531D02*
X14836730Y-13016960D01*
X14836730Y-13016960D02*
X14846253Y-12969341D01*
X14846253Y-12969341D02*
X14846253Y-12931246D01*
X14846253Y-12931246D02*
X14836730Y-12883627D01*
X14836730Y-12883627D02*
X14827206Y-12855055D01*
X14827206Y-12855055D02*
X14817682Y-12836008D01*
X14817682Y-12836008D02*
X14798634Y-12807436D01*
X14798634Y-12807436D02*
X14789111Y-12797912D01*
M02*
