M48
; DRILL file {KiCad 7.0.5} date Sun Jun 25 23:49:41 2023
; FORMAT={-:-/ absolute / metric / decimal}
; #@! TF.CreationDate,2023-06-25T23:49:41-07:00
; #@! TF.GenerationSoftware,Kicad,Pcbnew,7.0.5
; #@! TF.FileFunction,Plated,1,2,PTH
FMAT,2
METRIC
; #@! TA.AperFunction,Plated,PTH,ComponentDrill
T1C1.020
; #@! TA.AperFunction,Plated,PTH,ComponentDrill
T2C1.100
%
G90
G05
T1
X108.75Y-54.77
X108.75Y-57.31
X108.75Y-59.85
X108.75Y-62.39
X108.75Y-64.93
X108.75Y-67.47
X108.75Y-70.01
X108.75Y-72.55
X108.75Y-75.09
X108.75Y-77.63
X108.75Y-80.17
X108.75Y-82.71
X108.75Y-85.25
X108.75Y-87.79
X108.75Y-90.33
X108.75Y-92.87
X108.75Y-95.41
X108.75Y-97.95
X108.75Y-100.49
X108.75Y-103.03
X126.53Y-54.77
X126.53Y-57.31
X126.53Y-59.85
X126.53Y-62.39
X126.53Y-64.93
X126.53Y-67.47
X126.53Y-70.01
X126.53Y-72.55
X126.53Y-75.09
X126.53Y-77.63
X126.53Y-80.17
X126.53Y-82.71
X126.53Y-85.25
X126.53Y-87.79
X126.53Y-90.33
X126.53Y-92.87
X126.53Y-95.41
X126.53Y-97.95
X126.53Y-100.49
X126.53Y-103.03
T2
X84.905Y-54.97
X84.905Y-61.47
X84.905Y-65.13
X84.905Y-71.63
X84.905Y-75.29
X84.905Y-81.79
X84.905Y-85.45
X84.905Y-91.95
X84.905Y-95.61
X84.905Y-102.11
X89.405Y-54.97
X89.405Y-61.47
X89.405Y-65.13
X89.405Y-71.63
X89.405Y-75.29
X89.405Y-81.79
X89.405Y-85.45
X89.405Y-91.95
X89.405Y-95.61
X89.405Y-102.11
X93.905Y-45.97
X93.905Y-50.47
X93.98Y-106.97
X93.98Y-111.47
X100.405Y-45.97
X100.405Y-50.47
X100.48Y-106.97
X100.48Y-111.47
X104.065Y-45.97
X104.065Y-50.47
X104.14Y-106.97
X104.14Y-111.47
X110.565Y-45.97
X110.565Y-50.47
X110.64Y-106.97
X110.64Y-111.47
X114.225Y-45.97
X114.225Y-50.47
X114.3Y-106.97
X114.3Y-111.47
X120.725Y-45.97
X120.725Y-50.47
X120.8Y-106.97
X120.8Y-111.47
X124.385Y-45.97
X124.385Y-50.47
X124.46Y-106.97
X124.46Y-111.47
X130.885Y-45.97
X130.885Y-50.47
X130.96Y-106.97
X130.96Y-111.47
X134.545Y-45.97
X134.545Y-50.47
X134.62Y-106.97
X134.62Y-111.47
X141.045Y-45.97
X141.045Y-50.47
X141.12Y-106.97
X141.12Y-111.47
X145.54Y-54.97
X145.54Y-61.47
X145.54Y-65.13
X145.54Y-71.63
X145.54Y-75.29
X145.54Y-81.79
X145.54Y-85.45
X145.54Y-91.95
X145.54Y-95.61
X145.54Y-102.11
X150.04Y-54.97
X150.04Y-61.47
X150.04Y-65.13
X150.04Y-71.63
X150.04Y-75.29
X150.04Y-81.79
X150.04Y-85.45
X150.04Y-91.95
X150.04Y-95.61
X150.04Y-102.11
T0
M30
