%TF.GenerationSoftware,KiCad,Pcbnew,7.0.5*%
%TF.CreationDate,2023-06-25T23:49:07-07:00*%
%TF.ProjectId,umfd,756d6664-2e6b-4696-9361-645f70636258,rev?*%
%TF.SameCoordinates,Original*%
%TF.FileFunction,Soldermask,Bot*%
%TF.FilePolarity,Negative*%
%FSLAX46Y46*%
G04 Gerber Fmt 4.6, Leading zero omitted, Abs format (unit mm)*
G04 Created by KiCad (PCBNEW 7.0.5) date 2023-06-25 23:49:07*
%MOMM*%
%LPD*%
G01*
G04 APERTURE LIST*
%ADD10C,6.400000*%
%ADD11O,1.800000X1.800000*%
%ADD12O,1.500000X1.500000*%
%ADD13O,1.700000X1.700000*%
%ADD14R,3.500000X1.700000*%
%ADD15R,1.700000X1.700000*%
%ADD16C,2.200000*%
%ADD17C,2.000000*%
G04 APERTURE END LIST*
D10*
%TO.C,hole*%
X96800000Y-57900000D03*
%TD*%
D11*
%TO.C,U1*%
X120365000Y-54900000D03*
D12*
X120065000Y-57930000D03*
X115215000Y-57930000D03*
D11*
X114915000Y-54900000D03*
D13*
X126530000Y-54770000D03*
D14*
X127430000Y-54770000D03*
D13*
X126530000Y-57310000D03*
D14*
X127430000Y-57310000D03*
D15*
X126530000Y-59850000D03*
D14*
X127430000Y-59850000D03*
D13*
X126530000Y-62390000D03*
D14*
X127430000Y-62390000D03*
D13*
X126530000Y-64930000D03*
D14*
X127430000Y-64930000D03*
D13*
X126530000Y-67470000D03*
D14*
X127430000Y-67470000D03*
D13*
X126530000Y-70010000D03*
D14*
X127430000Y-70010000D03*
D15*
X126530000Y-72550000D03*
D14*
X127430000Y-72550000D03*
D13*
X126530000Y-75090000D03*
D14*
X127430000Y-75090000D03*
D13*
X126530000Y-77630000D03*
D14*
X127430000Y-77630000D03*
D13*
X126530000Y-80170000D03*
D14*
X127430000Y-80170000D03*
D13*
X126530000Y-82710000D03*
D14*
X127430000Y-82710000D03*
D15*
X126530000Y-85250000D03*
D14*
X127430000Y-85250000D03*
D13*
X126530000Y-87790000D03*
D14*
X127430000Y-87790000D03*
D13*
X126530000Y-90330000D03*
D14*
X127430000Y-90330000D03*
D13*
X126530000Y-92870000D03*
D14*
X127430000Y-92870000D03*
D13*
X126530000Y-95410000D03*
D14*
X127430000Y-95410000D03*
D15*
X126530000Y-97950000D03*
D14*
X127430000Y-97950000D03*
D13*
X126530000Y-100490000D03*
D14*
X127430000Y-100490000D03*
D13*
X126530000Y-103030000D03*
D14*
X127430000Y-103030000D03*
D13*
X108750000Y-103030000D03*
D14*
X107850000Y-103030000D03*
D13*
X108750000Y-100490000D03*
D14*
X107850000Y-100490000D03*
D15*
X108750000Y-97950000D03*
D14*
X107850000Y-97950000D03*
D13*
X108750000Y-95410000D03*
D14*
X107850000Y-95410000D03*
D13*
X108750000Y-92870000D03*
D14*
X107850000Y-92870000D03*
D13*
X108750000Y-90330000D03*
D14*
X107850000Y-90330000D03*
D13*
X108750000Y-87790000D03*
D14*
X107850000Y-87790000D03*
D15*
X108750000Y-85250000D03*
D14*
X107850000Y-85250000D03*
D13*
X108750000Y-82710000D03*
D14*
X107850000Y-82710000D03*
D13*
X108750000Y-80170000D03*
D14*
X107850000Y-80170000D03*
D13*
X108750000Y-77630000D03*
D14*
X107850000Y-77630000D03*
D13*
X108750000Y-75090000D03*
D14*
X107850000Y-75090000D03*
D15*
X108750000Y-72550000D03*
D14*
X107850000Y-72550000D03*
D13*
X108750000Y-70010000D03*
D14*
X107850000Y-70010000D03*
D13*
X108750000Y-67470000D03*
D14*
X107850000Y-67470000D03*
D13*
X108750000Y-64930000D03*
D14*
X107850000Y-64930000D03*
D13*
X108750000Y-62390000D03*
D14*
X107850000Y-62390000D03*
D15*
X108750000Y-59850000D03*
D14*
X107850000Y-59850000D03*
D13*
X108750000Y-57310000D03*
D14*
X107850000Y-57310000D03*
D13*
X108750000Y-54770000D03*
D14*
X107850000Y-54770000D03*
%TD*%
D16*
%TO.C,m4*%
X149000000Y-110000000D03*
%TD*%
%TO.C,m3*%
X86000000Y-110000000D03*
%TD*%
%TO.C,m2*%
X86000000Y-47000000D03*
%TD*%
%TO.C,m1*%
X149000000Y-47000000D03*
%TD*%
D17*
%TO.C,SW12*%
X124460000Y-106970000D03*
X130960000Y-106970000D03*
X124460000Y-111470000D03*
X130960000Y-111470000D03*
%TD*%
%TO.C,SW10*%
X150040000Y-95610000D03*
X150040000Y-102110000D03*
X145540000Y-95610000D03*
X145540000Y-102110000D03*
%TD*%
%TO.C,SW8*%
X150040000Y-75290000D03*
X150040000Y-81790000D03*
X145540000Y-75290000D03*
X145540000Y-81790000D03*
%TD*%
%TO.C,SW13*%
X120800000Y-111470000D03*
X114300000Y-111470000D03*
X120800000Y-106970000D03*
X114300000Y-106970000D03*
%TD*%
%TO.C,SW15*%
X100480000Y-111470000D03*
X93980000Y-111470000D03*
X100480000Y-106970000D03*
X93980000Y-106970000D03*
%TD*%
%TO.C,SW18*%
X84905000Y-81790000D03*
X84905000Y-75290000D03*
X89405000Y-81790000D03*
X89405000Y-75290000D03*
%TD*%
%TO.C,SW3*%
X114225000Y-45970000D03*
X120725000Y-45970000D03*
X114225000Y-50470000D03*
X120725000Y-50470000D03*
%TD*%
%TO.C,SW19*%
X84905000Y-71630000D03*
X84905000Y-65130000D03*
X89405000Y-71630000D03*
X89405000Y-65130000D03*
%TD*%
%TO.C,SW14*%
X104140000Y-106970000D03*
X110640000Y-106970000D03*
X104140000Y-111470000D03*
X110640000Y-111470000D03*
%TD*%
%TO.C,SW16*%
X84905000Y-102110000D03*
X84905000Y-95610000D03*
X89405000Y-102110000D03*
X89405000Y-95610000D03*
%TD*%
%TO.C,SW17*%
X84905000Y-91950000D03*
X84905000Y-85450000D03*
X89405000Y-91950000D03*
X89405000Y-85450000D03*
%TD*%
%TO.C,SW20*%
X84905000Y-61470000D03*
X84905000Y-54970000D03*
X89405000Y-61470000D03*
X89405000Y-54970000D03*
%TD*%
%TO.C,SW11*%
X134620000Y-106970000D03*
X141120000Y-106970000D03*
X134620000Y-111470000D03*
X141120000Y-111470000D03*
%TD*%
%TO.C,SW9*%
X150040000Y-85450000D03*
X150040000Y-91950000D03*
X145540000Y-85450000D03*
X145540000Y-91950000D03*
%TD*%
%TO.C,SW5*%
X134545000Y-45970000D03*
X141045000Y-45970000D03*
X134545000Y-50470000D03*
X141045000Y-50470000D03*
%TD*%
%TO.C,SW7*%
X150040000Y-65130000D03*
X150040000Y-71630000D03*
X145540000Y-65130000D03*
X145540000Y-71630000D03*
%TD*%
%TO.C,SW1*%
X93905000Y-45970000D03*
X100405000Y-45970000D03*
X93905000Y-50470000D03*
X100405000Y-50470000D03*
%TD*%
%TO.C,SW4*%
X124385000Y-45970000D03*
X130885000Y-45970000D03*
X124385000Y-50470000D03*
X130885000Y-50470000D03*
%TD*%
%TO.C,SW6*%
X150040000Y-54970000D03*
X150040000Y-61470000D03*
X145540000Y-54970000D03*
X145540000Y-61470000D03*
%TD*%
%TO.C,SW2*%
X104065000Y-45970000D03*
X110565000Y-45970000D03*
X104065000Y-50470000D03*
X110565000Y-50470000D03*
%TD*%
M02*
