%TF.GenerationSoftware,KiCad,Pcbnew,7.0.5*%
%TF.CreationDate,2023-06-25T22:47:47-07:00*%
%TF.ProjectId,umfd,756d6664-2e6b-4696-9361-645f70636258,rev?*%
%TF.SameCoordinates,Original*%
%TF.FileFunction,Legend,Bot*%
%TF.FilePolarity,Positive*%
%FSLAX46Y46*%
G04 Gerber Fmt 4.6, Leading zero omitted, Abs format (unit mm)*
G04 Created by KiCad (PCBNEW 7.0.5) date 2023-06-25 22:47:47*
%MOMM*%
%LPD*%
G01*
G04 APERTURE LIST*
%ADD10C,0.150000*%
%ADD11C,0.120000*%
G04 APERTURE END LIST*
D10*
%TO.C,U1*%
X118401904Y-78354819D02*
X118401904Y-79164342D01*
X118401904Y-79164342D02*
X118354285Y-79259580D01*
X118354285Y-79259580D02*
X118306666Y-79307200D01*
X118306666Y-79307200D02*
X118211428Y-79354819D01*
X118211428Y-79354819D02*
X118020952Y-79354819D01*
X118020952Y-79354819D02*
X117925714Y-79307200D01*
X117925714Y-79307200D02*
X117878095Y-79259580D01*
X117878095Y-79259580D02*
X117830476Y-79164342D01*
X117830476Y-79164342D02*
X117830476Y-78354819D01*
X116830476Y-79354819D02*
X117401904Y-79354819D01*
X117116190Y-79354819D02*
X117116190Y-78354819D01*
X117116190Y-78354819D02*
X117211428Y-78497676D01*
X117211428Y-78497676D02*
X117306666Y-78592914D01*
X117306666Y-78592914D02*
X117401904Y-78640533D01*
X131126627Y-75211494D02*
X131207439Y-75238431D01*
X131207439Y-75238431D02*
X131288251Y-75319243D01*
X131288251Y-75319243D02*
X131342126Y-75426993D01*
X131342126Y-75426993D02*
X131342126Y-75534742D01*
X131342126Y-75534742D02*
X131315189Y-75615555D01*
X131315189Y-75615555D02*
X131234376Y-75750242D01*
X131234376Y-75750242D02*
X131153564Y-75831054D01*
X131153564Y-75831054D02*
X131018877Y-75911866D01*
X131018877Y-75911866D02*
X130938065Y-75938803D01*
X130938065Y-75938803D02*
X130830315Y-75938803D01*
X130830315Y-75938803D02*
X130722566Y-75884929D01*
X130722566Y-75884929D02*
X130668691Y-75831054D01*
X130668691Y-75831054D02*
X130614816Y-75723304D01*
X130614816Y-75723304D02*
X130614816Y-75669429D01*
X130614816Y-75669429D02*
X130803378Y-75480868D01*
X130803378Y-75480868D02*
X130911128Y-75588617D01*
X130318505Y-75480868D02*
X130884190Y-74915182D01*
X130884190Y-74915182D02*
X130668691Y-74699683D01*
X130668691Y-74699683D02*
X130587879Y-74672746D01*
X130587879Y-74672746D02*
X130534004Y-74672746D01*
X130534004Y-74672746D02*
X130453192Y-74699683D01*
X130453192Y-74699683D02*
X130372380Y-74780495D01*
X130372380Y-74780495D02*
X130345442Y-74861307D01*
X130345442Y-74861307D02*
X130345442Y-74915182D01*
X130345442Y-74915182D02*
X130372380Y-74995994D01*
X130372380Y-74995994D02*
X130587879Y-75211494D01*
X130076068Y-74107060D02*
X130183818Y-74214810D01*
X130183818Y-74214810D02*
X130210755Y-74295622D01*
X130210755Y-74295622D02*
X130210755Y-74349497D01*
X130210755Y-74349497D02*
X130183818Y-74484184D01*
X130183818Y-74484184D02*
X130103006Y-74618871D01*
X130103006Y-74618871D02*
X129887506Y-74834370D01*
X129887506Y-74834370D02*
X129806694Y-74861307D01*
X129806694Y-74861307D02*
X129752819Y-74861307D01*
X129752819Y-74861307D02*
X129672007Y-74834370D01*
X129672007Y-74834370D02*
X129564258Y-74726620D01*
X129564258Y-74726620D02*
X129537320Y-74645808D01*
X129537320Y-74645808D02*
X129537320Y-74591933D01*
X129537320Y-74591933D02*
X129564258Y-74511121D01*
X129564258Y-74511121D02*
X129698945Y-74376434D01*
X129698945Y-74376434D02*
X129779757Y-74349497D01*
X129779757Y-74349497D02*
X129833632Y-74349497D01*
X129833632Y-74349497D02*
X129914444Y-74376434D01*
X129914444Y-74376434D02*
X130022193Y-74484184D01*
X130022193Y-74484184D02*
X130049131Y-74564996D01*
X130049131Y-74564996D02*
X130049131Y-74618871D01*
X130049131Y-74618871D02*
X130022193Y-74699683D01*
X131126627Y-65051494D02*
X131207439Y-65078431D01*
X131207439Y-65078431D02*
X131288251Y-65159243D01*
X131288251Y-65159243D02*
X131342126Y-65266993D01*
X131342126Y-65266993D02*
X131342126Y-65374742D01*
X131342126Y-65374742D02*
X131315189Y-65455555D01*
X131315189Y-65455555D02*
X131234376Y-65590242D01*
X131234376Y-65590242D02*
X131153564Y-65671054D01*
X131153564Y-65671054D02*
X131018877Y-65751866D01*
X131018877Y-65751866D02*
X130938065Y-65778803D01*
X130938065Y-65778803D02*
X130830315Y-65778803D01*
X130830315Y-65778803D02*
X130722566Y-65724929D01*
X130722566Y-65724929D02*
X130668691Y-65671054D01*
X130668691Y-65671054D02*
X130614816Y-65563304D01*
X130614816Y-65563304D02*
X130614816Y-65509429D01*
X130614816Y-65509429D02*
X130803378Y-65320868D01*
X130803378Y-65320868D02*
X130911128Y-65428617D01*
X130318505Y-65320868D02*
X130884190Y-64755182D01*
X130884190Y-64755182D02*
X130668691Y-64539683D01*
X130668691Y-64539683D02*
X130587879Y-64512746D01*
X130587879Y-64512746D02*
X130534004Y-64512746D01*
X130534004Y-64512746D02*
X130453192Y-64539683D01*
X130453192Y-64539683D02*
X130372380Y-64620495D01*
X130372380Y-64620495D02*
X130345442Y-64701307D01*
X130345442Y-64701307D02*
X130345442Y-64755182D01*
X130345442Y-64755182D02*
X130372380Y-64835994D01*
X130372380Y-64835994D02*
X130587879Y-65051494D01*
X130372380Y-64243372D02*
X130022193Y-63893185D01*
X130022193Y-63893185D02*
X129995256Y-64297246D01*
X129995256Y-64297246D02*
X129914444Y-64216434D01*
X129914444Y-64216434D02*
X129833632Y-64189497D01*
X129833632Y-64189497D02*
X129779757Y-64189497D01*
X129779757Y-64189497D02*
X129698945Y-64216434D01*
X129698945Y-64216434D02*
X129564258Y-64351121D01*
X129564258Y-64351121D02*
X129537320Y-64431933D01*
X129537320Y-64431933D02*
X129537320Y-64485808D01*
X129537320Y-64485808D02*
X129564258Y-64566620D01*
X129564258Y-64566620D02*
X129725882Y-64728245D01*
X129725882Y-64728245D02*
X129806694Y-64755182D01*
X129806694Y-64755182D02*
X129860569Y-64755182D01*
X105542001Y-75490868D02*
X105622814Y-75517805D01*
X105622814Y-75517805D02*
X105703626Y-75598618D01*
X105703626Y-75598618D02*
X105757501Y-75706367D01*
X105757501Y-75706367D02*
X105757501Y-75814117D01*
X105757501Y-75814117D02*
X105730563Y-75894929D01*
X105730563Y-75894929D02*
X105649751Y-76029616D01*
X105649751Y-76029616D02*
X105568939Y-76110428D01*
X105568939Y-76110428D02*
X105434252Y-76191241D01*
X105434252Y-76191241D02*
X105353439Y-76218178D01*
X105353439Y-76218178D02*
X105245690Y-76218178D01*
X105245690Y-76218178D02*
X105137940Y-76164303D01*
X105137940Y-76164303D02*
X105084065Y-76110428D01*
X105084065Y-76110428D02*
X105030191Y-76002679D01*
X105030191Y-76002679D02*
X105030191Y-75948804D01*
X105030191Y-75948804D02*
X105218752Y-75760242D01*
X105218752Y-75760242D02*
X105326502Y-75867992D01*
X104733879Y-75760242D02*
X105299565Y-75194557D01*
X105299565Y-75194557D02*
X105084065Y-74979057D01*
X105084065Y-74979057D02*
X105003253Y-74952120D01*
X105003253Y-74952120D02*
X104949378Y-74952120D01*
X104949378Y-74952120D02*
X104868566Y-74979057D01*
X104868566Y-74979057D02*
X104787754Y-75059870D01*
X104787754Y-75059870D02*
X104760817Y-75140682D01*
X104760817Y-75140682D02*
X104760817Y-75194557D01*
X104760817Y-75194557D02*
X104787754Y-75275369D01*
X104787754Y-75275369D02*
X105003253Y-75490868D01*
X104706942Y-74709683D02*
X104706942Y-74655809D01*
X104706942Y-74655809D02*
X104680004Y-74574996D01*
X104680004Y-74574996D02*
X104545317Y-74440309D01*
X104545317Y-74440309D02*
X104464505Y-74413372D01*
X104464505Y-74413372D02*
X104410630Y-74413372D01*
X104410630Y-74413372D02*
X104329818Y-74440309D01*
X104329818Y-74440309D02*
X104275943Y-74494184D01*
X104275943Y-74494184D02*
X104222069Y-74601934D01*
X104222069Y-74601934D02*
X104222069Y-75248431D01*
X104222069Y-75248431D02*
X103871882Y-74898245D01*
X104249006Y-74143998D02*
X103871882Y-73766874D01*
X103871882Y-73766874D02*
X103548633Y-74574996D01*
X105542001Y-78020868D02*
X105622814Y-78047805D01*
X105622814Y-78047805D02*
X105703626Y-78128618D01*
X105703626Y-78128618D02*
X105757501Y-78236367D01*
X105757501Y-78236367D02*
X105757501Y-78344117D01*
X105757501Y-78344117D02*
X105730563Y-78424929D01*
X105730563Y-78424929D02*
X105649751Y-78559616D01*
X105649751Y-78559616D02*
X105568939Y-78640428D01*
X105568939Y-78640428D02*
X105434252Y-78721241D01*
X105434252Y-78721241D02*
X105353439Y-78748178D01*
X105353439Y-78748178D02*
X105245690Y-78748178D01*
X105245690Y-78748178D02*
X105137940Y-78694303D01*
X105137940Y-78694303D02*
X105084065Y-78640428D01*
X105084065Y-78640428D02*
X105030191Y-78532679D01*
X105030191Y-78532679D02*
X105030191Y-78478804D01*
X105030191Y-78478804D02*
X105218752Y-78290242D01*
X105218752Y-78290242D02*
X105326502Y-78397992D01*
X104733879Y-78290242D02*
X105299565Y-77724557D01*
X105299565Y-77724557D02*
X105084065Y-77509057D01*
X105084065Y-77509057D02*
X105003253Y-77482120D01*
X105003253Y-77482120D02*
X104949378Y-77482120D01*
X104949378Y-77482120D02*
X104868566Y-77509057D01*
X104868566Y-77509057D02*
X104787754Y-77589870D01*
X104787754Y-77589870D02*
X104760817Y-77670682D01*
X104760817Y-77670682D02*
X104760817Y-77724557D01*
X104760817Y-77724557D02*
X104787754Y-77805369D01*
X104787754Y-77805369D02*
X105003253Y-78020868D01*
X104706942Y-77239683D02*
X104706942Y-77185809D01*
X104706942Y-77185809D02*
X104680004Y-77104996D01*
X104680004Y-77104996D02*
X104545317Y-76970309D01*
X104545317Y-76970309D02*
X104464505Y-76943372D01*
X104464505Y-76943372D02*
X104410630Y-76943372D01*
X104410630Y-76943372D02*
X104329818Y-76970309D01*
X104329818Y-76970309D02*
X104275943Y-77024184D01*
X104275943Y-77024184D02*
X104222069Y-77131934D01*
X104222069Y-77131934D02*
X104222069Y-77778431D01*
X104222069Y-77778431D02*
X103871882Y-77428245D01*
X103952694Y-76377686D02*
X104060444Y-76485436D01*
X104060444Y-76485436D02*
X104087381Y-76566248D01*
X104087381Y-76566248D02*
X104087381Y-76620123D01*
X104087381Y-76620123D02*
X104060444Y-76754810D01*
X104060444Y-76754810D02*
X103979632Y-76889497D01*
X103979632Y-76889497D02*
X103764133Y-77104996D01*
X103764133Y-77104996D02*
X103683320Y-77131934D01*
X103683320Y-77131934D02*
X103629446Y-77131934D01*
X103629446Y-77131934D02*
X103548633Y-77104996D01*
X103548633Y-77104996D02*
X103440884Y-76997247D01*
X103440884Y-76997247D02*
X103413946Y-76916434D01*
X103413946Y-76916434D02*
X103413946Y-76862560D01*
X103413946Y-76862560D02*
X103440884Y-76781747D01*
X103440884Y-76781747D02*
X103575571Y-76647060D01*
X103575571Y-76647060D02*
X103656383Y-76620123D01*
X103656383Y-76620123D02*
X103710258Y-76620123D01*
X103710258Y-76620123D02*
X103791070Y-76647060D01*
X103791070Y-76647060D02*
X103898820Y-76754810D01*
X103898820Y-76754810D02*
X103925757Y-76835622D01*
X103925757Y-76835622D02*
X103925757Y-76889497D01*
X103925757Y-76889497D02*
X103898820Y-76970309D01*
X131650001Y-95800868D02*
X131730814Y-95827805D01*
X131730814Y-95827805D02*
X131811626Y-95908618D01*
X131811626Y-95908618D02*
X131865501Y-96016367D01*
X131865501Y-96016367D02*
X131865501Y-96124117D01*
X131865501Y-96124117D02*
X131838563Y-96204929D01*
X131838563Y-96204929D02*
X131757751Y-96339616D01*
X131757751Y-96339616D02*
X131676939Y-96420428D01*
X131676939Y-96420428D02*
X131542252Y-96501241D01*
X131542252Y-96501241D02*
X131461439Y-96528178D01*
X131461439Y-96528178D02*
X131353690Y-96528178D01*
X131353690Y-96528178D02*
X131245940Y-96474303D01*
X131245940Y-96474303D02*
X131192065Y-96420428D01*
X131192065Y-96420428D02*
X131138191Y-96312679D01*
X131138191Y-96312679D02*
X131138191Y-96258804D01*
X131138191Y-96258804D02*
X131326752Y-96070242D01*
X131326752Y-96070242D02*
X131434502Y-96177992D01*
X130841879Y-96070242D02*
X131407565Y-95504557D01*
X131407565Y-95504557D02*
X131192065Y-95289057D01*
X131192065Y-95289057D02*
X131111253Y-95262120D01*
X131111253Y-95262120D02*
X131057378Y-95262120D01*
X131057378Y-95262120D02*
X130976566Y-95289057D01*
X130976566Y-95289057D02*
X130895754Y-95369870D01*
X130895754Y-95369870D02*
X130868817Y-95450682D01*
X130868817Y-95450682D02*
X130868817Y-95504557D01*
X130868817Y-95504557D02*
X130895754Y-95585369D01*
X130895754Y-95585369D02*
X131111253Y-95800868D01*
X129979882Y-95208245D02*
X130303131Y-95531494D01*
X130141507Y-95369870D02*
X130707192Y-94804184D01*
X130707192Y-94804184D02*
X130680255Y-94938871D01*
X130680255Y-94938871D02*
X130680255Y-95046621D01*
X130680255Y-95046621D02*
X130707192Y-95127433D01*
X130357006Y-94453998D02*
X130006820Y-94103812D01*
X130006820Y-94103812D02*
X129979882Y-94507873D01*
X129979882Y-94507873D02*
X129899070Y-94427060D01*
X129899070Y-94427060D02*
X129818258Y-94400123D01*
X129818258Y-94400123D02*
X129764383Y-94400123D01*
X129764383Y-94400123D02*
X129683571Y-94427060D01*
X129683571Y-94427060D02*
X129548884Y-94561747D01*
X129548884Y-94561747D02*
X129521946Y-94642560D01*
X129521946Y-94642560D02*
X129521946Y-94696434D01*
X129521946Y-94696434D02*
X129548884Y-94777247D01*
X129548884Y-94777247D02*
X129710508Y-94938871D01*
X129710508Y-94938871D02*
X129791320Y-94965808D01*
X129791320Y-94965808D02*
X129845195Y-94965808D01*
X131026627Y-77721494D02*
X131107439Y-77748431D01*
X131107439Y-77748431D02*
X131188251Y-77829243D01*
X131188251Y-77829243D02*
X131242126Y-77936993D01*
X131242126Y-77936993D02*
X131242126Y-78044742D01*
X131242126Y-78044742D02*
X131215189Y-78125555D01*
X131215189Y-78125555D02*
X131134376Y-78260242D01*
X131134376Y-78260242D02*
X131053564Y-78341054D01*
X131053564Y-78341054D02*
X130918877Y-78421866D01*
X130918877Y-78421866D02*
X130838065Y-78448803D01*
X130838065Y-78448803D02*
X130730315Y-78448803D01*
X130730315Y-78448803D02*
X130622566Y-78394929D01*
X130622566Y-78394929D02*
X130568691Y-78341054D01*
X130568691Y-78341054D02*
X130514816Y-78233304D01*
X130514816Y-78233304D02*
X130514816Y-78179429D01*
X130514816Y-78179429D02*
X130703378Y-77990868D01*
X130703378Y-77990868D02*
X130811128Y-78098617D01*
X130218505Y-77990868D02*
X130784190Y-77425182D01*
X130784190Y-77425182D02*
X130568691Y-77209683D01*
X130568691Y-77209683D02*
X130487879Y-77182746D01*
X130487879Y-77182746D02*
X130434004Y-77182746D01*
X130434004Y-77182746D02*
X130353192Y-77209683D01*
X130353192Y-77209683D02*
X130272380Y-77290495D01*
X130272380Y-77290495D02*
X130245442Y-77371307D01*
X130245442Y-77371307D02*
X130245442Y-77425182D01*
X130245442Y-77425182D02*
X130272380Y-77505994D01*
X130272380Y-77505994D02*
X130487879Y-77721494D01*
X130272380Y-76913372D02*
X129895256Y-76536248D01*
X129895256Y-76536248D02*
X129572007Y-77344370D01*
X131696001Y-100880868D02*
X131776814Y-100907805D01*
X131776814Y-100907805D02*
X131857626Y-100988618D01*
X131857626Y-100988618D02*
X131911501Y-101096367D01*
X131911501Y-101096367D02*
X131911501Y-101204117D01*
X131911501Y-101204117D02*
X131884563Y-101284929D01*
X131884563Y-101284929D02*
X131803751Y-101419616D01*
X131803751Y-101419616D02*
X131722939Y-101500428D01*
X131722939Y-101500428D02*
X131588252Y-101581241D01*
X131588252Y-101581241D02*
X131507439Y-101608178D01*
X131507439Y-101608178D02*
X131399690Y-101608178D01*
X131399690Y-101608178D02*
X131291940Y-101554303D01*
X131291940Y-101554303D02*
X131238065Y-101500428D01*
X131238065Y-101500428D02*
X131184191Y-101392679D01*
X131184191Y-101392679D02*
X131184191Y-101338804D01*
X131184191Y-101338804D02*
X131372752Y-101150242D01*
X131372752Y-101150242D02*
X131480502Y-101257992D01*
X130887879Y-101150242D02*
X131453565Y-100584557D01*
X131453565Y-100584557D02*
X131238065Y-100369057D01*
X131238065Y-100369057D02*
X131157253Y-100342120D01*
X131157253Y-100342120D02*
X131103378Y-100342120D01*
X131103378Y-100342120D02*
X131022566Y-100369057D01*
X131022566Y-100369057D02*
X130941754Y-100449870D01*
X130941754Y-100449870D02*
X130914817Y-100530682D01*
X130914817Y-100530682D02*
X130914817Y-100584557D01*
X130914817Y-100584557D02*
X130941754Y-100665369D01*
X130941754Y-100665369D02*
X131157253Y-100880868D01*
X130025882Y-100288245D02*
X130349131Y-100611494D01*
X130187507Y-100449870D02*
X130753192Y-99884184D01*
X130753192Y-99884184D02*
X130726255Y-100018871D01*
X130726255Y-100018871D02*
X130726255Y-100126621D01*
X130726255Y-100126621D02*
X130753192Y-100207433D01*
X129918133Y-99426248D02*
X129541009Y-99803372D01*
X130268319Y-99345436D02*
X129998945Y-99884184D01*
X129998945Y-99884184D02*
X129648759Y-99533998D01*
X131153564Y-98098431D02*
X131234376Y-98125368D01*
X131234376Y-98125368D02*
X131315188Y-98206180D01*
X131315188Y-98206180D02*
X131369063Y-98313930D01*
X131369063Y-98313930D02*
X131369063Y-98421680D01*
X131369063Y-98421680D02*
X131342126Y-98502492D01*
X131342126Y-98502492D02*
X131261314Y-98637179D01*
X131261314Y-98637179D02*
X131180501Y-98717991D01*
X131180501Y-98717991D02*
X131045814Y-98798803D01*
X131045814Y-98798803D02*
X130965002Y-98825741D01*
X130965002Y-98825741D02*
X130857253Y-98825741D01*
X130857253Y-98825741D02*
X130749503Y-98771866D01*
X130749503Y-98771866D02*
X130695628Y-98717991D01*
X130695628Y-98717991D02*
X130641753Y-98610241D01*
X130641753Y-98610241D02*
X130641753Y-98556367D01*
X130641753Y-98556367D02*
X130830315Y-98367805D01*
X130830315Y-98367805D02*
X130938065Y-98475554D01*
X130345442Y-98367805D02*
X130911127Y-97802119D01*
X130911127Y-97802119D02*
X130022193Y-98044556D01*
X130022193Y-98044556D02*
X130587879Y-97478871D01*
X129752819Y-97775182D02*
X130318505Y-97209497D01*
X130318505Y-97209497D02*
X130183818Y-97074810D01*
X130183818Y-97074810D02*
X130076068Y-97020935D01*
X130076068Y-97020935D02*
X129968319Y-97020935D01*
X129968319Y-97020935D02*
X129887506Y-97047872D01*
X129887506Y-97047872D02*
X129752819Y-97128685D01*
X129752819Y-97128685D02*
X129672007Y-97209497D01*
X129672007Y-97209497D02*
X129591195Y-97344184D01*
X129591195Y-97344184D02*
X129564258Y-97424996D01*
X129564258Y-97424996D02*
X129564258Y-97532746D01*
X129564258Y-97532746D02*
X129618132Y-97640495D01*
X129618132Y-97640495D02*
X129752819Y-97775182D01*
X131126627Y-67591494D02*
X131207439Y-67618431D01*
X131207439Y-67618431D02*
X131288251Y-67699243D01*
X131288251Y-67699243D02*
X131342126Y-67806993D01*
X131342126Y-67806993D02*
X131342126Y-67914742D01*
X131342126Y-67914742D02*
X131315189Y-67995555D01*
X131315189Y-67995555D02*
X131234376Y-68130242D01*
X131234376Y-68130242D02*
X131153564Y-68211054D01*
X131153564Y-68211054D02*
X131018877Y-68291866D01*
X131018877Y-68291866D02*
X130938065Y-68318803D01*
X130938065Y-68318803D02*
X130830315Y-68318803D01*
X130830315Y-68318803D02*
X130722566Y-68264929D01*
X130722566Y-68264929D02*
X130668691Y-68211054D01*
X130668691Y-68211054D02*
X130614816Y-68103304D01*
X130614816Y-68103304D02*
X130614816Y-68049429D01*
X130614816Y-68049429D02*
X130803378Y-67860868D01*
X130803378Y-67860868D02*
X130911128Y-67968617D01*
X130318505Y-67860868D02*
X130884190Y-67295182D01*
X130884190Y-67295182D02*
X130668691Y-67079683D01*
X130668691Y-67079683D02*
X130587879Y-67052746D01*
X130587879Y-67052746D02*
X130534004Y-67052746D01*
X130534004Y-67052746D02*
X130453192Y-67079683D01*
X130453192Y-67079683D02*
X130372380Y-67160495D01*
X130372380Y-67160495D02*
X130345442Y-67241307D01*
X130345442Y-67241307D02*
X130345442Y-67295182D01*
X130345442Y-67295182D02*
X130372380Y-67375994D01*
X130372380Y-67375994D02*
X130587879Y-67591494D01*
X129887506Y-66675622D02*
X129510383Y-67052746D01*
X130237693Y-66594810D02*
X129968319Y-67133558D01*
X129968319Y-67133558D02*
X129618132Y-66783372D01*
X131153564Y-85398431D02*
X131234376Y-85425368D01*
X131234376Y-85425368D02*
X131315188Y-85506180D01*
X131315188Y-85506180D02*
X131369063Y-85613930D01*
X131369063Y-85613930D02*
X131369063Y-85721680D01*
X131369063Y-85721680D02*
X131342126Y-85802492D01*
X131342126Y-85802492D02*
X131261314Y-85937179D01*
X131261314Y-85937179D02*
X131180501Y-86017991D01*
X131180501Y-86017991D02*
X131045814Y-86098803D01*
X131045814Y-86098803D02*
X130965002Y-86125741D01*
X130965002Y-86125741D02*
X130857253Y-86125741D01*
X130857253Y-86125741D02*
X130749503Y-86071866D01*
X130749503Y-86071866D02*
X130695628Y-86017991D01*
X130695628Y-86017991D02*
X130641753Y-85910241D01*
X130641753Y-85910241D02*
X130641753Y-85856367D01*
X130641753Y-85856367D02*
X130830315Y-85667805D01*
X130830315Y-85667805D02*
X130938065Y-85775554D01*
X130345442Y-85667805D02*
X130911127Y-85102119D01*
X130911127Y-85102119D02*
X130022193Y-85344556D01*
X130022193Y-85344556D02*
X130587879Y-84778871D01*
X129752819Y-85075182D02*
X130318505Y-84509497D01*
X130318505Y-84509497D02*
X130183818Y-84374810D01*
X130183818Y-84374810D02*
X130076068Y-84320935D01*
X130076068Y-84320935D02*
X129968319Y-84320935D01*
X129968319Y-84320935D02*
X129887506Y-84347872D01*
X129887506Y-84347872D02*
X129752819Y-84428685D01*
X129752819Y-84428685D02*
X129672007Y-84509497D01*
X129672007Y-84509497D02*
X129591195Y-84644184D01*
X129591195Y-84644184D02*
X129564258Y-84724996D01*
X129564258Y-84724996D02*
X129564258Y-84832746D01*
X129564258Y-84832746D02*
X129618132Y-84940495D01*
X129618132Y-84940495D02*
X129752819Y-85075182D01*
X105542001Y-93260868D02*
X105622814Y-93287805D01*
X105622814Y-93287805D02*
X105703626Y-93368618D01*
X105703626Y-93368618D02*
X105757501Y-93476367D01*
X105757501Y-93476367D02*
X105757501Y-93584117D01*
X105757501Y-93584117D02*
X105730563Y-93664929D01*
X105730563Y-93664929D02*
X105649751Y-93799616D01*
X105649751Y-93799616D02*
X105568939Y-93880428D01*
X105568939Y-93880428D02*
X105434252Y-93961241D01*
X105434252Y-93961241D02*
X105353439Y-93988178D01*
X105353439Y-93988178D02*
X105245690Y-93988178D01*
X105245690Y-93988178D02*
X105137940Y-93934303D01*
X105137940Y-93934303D02*
X105084065Y-93880428D01*
X105084065Y-93880428D02*
X105030191Y-93772679D01*
X105030191Y-93772679D02*
X105030191Y-93718804D01*
X105030191Y-93718804D02*
X105218752Y-93530242D01*
X105218752Y-93530242D02*
X105326502Y-93637992D01*
X104733879Y-93530242D02*
X105299565Y-92964557D01*
X105299565Y-92964557D02*
X105084065Y-92749057D01*
X105084065Y-92749057D02*
X105003253Y-92722120D01*
X105003253Y-92722120D02*
X104949378Y-92722120D01*
X104949378Y-92722120D02*
X104868566Y-92749057D01*
X104868566Y-92749057D02*
X104787754Y-92829870D01*
X104787754Y-92829870D02*
X104760817Y-92910682D01*
X104760817Y-92910682D02*
X104760817Y-92964557D01*
X104760817Y-92964557D02*
X104787754Y-93045369D01*
X104787754Y-93045369D02*
X105003253Y-93260868D01*
X103871882Y-92668245D02*
X104195131Y-92991494D01*
X104033507Y-92829870D02*
X104599192Y-92264184D01*
X104599192Y-92264184D02*
X104572255Y-92398871D01*
X104572255Y-92398871D02*
X104572255Y-92506621D01*
X104572255Y-92506621D02*
X104599192Y-92587433D01*
X103602508Y-92398871D02*
X103494759Y-92291121D01*
X103494759Y-92291121D02*
X103467821Y-92210309D01*
X103467821Y-92210309D02*
X103467821Y-92156434D01*
X103467821Y-92156434D02*
X103494759Y-92021747D01*
X103494759Y-92021747D02*
X103575571Y-91887060D01*
X103575571Y-91887060D02*
X103791070Y-91671561D01*
X103791070Y-91671561D02*
X103871882Y-91644624D01*
X103871882Y-91644624D02*
X103925757Y-91644624D01*
X103925757Y-91644624D02*
X104006569Y-91671561D01*
X104006569Y-91671561D02*
X104114319Y-91779311D01*
X104114319Y-91779311D02*
X104141256Y-91860123D01*
X104141256Y-91860123D02*
X104141256Y-91913998D01*
X104141256Y-91913998D02*
X104114319Y-91994810D01*
X104114319Y-91994810D02*
X103979632Y-92129497D01*
X103979632Y-92129497D02*
X103898820Y-92156434D01*
X103898820Y-92156434D02*
X103844945Y-92156434D01*
X103844945Y-92156434D02*
X103764133Y-92129497D01*
X103764133Y-92129497D02*
X103656383Y-92021747D01*
X103656383Y-92021747D02*
X103629446Y-91940935D01*
X103629446Y-91940935D02*
X103629446Y-91887060D01*
X103629446Y-91887060D02*
X103656383Y-91806248D01*
X105542001Y-90720868D02*
X105622814Y-90747805D01*
X105622814Y-90747805D02*
X105703626Y-90828618D01*
X105703626Y-90828618D02*
X105757501Y-90936367D01*
X105757501Y-90936367D02*
X105757501Y-91044117D01*
X105757501Y-91044117D02*
X105730563Y-91124929D01*
X105730563Y-91124929D02*
X105649751Y-91259616D01*
X105649751Y-91259616D02*
X105568939Y-91340428D01*
X105568939Y-91340428D02*
X105434252Y-91421241D01*
X105434252Y-91421241D02*
X105353439Y-91448178D01*
X105353439Y-91448178D02*
X105245690Y-91448178D01*
X105245690Y-91448178D02*
X105137940Y-91394303D01*
X105137940Y-91394303D02*
X105084065Y-91340428D01*
X105084065Y-91340428D02*
X105030191Y-91232679D01*
X105030191Y-91232679D02*
X105030191Y-91178804D01*
X105030191Y-91178804D02*
X105218752Y-90990242D01*
X105218752Y-90990242D02*
X105326502Y-91097992D01*
X104733879Y-90990242D02*
X105299565Y-90424557D01*
X105299565Y-90424557D02*
X105084065Y-90209057D01*
X105084065Y-90209057D02*
X105003253Y-90182120D01*
X105003253Y-90182120D02*
X104949378Y-90182120D01*
X104949378Y-90182120D02*
X104868566Y-90209057D01*
X104868566Y-90209057D02*
X104787754Y-90289870D01*
X104787754Y-90289870D02*
X104760817Y-90370682D01*
X104760817Y-90370682D02*
X104760817Y-90424557D01*
X104760817Y-90424557D02*
X104787754Y-90505369D01*
X104787754Y-90505369D02*
X105003253Y-90720868D01*
X104706942Y-89939683D02*
X104706942Y-89885809D01*
X104706942Y-89885809D02*
X104680004Y-89804996D01*
X104680004Y-89804996D02*
X104545317Y-89670309D01*
X104545317Y-89670309D02*
X104464505Y-89643372D01*
X104464505Y-89643372D02*
X104410630Y-89643372D01*
X104410630Y-89643372D02*
X104329818Y-89670309D01*
X104329818Y-89670309D02*
X104275943Y-89724184D01*
X104275943Y-89724184D02*
X104222069Y-89831934D01*
X104222069Y-89831934D02*
X104222069Y-90478431D01*
X104222069Y-90478431D02*
X103871882Y-90128245D01*
X104087381Y-89212373D02*
X104033507Y-89158499D01*
X104033507Y-89158499D02*
X103952694Y-89131561D01*
X103952694Y-89131561D02*
X103898820Y-89131561D01*
X103898820Y-89131561D02*
X103818007Y-89158499D01*
X103818007Y-89158499D02*
X103683320Y-89239311D01*
X103683320Y-89239311D02*
X103548633Y-89373998D01*
X103548633Y-89373998D02*
X103467821Y-89508685D01*
X103467821Y-89508685D02*
X103440884Y-89589497D01*
X103440884Y-89589497D02*
X103440884Y-89643372D01*
X103440884Y-89643372D02*
X103467821Y-89724184D01*
X103467821Y-89724184D02*
X103521696Y-89778059D01*
X103521696Y-89778059D02*
X103602508Y-89804996D01*
X103602508Y-89804996D02*
X103656383Y-89804996D01*
X103656383Y-89804996D02*
X103737195Y-89778059D01*
X103737195Y-89778059D02*
X103871882Y-89697247D01*
X103871882Y-89697247D02*
X104006569Y-89562560D01*
X104006569Y-89562560D02*
X104087381Y-89427873D01*
X104087381Y-89427873D02*
X104114319Y-89347060D01*
X104114319Y-89347060D02*
X104114319Y-89293186D01*
X104114319Y-89293186D02*
X104087381Y-89212373D01*
X104801348Y-80843710D02*
X105259283Y-80762898D01*
X105124596Y-81166959D02*
X105690282Y-80601274D01*
X105690282Y-80601274D02*
X105474783Y-80385775D01*
X105474783Y-80385775D02*
X105393970Y-80358837D01*
X105393970Y-80358837D02*
X105340096Y-80358837D01*
X105340096Y-80358837D02*
X105259283Y-80385775D01*
X105259283Y-80385775D02*
X105178471Y-80466587D01*
X105178471Y-80466587D02*
X105151534Y-80547399D01*
X105151534Y-80547399D02*
X105151534Y-80601274D01*
X105151534Y-80601274D02*
X105178471Y-80682086D01*
X105178471Y-80682086D02*
X105393970Y-80897585D01*
X105124596Y-80035588D02*
X104666661Y-80493524D01*
X104666661Y-80493524D02*
X104585848Y-80520462D01*
X104585848Y-80520462D02*
X104531974Y-80520462D01*
X104531974Y-80520462D02*
X104451161Y-80493524D01*
X104451161Y-80493524D02*
X104343412Y-80385775D01*
X104343412Y-80385775D02*
X104316474Y-80304962D01*
X104316474Y-80304962D02*
X104316474Y-80251088D01*
X104316474Y-80251088D02*
X104343412Y-80170275D01*
X104343412Y-80170275D02*
X104801348Y-79712340D01*
X103966288Y-80008651D02*
X104531974Y-79442966D01*
X104531974Y-79442966D02*
X103643040Y-79685402D01*
X103643040Y-79685402D02*
X104208725Y-79119717D01*
X131650001Y-103420868D02*
X131730814Y-103447805D01*
X131730814Y-103447805D02*
X131811626Y-103528618D01*
X131811626Y-103528618D02*
X131865501Y-103636367D01*
X131865501Y-103636367D02*
X131865501Y-103744117D01*
X131865501Y-103744117D02*
X131838563Y-103824929D01*
X131838563Y-103824929D02*
X131757751Y-103959616D01*
X131757751Y-103959616D02*
X131676939Y-104040428D01*
X131676939Y-104040428D02*
X131542252Y-104121241D01*
X131542252Y-104121241D02*
X131461439Y-104148178D01*
X131461439Y-104148178D02*
X131353690Y-104148178D01*
X131353690Y-104148178D02*
X131245940Y-104094303D01*
X131245940Y-104094303D02*
X131192065Y-104040428D01*
X131192065Y-104040428D02*
X131138191Y-103932679D01*
X131138191Y-103932679D02*
X131138191Y-103878804D01*
X131138191Y-103878804D02*
X131326752Y-103690242D01*
X131326752Y-103690242D02*
X131434502Y-103797992D01*
X130841879Y-103690242D02*
X131407565Y-103124557D01*
X131407565Y-103124557D02*
X131192065Y-102909057D01*
X131192065Y-102909057D02*
X131111253Y-102882120D01*
X131111253Y-102882120D02*
X131057378Y-102882120D01*
X131057378Y-102882120D02*
X130976566Y-102909057D01*
X130976566Y-102909057D02*
X130895754Y-102989870D01*
X130895754Y-102989870D02*
X130868817Y-103070682D01*
X130868817Y-103070682D02*
X130868817Y-103124557D01*
X130868817Y-103124557D02*
X130895754Y-103205369D01*
X130895754Y-103205369D02*
X131111253Y-103420868D01*
X129979882Y-102828245D02*
X130303131Y-103151494D01*
X130141507Y-102989870D02*
X130707192Y-102424184D01*
X130707192Y-102424184D02*
X130680255Y-102558871D01*
X130680255Y-102558871D02*
X130680255Y-102666621D01*
X130680255Y-102666621D02*
X130707192Y-102747433D01*
X130033757Y-101750749D02*
X130303131Y-102020123D01*
X130303131Y-102020123D02*
X130060694Y-102316434D01*
X130060694Y-102316434D02*
X130060694Y-102262560D01*
X130060694Y-102262560D02*
X130033757Y-102181747D01*
X130033757Y-102181747D02*
X129899070Y-102047060D01*
X129899070Y-102047060D02*
X129818258Y-102020123D01*
X129818258Y-102020123D02*
X129764383Y-102020123D01*
X129764383Y-102020123D02*
X129683571Y-102047060D01*
X129683571Y-102047060D02*
X129548884Y-102181747D01*
X129548884Y-102181747D02*
X129521946Y-102262560D01*
X129521946Y-102262560D02*
X129521946Y-102316434D01*
X129521946Y-102316434D02*
X129548884Y-102397247D01*
X129548884Y-102397247D02*
X129683571Y-102531934D01*
X129683571Y-102531934D02*
X129764383Y-102558871D01*
X129764383Y-102558871D02*
X129818258Y-102558871D01*
X131126627Y-80291494D02*
X131207439Y-80318431D01*
X131207439Y-80318431D02*
X131288251Y-80399243D01*
X131288251Y-80399243D02*
X131342126Y-80506993D01*
X131342126Y-80506993D02*
X131342126Y-80614742D01*
X131342126Y-80614742D02*
X131315189Y-80695555D01*
X131315189Y-80695555D02*
X131234376Y-80830242D01*
X131234376Y-80830242D02*
X131153564Y-80911054D01*
X131153564Y-80911054D02*
X131018877Y-80991866D01*
X131018877Y-80991866D02*
X130938065Y-81018803D01*
X130938065Y-81018803D02*
X130830315Y-81018803D01*
X130830315Y-81018803D02*
X130722566Y-80964929D01*
X130722566Y-80964929D02*
X130668691Y-80911054D01*
X130668691Y-80911054D02*
X130614816Y-80803304D01*
X130614816Y-80803304D02*
X130614816Y-80749429D01*
X130614816Y-80749429D02*
X130803378Y-80560868D01*
X130803378Y-80560868D02*
X130911128Y-80668617D01*
X130318505Y-80560868D02*
X130884190Y-79995182D01*
X130884190Y-79995182D02*
X130668691Y-79779683D01*
X130668691Y-79779683D02*
X130587879Y-79752746D01*
X130587879Y-79752746D02*
X130534004Y-79752746D01*
X130534004Y-79752746D02*
X130453192Y-79779683D01*
X130453192Y-79779683D02*
X130372380Y-79860495D01*
X130372380Y-79860495D02*
X130345442Y-79941307D01*
X130345442Y-79941307D02*
X130345442Y-79995182D01*
X130345442Y-79995182D02*
X130372380Y-80075994D01*
X130372380Y-80075994D02*
X130587879Y-80291494D01*
X129995256Y-79591121D02*
X130076068Y-79618059D01*
X130076068Y-79618059D02*
X130129943Y-79618059D01*
X130129943Y-79618059D02*
X130210755Y-79591121D01*
X130210755Y-79591121D02*
X130237693Y-79564184D01*
X130237693Y-79564184D02*
X130264630Y-79483372D01*
X130264630Y-79483372D02*
X130264630Y-79429497D01*
X130264630Y-79429497D02*
X130237693Y-79348685D01*
X130237693Y-79348685D02*
X130129943Y-79240935D01*
X130129943Y-79240935D02*
X130049131Y-79213998D01*
X130049131Y-79213998D02*
X129995256Y-79213998D01*
X129995256Y-79213998D02*
X129914444Y-79240935D01*
X129914444Y-79240935D02*
X129887506Y-79267872D01*
X129887506Y-79267872D02*
X129860569Y-79348685D01*
X129860569Y-79348685D02*
X129860569Y-79402559D01*
X129860569Y-79402559D02*
X129887506Y-79483372D01*
X129887506Y-79483372D02*
X129995256Y-79591121D01*
X129995256Y-79591121D02*
X130022193Y-79671933D01*
X130022193Y-79671933D02*
X130022193Y-79725808D01*
X130022193Y-79725808D02*
X129995256Y-79806620D01*
X129995256Y-79806620D02*
X129887506Y-79914370D01*
X129887506Y-79914370D02*
X129806694Y-79941307D01*
X129806694Y-79941307D02*
X129752819Y-79941307D01*
X129752819Y-79941307D02*
X129672007Y-79914370D01*
X129672007Y-79914370D02*
X129564258Y-79806620D01*
X129564258Y-79806620D02*
X129537320Y-79725808D01*
X129537320Y-79725808D02*
X129537320Y-79671933D01*
X129537320Y-79671933D02*
X129564258Y-79591121D01*
X129564258Y-79591121D02*
X129672007Y-79483372D01*
X129672007Y-79483372D02*
X129752819Y-79456434D01*
X129752819Y-79456434D02*
X129806694Y-79456434D01*
X129806694Y-79456434D02*
X129887506Y-79483372D01*
X105542001Y-100880868D02*
X105622814Y-100907805D01*
X105622814Y-100907805D02*
X105703626Y-100988618D01*
X105703626Y-100988618D02*
X105757501Y-101096367D01*
X105757501Y-101096367D02*
X105757501Y-101204117D01*
X105757501Y-101204117D02*
X105730563Y-101284929D01*
X105730563Y-101284929D02*
X105649751Y-101419616D01*
X105649751Y-101419616D02*
X105568939Y-101500428D01*
X105568939Y-101500428D02*
X105434252Y-101581241D01*
X105434252Y-101581241D02*
X105353439Y-101608178D01*
X105353439Y-101608178D02*
X105245690Y-101608178D01*
X105245690Y-101608178D02*
X105137940Y-101554303D01*
X105137940Y-101554303D02*
X105084065Y-101500428D01*
X105084065Y-101500428D02*
X105030191Y-101392679D01*
X105030191Y-101392679D02*
X105030191Y-101338804D01*
X105030191Y-101338804D02*
X105218752Y-101150242D01*
X105218752Y-101150242D02*
X105326502Y-101257992D01*
X104733879Y-101150242D02*
X105299565Y-100584557D01*
X105299565Y-100584557D02*
X105084065Y-100369057D01*
X105084065Y-100369057D02*
X105003253Y-100342120D01*
X105003253Y-100342120D02*
X104949378Y-100342120D01*
X104949378Y-100342120D02*
X104868566Y-100369057D01*
X104868566Y-100369057D02*
X104787754Y-100449870D01*
X104787754Y-100449870D02*
X104760817Y-100530682D01*
X104760817Y-100530682D02*
X104760817Y-100584557D01*
X104760817Y-100584557D02*
X104787754Y-100665369D01*
X104787754Y-100665369D02*
X105003253Y-100880868D01*
X103871882Y-100288245D02*
X104195131Y-100611494D01*
X104033507Y-100449870D02*
X104599192Y-99884184D01*
X104599192Y-99884184D02*
X104572255Y-100018871D01*
X104572255Y-100018871D02*
X104572255Y-100126621D01*
X104572255Y-100126621D02*
X104599192Y-100207433D01*
X104249006Y-99533998D02*
X103871882Y-99156874D01*
X103871882Y-99156874D02*
X103548633Y-99964996D01*
X105542001Y-88190868D02*
X105622814Y-88217805D01*
X105622814Y-88217805D02*
X105703626Y-88298618D01*
X105703626Y-88298618D02*
X105757501Y-88406367D01*
X105757501Y-88406367D02*
X105757501Y-88514117D01*
X105757501Y-88514117D02*
X105730563Y-88594929D01*
X105730563Y-88594929D02*
X105649751Y-88729616D01*
X105649751Y-88729616D02*
X105568939Y-88810428D01*
X105568939Y-88810428D02*
X105434252Y-88891241D01*
X105434252Y-88891241D02*
X105353439Y-88918178D01*
X105353439Y-88918178D02*
X105245690Y-88918178D01*
X105245690Y-88918178D02*
X105137940Y-88864303D01*
X105137940Y-88864303D02*
X105084065Y-88810428D01*
X105084065Y-88810428D02*
X105030191Y-88702679D01*
X105030191Y-88702679D02*
X105030191Y-88648804D01*
X105030191Y-88648804D02*
X105218752Y-88460242D01*
X105218752Y-88460242D02*
X105326502Y-88567992D01*
X104733879Y-88460242D02*
X105299565Y-87894557D01*
X105299565Y-87894557D02*
X105084065Y-87679057D01*
X105084065Y-87679057D02*
X105003253Y-87652120D01*
X105003253Y-87652120D02*
X104949378Y-87652120D01*
X104949378Y-87652120D02*
X104868566Y-87679057D01*
X104868566Y-87679057D02*
X104787754Y-87759870D01*
X104787754Y-87759870D02*
X104760817Y-87840682D01*
X104760817Y-87840682D02*
X104760817Y-87894557D01*
X104760817Y-87894557D02*
X104787754Y-87975369D01*
X104787754Y-87975369D02*
X105003253Y-88190868D01*
X104706942Y-87409683D02*
X104706942Y-87355809D01*
X104706942Y-87355809D02*
X104680004Y-87274996D01*
X104680004Y-87274996D02*
X104545317Y-87140309D01*
X104545317Y-87140309D02*
X104464505Y-87113372D01*
X104464505Y-87113372D02*
X104410630Y-87113372D01*
X104410630Y-87113372D02*
X104329818Y-87140309D01*
X104329818Y-87140309D02*
X104275943Y-87194184D01*
X104275943Y-87194184D02*
X104222069Y-87301934D01*
X104222069Y-87301934D02*
X104222069Y-87948431D01*
X104222069Y-87948431D02*
X103871882Y-87598245D01*
X103333134Y-87059497D02*
X103656383Y-87382746D01*
X103494759Y-87221121D02*
X104060444Y-86655436D01*
X104060444Y-86655436D02*
X104033507Y-86790123D01*
X104033507Y-86790123D02*
X104033507Y-86897873D01*
X104033507Y-86897873D02*
X104060444Y-86978685D01*
X131226627Y-57421494D02*
X131307439Y-57448431D01*
X131307439Y-57448431D02*
X131388251Y-57529243D01*
X131388251Y-57529243D02*
X131442126Y-57636993D01*
X131442126Y-57636993D02*
X131442126Y-57744742D01*
X131442126Y-57744742D02*
X131415189Y-57825555D01*
X131415189Y-57825555D02*
X131334376Y-57960242D01*
X131334376Y-57960242D02*
X131253564Y-58041054D01*
X131253564Y-58041054D02*
X131118877Y-58121866D01*
X131118877Y-58121866D02*
X131038065Y-58148803D01*
X131038065Y-58148803D02*
X130930315Y-58148803D01*
X130930315Y-58148803D02*
X130822566Y-58094929D01*
X130822566Y-58094929D02*
X130768691Y-58041054D01*
X130768691Y-58041054D02*
X130714816Y-57933304D01*
X130714816Y-57933304D02*
X130714816Y-57879429D01*
X130714816Y-57879429D02*
X130903378Y-57690868D01*
X130903378Y-57690868D02*
X131011128Y-57798617D01*
X130418505Y-57690868D02*
X130984190Y-57125182D01*
X130984190Y-57125182D02*
X130768691Y-56909683D01*
X130768691Y-56909683D02*
X130687879Y-56882746D01*
X130687879Y-56882746D02*
X130634004Y-56882746D01*
X130634004Y-56882746D02*
X130553192Y-56909683D01*
X130553192Y-56909683D02*
X130472380Y-56990495D01*
X130472380Y-56990495D02*
X130445442Y-57071307D01*
X130445442Y-57071307D02*
X130445442Y-57125182D01*
X130445442Y-57125182D02*
X130472380Y-57205994D01*
X130472380Y-57205994D02*
X130687879Y-57421494D01*
X129556508Y-56828871D02*
X129879757Y-57152120D01*
X129718132Y-56990495D02*
X130283818Y-56424810D01*
X130283818Y-56424810D02*
X130256880Y-56559497D01*
X130256880Y-56559497D02*
X130256880Y-56667246D01*
X130256880Y-56667246D02*
X130283818Y-56748059D01*
X105542001Y-103420868D02*
X105622814Y-103447805D01*
X105622814Y-103447805D02*
X105703626Y-103528618D01*
X105703626Y-103528618D02*
X105757501Y-103636367D01*
X105757501Y-103636367D02*
X105757501Y-103744117D01*
X105757501Y-103744117D02*
X105730563Y-103824929D01*
X105730563Y-103824929D02*
X105649751Y-103959616D01*
X105649751Y-103959616D02*
X105568939Y-104040428D01*
X105568939Y-104040428D02*
X105434252Y-104121241D01*
X105434252Y-104121241D02*
X105353439Y-104148178D01*
X105353439Y-104148178D02*
X105245690Y-104148178D01*
X105245690Y-104148178D02*
X105137940Y-104094303D01*
X105137940Y-104094303D02*
X105084065Y-104040428D01*
X105084065Y-104040428D02*
X105030191Y-103932679D01*
X105030191Y-103932679D02*
X105030191Y-103878804D01*
X105030191Y-103878804D02*
X105218752Y-103690242D01*
X105218752Y-103690242D02*
X105326502Y-103797992D01*
X104733879Y-103690242D02*
X105299565Y-103124557D01*
X105299565Y-103124557D02*
X105084065Y-102909057D01*
X105084065Y-102909057D02*
X105003253Y-102882120D01*
X105003253Y-102882120D02*
X104949378Y-102882120D01*
X104949378Y-102882120D02*
X104868566Y-102909057D01*
X104868566Y-102909057D02*
X104787754Y-102989870D01*
X104787754Y-102989870D02*
X104760817Y-103070682D01*
X104760817Y-103070682D02*
X104760817Y-103124557D01*
X104760817Y-103124557D02*
X104787754Y-103205369D01*
X104787754Y-103205369D02*
X105003253Y-103420868D01*
X103871882Y-102828245D02*
X104195131Y-103151494D01*
X104033507Y-102989870D02*
X104599192Y-102424184D01*
X104599192Y-102424184D02*
X104572255Y-102558871D01*
X104572255Y-102558871D02*
X104572255Y-102666621D01*
X104572255Y-102666621D02*
X104599192Y-102747433D01*
X103952694Y-101777686D02*
X104060444Y-101885436D01*
X104060444Y-101885436D02*
X104087381Y-101966248D01*
X104087381Y-101966248D02*
X104087381Y-102020123D01*
X104087381Y-102020123D02*
X104060444Y-102154810D01*
X104060444Y-102154810D02*
X103979632Y-102289497D01*
X103979632Y-102289497D02*
X103764133Y-102504996D01*
X103764133Y-102504996D02*
X103683320Y-102531934D01*
X103683320Y-102531934D02*
X103629446Y-102531934D01*
X103629446Y-102531934D02*
X103548633Y-102504996D01*
X103548633Y-102504996D02*
X103440884Y-102397247D01*
X103440884Y-102397247D02*
X103413946Y-102316434D01*
X103413946Y-102316434D02*
X103413946Y-102262560D01*
X103413946Y-102262560D02*
X103440884Y-102181747D01*
X103440884Y-102181747D02*
X103575571Y-102047060D01*
X103575571Y-102047060D02*
X103656383Y-102020123D01*
X103656383Y-102020123D02*
X103710258Y-102020123D01*
X103710258Y-102020123D02*
X103791070Y-102047060D01*
X103791070Y-102047060D02*
X103898820Y-102154810D01*
X103898820Y-102154810D02*
X103925757Y-102235622D01*
X103925757Y-102235622D02*
X103925757Y-102289497D01*
X103925757Y-102289497D02*
X103898820Y-102370309D01*
X105484935Y-68434049D02*
X105215561Y-68164675D01*
X105377186Y-68649549D02*
X105754309Y-67895301D01*
X105754309Y-67895301D02*
X105000062Y-68272425D01*
X104811500Y-68083863D02*
X105377186Y-67518178D01*
X105377186Y-67518178D02*
X105242499Y-67383491D01*
X105242499Y-67383491D02*
X105134749Y-67329616D01*
X105134749Y-67329616D02*
X105027000Y-67329616D01*
X105027000Y-67329616D02*
X104946187Y-67356553D01*
X104946187Y-67356553D02*
X104811500Y-67437366D01*
X104811500Y-67437366D02*
X104730688Y-67518178D01*
X104730688Y-67518178D02*
X104649876Y-67652865D01*
X104649876Y-67652865D02*
X104622939Y-67733677D01*
X104622939Y-67733677D02*
X104622939Y-67841427D01*
X104622939Y-67841427D02*
X104676813Y-67949176D01*
X104676813Y-67949176D02*
X104811500Y-68083863D01*
X103976441Y-67141054D02*
X103976441Y-67194929D01*
X103976441Y-67194929D02*
X104030316Y-67302679D01*
X104030316Y-67302679D02*
X104084191Y-67356553D01*
X104084191Y-67356553D02*
X104191940Y-67410428D01*
X104191940Y-67410428D02*
X104299690Y-67410428D01*
X104299690Y-67410428D02*
X104380502Y-67383491D01*
X104380502Y-67383491D02*
X104515189Y-67302679D01*
X104515189Y-67302679D02*
X104596001Y-67221866D01*
X104596001Y-67221866D02*
X104676813Y-67087179D01*
X104676813Y-67087179D02*
X104703751Y-67006367D01*
X104703751Y-67006367D02*
X104703751Y-66898618D01*
X104703751Y-66898618D02*
X104649876Y-66790868D01*
X104649876Y-66790868D02*
X104596001Y-66736993D01*
X104596001Y-66736993D02*
X104488252Y-66683118D01*
X104488252Y-66683118D02*
X104434377Y-66683118D01*
X103760942Y-67141054D02*
X103329943Y-66710056D01*
X103895629Y-66036621D02*
X103141381Y-66413744D01*
X103141381Y-66413744D02*
X103518505Y-65659497D01*
X102441009Y-65713372D02*
X102898945Y-65632560D01*
X102764258Y-66036621D02*
X103329943Y-65470935D01*
X103329943Y-65470935D02*
X103114444Y-65255436D01*
X103114444Y-65255436D02*
X103033632Y-65228499D01*
X103033632Y-65228499D02*
X102979757Y-65228499D01*
X102979757Y-65228499D02*
X102898945Y-65255436D01*
X102898945Y-65255436D02*
X102818133Y-65336248D01*
X102818133Y-65336248D02*
X102791195Y-65417061D01*
X102791195Y-65417061D02*
X102791195Y-65470935D01*
X102791195Y-65470935D02*
X102818133Y-65551748D01*
X102818133Y-65551748D02*
X103033632Y-65767247D01*
X102494884Y-65174624D02*
X102306322Y-64986062D01*
X101929199Y-65201561D02*
X102198573Y-65470935D01*
X102198573Y-65470935D02*
X102764258Y-64905250D01*
X102764258Y-64905250D02*
X102494884Y-64635876D01*
X101794511Y-64474251D02*
X101983073Y-64662813D01*
X101686762Y-64959125D02*
X102252447Y-64393439D01*
X102252447Y-64393439D02*
X101983073Y-64124065D01*
X131153564Y-59998431D02*
X131234376Y-60025368D01*
X131234376Y-60025368D02*
X131315188Y-60106180D01*
X131315188Y-60106180D02*
X131369063Y-60213930D01*
X131369063Y-60213930D02*
X131369063Y-60321680D01*
X131369063Y-60321680D02*
X131342126Y-60402492D01*
X131342126Y-60402492D02*
X131261314Y-60537179D01*
X131261314Y-60537179D02*
X131180501Y-60617991D01*
X131180501Y-60617991D02*
X131045814Y-60698803D01*
X131045814Y-60698803D02*
X130965002Y-60725741D01*
X130965002Y-60725741D02*
X130857253Y-60725741D01*
X130857253Y-60725741D02*
X130749503Y-60671866D01*
X130749503Y-60671866D02*
X130695628Y-60617991D01*
X130695628Y-60617991D02*
X130641753Y-60510241D01*
X130641753Y-60510241D02*
X130641753Y-60456367D01*
X130641753Y-60456367D02*
X130830315Y-60267805D01*
X130830315Y-60267805D02*
X130938065Y-60375554D01*
X130345442Y-60267805D02*
X130911127Y-59702119D01*
X130911127Y-59702119D02*
X130022193Y-59944556D01*
X130022193Y-59944556D02*
X130587879Y-59378871D01*
X129752819Y-59675182D02*
X130318505Y-59109497D01*
X130318505Y-59109497D02*
X130183818Y-58974810D01*
X130183818Y-58974810D02*
X130076068Y-58920935D01*
X130076068Y-58920935D02*
X129968319Y-58920935D01*
X129968319Y-58920935D02*
X129887506Y-58947872D01*
X129887506Y-58947872D02*
X129752819Y-59028685D01*
X129752819Y-59028685D02*
X129672007Y-59109497D01*
X129672007Y-59109497D02*
X129591195Y-59244184D01*
X129591195Y-59244184D02*
X129564258Y-59324996D01*
X129564258Y-59324996D02*
X129564258Y-59432746D01*
X129564258Y-59432746D02*
X129618132Y-59540495D01*
X129618132Y-59540495D02*
X129752819Y-59675182D01*
X105686593Y-55427585D02*
X104932346Y-55804709D01*
X104932346Y-55804709D02*
X105309470Y-55050462D01*
X104662972Y-54942712D02*
X104555223Y-54888838D01*
X104555223Y-54888838D02*
X104501348Y-54888838D01*
X104501348Y-54888838D02*
X104420536Y-54915775D01*
X104420536Y-54915775D02*
X104339723Y-54996587D01*
X104339723Y-54996587D02*
X104312786Y-55077399D01*
X104312786Y-55077399D02*
X104312786Y-55131274D01*
X104312786Y-55131274D02*
X104339723Y-55212086D01*
X104339723Y-55212086D02*
X104555223Y-55427586D01*
X104555223Y-55427586D02*
X105120908Y-54861900D01*
X105120908Y-54861900D02*
X104932346Y-54673338D01*
X104932346Y-54673338D02*
X104851534Y-54646401D01*
X104851534Y-54646401D02*
X104797659Y-54646401D01*
X104797659Y-54646401D02*
X104716847Y-54673338D01*
X104716847Y-54673338D02*
X104662972Y-54727213D01*
X104662972Y-54727213D02*
X104636035Y-54808025D01*
X104636035Y-54808025D02*
X104636035Y-54861900D01*
X104636035Y-54861900D02*
X104662972Y-54942712D01*
X104662972Y-54942712D02*
X104851534Y-55131274D01*
X104555223Y-54296215D02*
X104097287Y-54754151D01*
X104097287Y-54754151D02*
X104016475Y-54781088D01*
X104016475Y-54781088D02*
X103962600Y-54781088D01*
X103962600Y-54781088D02*
X103881788Y-54754151D01*
X103881788Y-54754151D02*
X103774038Y-54646401D01*
X103774038Y-54646401D02*
X103747101Y-54565589D01*
X103747101Y-54565589D02*
X103747101Y-54511714D01*
X103747101Y-54511714D02*
X103774038Y-54430902D01*
X103774038Y-54430902D02*
X104231974Y-53972966D01*
X103450789Y-54269277D02*
X103343040Y-54215403D01*
X103343040Y-54215403D02*
X103208353Y-54080716D01*
X103208353Y-54080716D02*
X103181415Y-53999903D01*
X103181415Y-53999903D02*
X103181415Y-53946029D01*
X103181415Y-53946029D02*
X103208353Y-53865216D01*
X103208353Y-53865216D02*
X103262228Y-53811342D01*
X103262228Y-53811342D02*
X103343040Y-53784404D01*
X103343040Y-53784404D02*
X103396915Y-53784404D01*
X103396915Y-53784404D02*
X103477727Y-53811342D01*
X103477727Y-53811342D02*
X103612414Y-53892154D01*
X103612414Y-53892154D02*
X103693226Y-53919091D01*
X103693226Y-53919091D02*
X103747101Y-53919091D01*
X103747101Y-53919091D02*
X103827913Y-53892154D01*
X103827913Y-53892154D02*
X103881788Y-53838279D01*
X103881788Y-53838279D02*
X103908725Y-53757467D01*
X103908725Y-53757467D02*
X103908725Y-53703592D01*
X103908725Y-53703592D02*
X103881788Y-53622780D01*
X103881788Y-53622780D02*
X103747101Y-53488093D01*
X103747101Y-53488093D02*
X103639351Y-53434218D01*
X105542001Y-83100868D02*
X105622814Y-83127805D01*
X105622814Y-83127805D02*
X105703626Y-83208618D01*
X105703626Y-83208618D02*
X105757501Y-83316367D01*
X105757501Y-83316367D02*
X105757501Y-83424117D01*
X105757501Y-83424117D02*
X105730563Y-83504929D01*
X105730563Y-83504929D02*
X105649751Y-83639616D01*
X105649751Y-83639616D02*
X105568939Y-83720428D01*
X105568939Y-83720428D02*
X105434252Y-83801241D01*
X105434252Y-83801241D02*
X105353439Y-83828178D01*
X105353439Y-83828178D02*
X105245690Y-83828178D01*
X105245690Y-83828178D02*
X105137940Y-83774303D01*
X105137940Y-83774303D02*
X105084065Y-83720428D01*
X105084065Y-83720428D02*
X105030191Y-83612679D01*
X105030191Y-83612679D02*
X105030191Y-83558804D01*
X105030191Y-83558804D02*
X105218752Y-83370242D01*
X105218752Y-83370242D02*
X105326502Y-83477992D01*
X104733879Y-83370242D02*
X105299565Y-82804557D01*
X105299565Y-82804557D02*
X105084065Y-82589057D01*
X105084065Y-82589057D02*
X105003253Y-82562120D01*
X105003253Y-82562120D02*
X104949378Y-82562120D01*
X104949378Y-82562120D02*
X104868566Y-82589057D01*
X104868566Y-82589057D02*
X104787754Y-82669870D01*
X104787754Y-82669870D02*
X104760817Y-82750682D01*
X104760817Y-82750682D02*
X104760817Y-82804557D01*
X104760817Y-82804557D02*
X104787754Y-82885369D01*
X104787754Y-82885369D02*
X105003253Y-83100868D01*
X104706942Y-82319683D02*
X104706942Y-82265809D01*
X104706942Y-82265809D02*
X104680004Y-82184996D01*
X104680004Y-82184996D02*
X104545317Y-82050309D01*
X104545317Y-82050309D02*
X104464505Y-82023372D01*
X104464505Y-82023372D02*
X104410630Y-82023372D01*
X104410630Y-82023372D02*
X104329818Y-82050309D01*
X104329818Y-82050309D02*
X104275943Y-82104184D01*
X104275943Y-82104184D02*
X104222069Y-82211934D01*
X104222069Y-82211934D02*
X104222069Y-82858431D01*
X104222069Y-82858431D02*
X103871882Y-82508245D01*
X104168194Y-81780935D02*
X104168194Y-81727060D01*
X104168194Y-81727060D02*
X104141256Y-81646248D01*
X104141256Y-81646248D02*
X104006569Y-81511561D01*
X104006569Y-81511561D02*
X103925757Y-81484624D01*
X103925757Y-81484624D02*
X103871882Y-81484624D01*
X103871882Y-81484624D02*
X103791070Y-81511561D01*
X103791070Y-81511561D02*
X103737195Y-81565436D01*
X103737195Y-81565436D02*
X103683320Y-81673186D01*
X103683320Y-81673186D02*
X103683320Y-82319683D01*
X103683320Y-82319683D02*
X103333134Y-81969497D01*
X131650001Y-88180868D02*
X131730814Y-88207805D01*
X131730814Y-88207805D02*
X131811626Y-88288618D01*
X131811626Y-88288618D02*
X131865501Y-88396367D01*
X131865501Y-88396367D02*
X131865501Y-88504117D01*
X131865501Y-88504117D02*
X131838563Y-88584929D01*
X131838563Y-88584929D02*
X131757751Y-88719616D01*
X131757751Y-88719616D02*
X131676939Y-88800428D01*
X131676939Y-88800428D02*
X131542252Y-88881241D01*
X131542252Y-88881241D02*
X131461439Y-88908178D01*
X131461439Y-88908178D02*
X131353690Y-88908178D01*
X131353690Y-88908178D02*
X131245940Y-88854303D01*
X131245940Y-88854303D02*
X131192065Y-88800428D01*
X131192065Y-88800428D02*
X131138191Y-88692679D01*
X131138191Y-88692679D02*
X131138191Y-88638804D01*
X131138191Y-88638804D02*
X131326752Y-88450242D01*
X131326752Y-88450242D02*
X131434502Y-88557992D01*
X130841879Y-88450242D02*
X131407565Y-87884557D01*
X131407565Y-87884557D02*
X131192065Y-87669057D01*
X131192065Y-87669057D02*
X131111253Y-87642120D01*
X131111253Y-87642120D02*
X131057378Y-87642120D01*
X131057378Y-87642120D02*
X130976566Y-87669057D01*
X130976566Y-87669057D02*
X130895754Y-87749870D01*
X130895754Y-87749870D02*
X130868817Y-87830682D01*
X130868817Y-87830682D02*
X130868817Y-87884557D01*
X130868817Y-87884557D02*
X130895754Y-87965369D01*
X130895754Y-87965369D02*
X131111253Y-88180868D01*
X129979882Y-87588245D02*
X130303131Y-87911494D01*
X130141507Y-87749870D02*
X130707192Y-87184184D01*
X130707192Y-87184184D02*
X130680255Y-87318871D01*
X130680255Y-87318871D02*
X130680255Y-87426621D01*
X130680255Y-87426621D02*
X130707192Y-87507433D01*
X130195381Y-86672373D02*
X130141507Y-86618499D01*
X130141507Y-86618499D02*
X130060694Y-86591561D01*
X130060694Y-86591561D02*
X130006820Y-86591561D01*
X130006820Y-86591561D02*
X129926007Y-86618499D01*
X129926007Y-86618499D02*
X129791320Y-86699311D01*
X129791320Y-86699311D02*
X129656633Y-86833998D01*
X129656633Y-86833998D02*
X129575821Y-86968685D01*
X129575821Y-86968685D02*
X129548884Y-87049497D01*
X129548884Y-87049497D02*
X129548884Y-87103372D01*
X129548884Y-87103372D02*
X129575821Y-87184184D01*
X129575821Y-87184184D02*
X129629696Y-87238059D01*
X129629696Y-87238059D02*
X129710508Y-87264996D01*
X129710508Y-87264996D02*
X129764383Y-87264996D01*
X129764383Y-87264996D02*
X129845195Y-87238059D01*
X129845195Y-87238059D02*
X129979882Y-87157247D01*
X129979882Y-87157247D02*
X130114569Y-87022560D01*
X130114569Y-87022560D02*
X130195381Y-86887873D01*
X130195381Y-86887873D02*
X130222319Y-86807060D01*
X130222319Y-86807060D02*
X130222319Y-86753186D01*
X130222319Y-86753186D02*
X130195381Y-86672373D01*
X131796001Y-90720868D02*
X131876814Y-90747805D01*
X131876814Y-90747805D02*
X131957626Y-90828618D01*
X131957626Y-90828618D02*
X132011501Y-90936367D01*
X132011501Y-90936367D02*
X132011501Y-91044117D01*
X132011501Y-91044117D02*
X131984563Y-91124929D01*
X131984563Y-91124929D02*
X131903751Y-91259616D01*
X131903751Y-91259616D02*
X131822939Y-91340428D01*
X131822939Y-91340428D02*
X131688252Y-91421241D01*
X131688252Y-91421241D02*
X131607439Y-91448178D01*
X131607439Y-91448178D02*
X131499690Y-91448178D01*
X131499690Y-91448178D02*
X131391940Y-91394303D01*
X131391940Y-91394303D02*
X131338065Y-91340428D01*
X131338065Y-91340428D02*
X131284191Y-91232679D01*
X131284191Y-91232679D02*
X131284191Y-91178804D01*
X131284191Y-91178804D02*
X131472752Y-90990242D01*
X131472752Y-90990242D02*
X131580502Y-91097992D01*
X130987879Y-90990242D02*
X131553565Y-90424557D01*
X131553565Y-90424557D02*
X131338065Y-90209057D01*
X131338065Y-90209057D02*
X131257253Y-90182120D01*
X131257253Y-90182120D02*
X131203378Y-90182120D01*
X131203378Y-90182120D02*
X131122566Y-90209057D01*
X131122566Y-90209057D02*
X131041754Y-90289870D01*
X131041754Y-90289870D02*
X131014817Y-90370682D01*
X131014817Y-90370682D02*
X131014817Y-90424557D01*
X131014817Y-90424557D02*
X131041754Y-90505369D01*
X131041754Y-90505369D02*
X131257253Y-90720868D01*
X130125882Y-90128245D02*
X130449131Y-90451494D01*
X130287507Y-90289870D02*
X130853192Y-89724184D01*
X130853192Y-89724184D02*
X130826255Y-89858871D01*
X130826255Y-89858871D02*
X130826255Y-89966621D01*
X130826255Y-89966621D02*
X130853192Y-90047433D01*
X129587134Y-89589497D02*
X129910383Y-89912746D01*
X129748759Y-89751121D02*
X130314444Y-89185436D01*
X130314444Y-89185436D02*
X130287507Y-89320123D01*
X130287507Y-89320123D02*
X130287507Y-89427873D01*
X130287507Y-89427873D02*
X130314444Y-89508685D01*
X131796001Y-93260868D02*
X131876814Y-93287805D01*
X131876814Y-93287805D02*
X131957626Y-93368618D01*
X131957626Y-93368618D02*
X132011501Y-93476367D01*
X132011501Y-93476367D02*
X132011501Y-93584117D01*
X132011501Y-93584117D02*
X131984563Y-93664929D01*
X131984563Y-93664929D02*
X131903751Y-93799616D01*
X131903751Y-93799616D02*
X131822939Y-93880428D01*
X131822939Y-93880428D02*
X131688252Y-93961241D01*
X131688252Y-93961241D02*
X131607439Y-93988178D01*
X131607439Y-93988178D02*
X131499690Y-93988178D01*
X131499690Y-93988178D02*
X131391940Y-93934303D01*
X131391940Y-93934303D02*
X131338065Y-93880428D01*
X131338065Y-93880428D02*
X131284191Y-93772679D01*
X131284191Y-93772679D02*
X131284191Y-93718804D01*
X131284191Y-93718804D02*
X131472752Y-93530242D01*
X131472752Y-93530242D02*
X131580502Y-93637992D01*
X130987879Y-93530242D02*
X131553565Y-92964557D01*
X131553565Y-92964557D02*
X131338065Y-92749057D01*
X131338065Y-92749057D02*
X131257253Y-92722120D01*
X131257253Y-92722120D02*
X131203378Y-92722120D01*
X131203378Y-92722120D02*
X131122566Y-92749057D01*
X131122566Y-92749057D02*
X131041754Y-92829870D01*
X131041754Y-92829870D02*
X131014817Y-92910682D01*
X131014817Y-92910682D02*
X131014817Y-92964557D01*
X131014817Y-92964557D02*
X131041754Y-93045369D01*
X131041754Y-93045369D02*
X131257253Y-93260868D01*
X130125882Y-92668245D02*
X130449131Y-92991494D01*
X130287507Y-92829870D02*
X130853192Y-92264184D01*
X130853192Y-92264184D02*
X130826255Y-92398871D01*
X130826255Y-92398871D02*
X130826255Y-92506621D01*
X130826255Y-92506621D02*
X130853192Y-92587433D01*
X130422194Y-91940935D02*
X130422194Y-91887060D01*
X130422194Y-91887060D02*
X130395256Y-91806248D01*
X130395256Y-91806248D02*
X130260569Y-91671561D01*
X130260569Y-91671561D02*
X130179757Y-91644624D01*
X130179757Y-91644624D02*
X130125882Y-91644624D01*
X130125882Y-91644624D02*
X130045070Y-91671561D01*
X130045070Y-91671561D02*
X129991195Y-91725436D01*
X129991195Y-91725436D02*
X129937320Y-91833186D01*
X129937320Y-91833186D02*
X129937320Y-92479683D01*
X129937320Y-92479683D02*
X129587134Y-92129497D01*
X105553564Y-98098431D02*
X105634376Y-98125368D01*
X105634376Y-98125368D02*
X105715188Y-98206180D01*
X105715188Y-98206180D02*
X105769063Y-98313930D01*
X105769063Y-98313930D02*
X105769063Y-98421680D01*
X105769063Y-98421680D02*
X105742126Y-98502492D01*
X105742126Y-98502492D02*
X105661314Y-98637179D01*
X105661314Y-98637179D02*
X105580501Y-98717991D01*
X105580501Y-98717991D02*
X105445814Y-98798803D01*
X105445814Y-98798803D02*
X105365002Y-98825741D01*
X105365002Y-98825741D02*
X105257253Y-98825741D01*
X105257253Y-98825741D02*
X105149503Y-98771866D01*
X105149503Y-98771866D02*
X105095628Y-98717991D01*
X105095628Y-98717991D02*
X105041753Y-98610241D01*
X105041753Y-98610241D02*
X105041753Y-98556367D01*
X105041753Y-98556367D02*
X105230315Y-98367805D01*
X105230315Y-98367805D02*
X105338065Y-98475554D01*
X104745442Y-98367805D02*
X105311127Y-97802119D01*
X105311127Y-97802119D02*
X104422193Y-98044556D01*
X104422193Y-98044556D02*
X104987879Y-97478871D01*
X104152819Y-97775182D02*
X104718505Y-97209497D01*
X104718505Y-97209497D02*
X104583818Y-97074810D01*
X104583818Y-97074810D02*
X104476068Y-97020935D01*
X104476068Y-97020935D02*
X104368319Y-97020935D01*
X104368319Y-97020935D02*
X104287506Y-97047872D01*
X104287506Y-97047872D02*
X104152819Y-97128685D01*
X104152819Y-97128685D02*
X104072007Y-97209497D01*
X104072007Y-97209497D02*
X103991195Y-97344184D01*
X103991195Y-97344184D02*
X103964258Y-97424996D01*
X103964258Y-97424996D02*
X103964258Y-97532746D01*
X103964258Y-97532746D02*
X104018132Y-97640495D01*
X104018132Y-97640495D02*
X104152819Y-97775182D01*
X105553564Y-59998431D02*
X105634376Y-60025368D01*
X105634376Y-60025368D02*
X105715188Y-60106180D01*
X105715188Y-60106180D02*
X105769063Y-60213930D01*
X105769063Y-60213930D02*
X105769063Y-60321680D01*
X105769063Y-60321680D02*
X105742126Y-60402492D01*
X105742126Y-60402492D02*
X105661314Y-60537179D01*
X105661314Y-60537179D02*
X105580501Y-60617991D01*
X105580501Y-60617991D02*
X105445814Y-60698803D01*
X105445814Y-60698803D02*
X105365002Y-60725741D01*
X105365002Y-60725741D02*
X105257253Y-60725741D01*
X105257253Y-60725741D02*
X105149503Y-60671866D01*
X105149503Y-60671866D02*
X105095628Y-60617991D01*
X105095628Y-60617991D02*
X105041753Y-60510241D01*
X105041753Y-60510241D02*
X105041753Y-60456367D01*
X105041753Y-60456367D02*
X105230315Y-60267805D01*
X105230315Y-60267805D02*
X105338065Y-60375554D01*
X104745442Y-60267805D02*
X105311127Y-59702119D01*
X105311127Y-59702119D02*
X104422193Y-59944556D01*
X104422193Y-59944556D02*
X104987879Y-59378871D01*
X104152819Y-59675182D02*
X104718505Y-59109497D01*
X104718505Y-59109497D02*
X104583818Y-58974810D01*
X104583818Y-58974810D02*
X104476068Y-58920935D01*
X104476068Y-58920935D02*
X104368319Y-58920935D01*
X104368319Y-58920935D02*
X104287506Y-58947872D01*
X104287506Y-58947872D02*
X104152819Y-59028685D01*
X104152819Y-59028685D02*
X104072007Y-59109497D01*
X104072007Y-59109497D02*
X103991195Y-59244184D01*
X103991195Y-59244184D02*
X103964258Y-59324996D01*
X103964258Y-59324996D02*
X103964258Y-59432746D01*
X103964258Y-59432746D02*
X104018132Y-59540495D01*
X104018132Y-59540495D02*
X104152819Y-59675182D01*
X131153564Y-72698431D02*
X131234376Y-72725368D01*
X131234376Y-72725368D02*
X131315188Y-72806180D01*
X131315188Y-72806180D02*
X131369063Y-72913930D01*
X131369063Y-72913930D02*
X131369063Y-73021680D01*
X131369063Y-73021680D02*
X131342126Y-73102492D01*
X131342126Y-73102492D02*
X131261314Y-73237179D01*
X131261314Y-73237179D02*
X131180501Y-73317991D01*
X131180501Y-73317991D02*
X131045814Y-73398803D01*
X131045814Y-73398803D02*
X130965002Y-73425741D01*
X130965002Y-73425741D02*
X130857253Y-73425741D01*
X130857253Y-73425741D02*
X130749503Y-73371866D01*
X130749503Y-73371866D02*
X130695628Y-73317991D01*
X130695628Y-73317991D02*
X130641753Y-73210241D01*
X130641753Y-73210241D02*
X130641753Y-73156367D01*
X130641753Y-73156367D02*
X130830315Y-72967805D01*
X130830315Y-72967805D02*
X130938065Y-73075554D01*
X130345442Y-72967805D02*
X130911127Y-72402119D01*
X130911127Y-72402119D02*
X130022193Y-72644556D01*
X130022193Y-72644556D02*
X130587879Y-72078871D01*
X129752819Y-72375182D02*
X130318505Y-71809497D01*
X130318505Y-71809497D02*
X130183818Y-71674810D01*
X130183818Y-71674810D02*
X130076068Y-71620935D01*
X130076068Y-71620935D02*
X129968319Y-71620935D01*
X129968319Y-71620935D02*
X129887506Y-71647872D01*
X129887506Y-71647872D02*
X129752819Y-71728685D01*
X129752819Y-71728685D02*
X129672007Y-71809497D01*
X129672007Y-71809497D02*
X129591195Y-71944184D01*
X129591195Y-71944184D02*
X129564258Y-72024996D01*
X129564258Y-72024996D02*
X129564258Y-72132746D01*
X129564258Y-72132746D02*
X129618132Y-72240495D01*
X129618132Y-72240495D02*
X129752819Y-72375182D01*
X105749876Y-65390868D02*
X105399690Y-65040682D01*
X105399690Y-65040682D02*
X105372752Y-65444743D01*
X105372752Y-65444743D02*
X105291940Y-65363931D01*
X105291940Y-65363931D02*
X105211128Y-65336993D01*
X105211128Y-65336993D02*
X105157253Y-65336993D01*
X105157253Y-65336993D02*
X105076441Y-65363931D01*
X105076441Y-65363931D02*
X104941754Y-65498618D01*
X104941754Y-65498618D02*
X104914817Y-65579430D01*
X104914817Y-65579430D02*
X104914817Y-65633305D01*
X104914817Y-65633305D02*
X104941754Y-65714117D01*
X104941754Y-65714117D02*
X105103378Y-65875741D01*
X105103378Y-65875741D02*
X105184191Y-65902679D01*
X105184191Y-65902679D02*
X105238065Y-65902679D01*
X105238065Y-64879057D02*
X104483818Y-65256181D01*
X104483818Y-65256181D02*
X104860942Y-64501934D01*
X104726255Y-64367247D02*
X104376069Y-64017061D01*
X104376069Y-64017061D02*
X104349131Y-64421122D01*
X104349131Y-64421122D02*
X104268319Y-64340309D01*
X104268319Y-64340309D02*
X104187507Y-64313372D01*
X104187507Y-64313372D02*
X104133632Y-64313372D01*
X104133632Y-64313372D02*
X104052820Y-64340309D01*
X104052820Y-64340309D02*
X103918133Y-64474996D01*
X103918133Y-64474996D02*
X103891195Y-64555809D01*
X103891195Y-64555809D02*
X103891195Y-64609683D01*
X103891195Y-64609683D02*
X103918133Y-64690496D01*
X103918133Y-64690496D02*
X104079757Y-64852120D01*
X104079757Y-64852120D02*
X104160569Y-64879057D01*
X104160569Y-64879057D02*
X104214444Y-64879057D01*
X105719250Y-57970242D02*
X104965003Y-58347366D01*
X104965003Y-58347366D02*
X105342126Y-57593118D01*
X104641754Y-57970242D02*
X104534004Y-57916367D01*
X104534004Y-57916367D02*
X104399317Y-57781680D01*
X104399317Y-57781680D02*
X104372380Y-57700868D01*
X104372380Y-57700868D02*
X104372380Y-57646993D01*
X104372380Y-57646993D02*
X104399317Y-57566181D01*
X104399317Y-57566181D02*
X104453192Y-57512306D01*
X104453192Y-57512306D02*
X104534004Y-57485369D01*
X104534004Y-57485369D02*
X104587879Y-57485369D01*
X104587879Y-57485369D02*
X104668691Y-57512306D01*
X104668691Y-57512306D02*
X104803378Y-57593118D01*
X104803378Y-57593118D02*
X104884191Y-57620056D01*
X104884191Y-57620056D02*
X104938065Y-57620056D01*
X104938065Y-57620056D02*
X105018878Y-57593118D01*
X105018878Y-57593118D02*
X105072752Y-57539244D01*
X105072752Y-57539244D02*
X105099690Y-57458431D01*
X105099690Y-57458431D02*
X105099690Y-57404557D01*
X105099690Y-57404557D02*
X105072752Y-57323744D01*
X105072752Y-57323744D02*
X104938065Y-57189057D01*
X104938065Y-57189057D02*
X104830316Y-57135183D01*
X104210755Y-57054370D02*
X103941381Y-57323744D01*
X104695629Y-56946621D02*
X104210755Y-57054370D01*
X104210755Y-57054370D02*
X104318505Y-56569497D01*
X103618133Y-56946621D02*
X103510383Y-56892746D01*
X103510383Y-56892746D02*
X103375696Y-56758059D01*
X103375696Y-56758059D02*
X103348759Y-56677247D01*
X103348759Y-56677247D02*
X103348759Y-56623372D01*
X103348759Y-56623372D02*
X103375696Y-56542560D01*
X103375696Y-56542560D02*
X103429571Y-56488685D01*
X103429571Y-56488685D02*
X103510383Y-56461748D01*
X103510383Y-56461748D02*
X103564258Y-56461748D01*
X103564258Y-56461748D02*
X103645070Y-56488685D01*
X103645070Y-56488685D02*
X103779757Y-56569497D01*
X103779757Y-56569497D02*
X103860569Y-56596435D01*
X103860569Y-56596435D02*
X103914444Y-56596435D01*
X103914444Y-56596435D02*
X103995256Y-56569497D01*
X103995256Y-56569497D02*
X104049131Y-56515622D01*
X104049131Y-56515622D02*
X104076069Y-56434810D01*
X104076069Y-56434810D02*
X104076069Y-56380935D01*
X104076069Y-56380935D02*
X104049131Y-56300123D01*
X104049131Y-56300123D02*
X103914444Y-56165436D01*
X103914444Y-56165436D02*
X103806695Y-56111561D01*
X105488126Y-73641240D02*
X105218752Y-73371866D01*
X105380376Y-73856739D02*
X105757500Y-73102492D01*
X105757500Y-73102492D02*
X105003253Y-73479615D01*
X105057128Y-72455994D02*
X105137940Y-72482932D01*
X105137940Y-72482932D02*
X105218752Y-72563744D01*
X105218752Y-72563744D02*
X105272627Y-72671494D01*
X105272627Y-72671494D02*
X105272627Y-72779243D01*
X105272627Y-72779243D02*
X105245689Y-72860055D01*
X105245689Y-72860055D02*
X105164877Y-72994742D01*
X105164877Y-72994742D02*
X105084065Y-73075555D01*
X105084065Y-73075555D02*
X104949378Y-73156367D01*
X104949378Y-73156367D02*
X104868566Y-73183304D01*
X104868566Y-73183304D02*
X104760816Y-73183304D01*
X104760816Y-73183304D02*
X104653067Y-73129429D01*
X104653067Y-73129429D02*
X104599192Y-73075555D01*
X104599192Y-73075555D02*
X104545317Y-72967805D01*
X104545317Y-72967805D02*
X104545317Y-72913930D01*
X104545317Y-72913930D02*
X104733879Y-72725368D01*
X104733879Y-72725368D02*
X104841628Y-72833118D01*
X104249006Y-72725368D02*
X104814691Y-72159683D01*
X104814691Y-72159683D02*
X103925757Y-72402120D01*
X103925757Y-72402120D02*
X104491442Y-71836434D01*
X103656383Y-72132746D02*
X104222068Y-71567060D01*
X104222068Y-71567060D02*
X104087381Y-71432373D01*
X104087381Y-71432373D02*
X103979632Y-71378498D01*
X103979632Y-71378498D02*
X103871882Y-71378498D01*
X103871882Y-71378498D02*
X103791070Y-71405436D01*
X103791070Y-71405436D02*
X103656383Y-71486248D01*
X103656383Y-71486248D02*
X103575571Y-71567060D01*
X103575571Y-71567060D02*
X103494758Y-71701747D01*
X103494758Y-71701747D02*
X103467821Y-71782560D01*
X103467821Y-71782560D02*
X103467821Y-71890309D01*
X103467821Y-71890309D02*
X103521696Y-71998059D01*
X103521696Y-71998059D02*
X103656383Y-72132746D01*
X105542001Y-70146868D02*
X105622814Y-70173805D01*
X105622814Y-70173805D02*
X105703626Y-70254618D01*
X105703626Y-70254618D02*
X105757501Y-70362367D01*
X105757501Y-70362367D02*
X105757501Y-70470117D01*
X105757501Y-70470117D02*
X105730563Y-70550929D01*
X105730563Y-70550929D02*
X105649751Y-70685616D01*
X105649751Y-70685616D02*
X105568939Y-70766428D01*
X105568939Y-70766428D02*
X105434252Y-70847241D01*
X105434252Y-70847241D02*
X105353439Y-70874178D01*
X105353439Y-70874178D02*
X105245690Y-70874178D01*
X105245690Y-70874178D02*
X105137940Y-70820303D01*
X105137940Y-70820303D02*
X105084065Y-70766428D01*
X105084065Y-70766428D02*
X105030191Y-70658679D01*
X105030191Y-70658679D02*
X105030191Y-70604804D01*
X105030191Y-70604804D02*
X105218752Y-70416242D01*
X105218752Y-70416242D02*
X105326502Y-70523992D01*
X104733879Y-70416242D02*
X105299565Y-69850557D01*
X105299565Y-69850557D02*
X105084065Y-69635057D01*
X105084065Y-69635057D02*
X105003253Y-69608120D01*
X105003253Y-69608120D02*
X104949378Y-69608120D01*
X104949378Y-69608120D02*
X104868566Y-69635057D01*
X104868566Y-69635057D02*
X104787754Y-69715870D01*
X104787754Y-69715870D02*
X104760817Y-69796682D01*
X104760817Y-69796682D02*
X104760817Y-69850557D01*
X104760817Y-69850557D02*
X104787754Y-69931369D01*
X104787754Y-69931369D02*
X105003253Y-70146868D01*
X104706942Y-69365683D02*
X104706942Y-69311809D01*
X104706942Y-69311809D02*
X104680004Y-69230996D01*
X104680004Y-69230996D02*
X104545317Y-69096309D01*
X104545317Y-69096309D02*
X104464505Y-69069372D01*
X104464505Y-69069372D02*
X104410630Y-69069372D01*
X104410630Y-69069372D02*
X104329818Y-69096309D01*
X104329818Y-69096309D02*
X104275943Y-69150184D01*
X104275943Y-69150184D02*
X104222069Y-69257934D01*
X104222069Y-69257934D02*
X104222069Y-69904431D01*
X104222069Y-69904431D02*
X103871882Y-69554245D01*
X103871882Y-68907747D02*
X103952694Y-68934685D01*
X103952694Y-68934685D02*
X104006569Y-68934685D01*
X104006569Y-68934685D02*
X104087381Y-68907747D01*
X104087381Y-68907747D02*
X104114319Y-68880810D01*
X104114319Y-68880810D02*
X104141256Y-68799998D01*
X104141256Y-68799998D02*
X104141256Y-68746123D01*
X104141256Y-68746123D02*
X104114319Y-68665311D01*
X104114319Y-68665311D02*
X104006569Y-68557561D01*
X104006569Y-68557561D02*
X103925757Y-68530624D01*
X103925757Y-68530624D02*
X103871882Y-68530624D01*
X103871882Y-68530624D02*
X103791070Y-68557561D01*
X103791070Y-68557561D02*
X103764133Y-68584499D01*
X103764133Y-68584499D02*
X103737195Y-68665311D01*
X103737195Y-68665311D02*
X103737195Y-68719186D01*
X103737195Y-68719186D02*
X103764133Y-68799998D01*
X103764133Y-68799998D02*
X103871882Y-68907747D01*
X103871882Y-68907747D02*
X103898820Y-68988560D01*
X103898820Y-68988560D02*
X103898820Y-69042434D01*
X103898820Y-69042434D02*
X103871882Y-69123247D01*
X103871882Y-69123247D02*
X103764133Y-69230996D01*
X103764133Y-69230996D02*
X103683320Y-69257934D01*
X103683320Y-69257934D02*
X103629446Y-69257934D01*
X103629446Y-69257934D02*
X103548633Y-69230996D01*
X103548633Y-69230996D02*
X103440884Y-69123247D01*
X103440884Y-69123247D02*
X103413946Y-69042434D01*
X103413946Y-69042434D02*
X103413946Y-68988560D01*
X103413946Y-68988560D02*
X103440884Y-68907747D01*
X103440884Y-68907747D02*
X103548633Y-68799998D01*
X103548633Y-68799998D02*
X103629446Y-68773060D01*
X103629446Y-68773060D02*
X103683320Y-68773060D01*
X103683320Y-68773060D02*
X103764133Y-68799998D01*
X131126627Y-82831494D02*
X131207439Y-82858431D01*
X131207439Y-82858431D02*
X131288251Y-82939243D01*
X131288251Y-82939243D02*
X131342126Y-83046993D01*
X131342126Y-83046993D02*
X131342126Y-83154742D01*
X131342126Y-83154742D02*
X131315189Y-83235555D01*
X131315189Y-83235555D02*
X131234376Y-83370242D01*
X131234376Y-83370242D02*
X131153564Y-83451054D01*
X131153564Y-83451054D02*
X131018877Y-83531866D01*
X131018877Y-83531866D02*
X130938065Y-83558803D01*
X130938065Y-83558803D02*
X130830315Y-83558803D01*
X130830315Y-83558803D02*
X130722566Y-83504929D01*
X130722566Y-83504929D02*
X130668691Y-83451054D01*
X130668691Y-83451054D02*
X130614816Y-83343304D01*
X130614816Y-83343304D02*
X130614816Y-83289429D01*
X130614816Y-83289429D02*
X130803378Y-83100868D01*
X130803378Y-83100868D02*
X130911128Y-83208617D01*
X130318505Y-83100868D02*
X130884190Y-82535182D01*
X130884190Y-82535182D02*
X130668691Y-82319683D01*
X130668691Y-82319683D02*
X130587879Y-82292746D01*
X130587879Y-82292746D02*
X130534004Y-82292746D01*
X130534004Y-82292746D02*
X130453192Y-82319683D01*
X130453192Y-82319683D02*
X130372380Y-82400495D01*
X130372380Y-82400495D02*
X130345442Y-82481307D01*
X130345442Y-82481307D02*
X130345442Y-82535182D01*
X130345442Y-82535182D02*
X130372380Y-82615994D01*
X130372380Y-82615994D02*
X130587879Y-82831494D01*
X129725882Y-82508245D02*
X129618132Y-82400495D01*
X129618132Y-82400495D02*
X129591195Y-82319683D01*
X129591195Y-82319683D02*
X129591195Y-82265808D01*
X129591195Y-82265808D02*
X129618132Y-82131121D01*
X129618132Y-82131121D02*
X129698945Y-81996434D01*
X129698945Y-81996434D02*
X129914444Y-81780935D01*
X129914444Y-81780935D02*
X129995256Y-81753998D01*
X129995256Y-81753998D02*
X130049131Y-81753998D01*
X130049131Y-81753998D02*
X130129943Y-81780935D01*
X130129943Y-81780935D02*
X130237693Y-81888685D01*
X130237693Y-81888685D02*
X130264630Y-81969497D01*
X130264630Y-81969497D02*
X130264630Y-82023372D01*
X130264630Y-82023372D02*
X130237693Y-82104184D01*
X130237693Y-82104184D02*
X130103006Y-82238871D01*
X130103006Y-82238871D02*
X130022193Y-82265808D01*
X130022193Y-82265808D02*
X129968319Y-82265808D01*
X129968319Y-82265808D02*
X129887506Y-82238871D01*
X129887506Y-82238871D02*
X129779757Y-82131121D01*
X129779757Y-82131121D02*
X129752819Y-82050309D01*
X129752819Y-82050309D02*
X129752819Y-81996434D01*
X129752819Y-81996434D02*
X129779757Y-81915622D01*
X105542001Y-95800868D02*
X105622814Y-95827805D01*
X105622814Y-95827805D02*
X105703626Y-95908618D01*
X105703626Y-95908618D02*
X105757501Y-96016367D01*
X105757501Y-96016367D02*
X105757501Y-96124117D01*
X105757501Y-96124117D02*
X105730563Y-96204929D01*
X105730563Y-96204929D02*
X105649751Y-96339616D01*
X105649751Y-96339616D02*
X105568939Y-96420428D01*
X105568939Y-96420428D02*
X105434252Y-96501241D01*
X105434252Y-96501241D02*
X105353439Y-96528178D01*
X105353439Y-96528178D02*
X105245690Y-96528178D01*
X105245690Y-96528178D02*
X105137940Y-96474303D01*
X105137940Y-96474303D02*
X105084065Y-96420428D01*
X105084065Y-96420428D02*
X105030191Y-96312679D01*
X105030191Y-96312679D02*
X105030191Y-96258804D01*
X105030191Y-96258804D02*
X105218752Y-96070242D01*
X105218752Y-96070242D02*
X105326502Y-96177992D01*
X104733879Y-96070242D02*
X105299565Y-95504557D01*
X105299565Y-95504557D02*
X105084065Y-95289057D01*
X105084065Y-95289057D02*
X105003253Y-95262120D01*
X105003253Y-95262120D02*
X104949378Y-95262120D01*
X104949378Y-95262120D02*
X104868566Y-95289057D01*
X104868566Y-95289057D02*
X104787754Y-95369870D01*
X104787754Y-95369870D02*
X104760817Y-95450682D01*
X104760817Y-95450682D02*
X104760817Y-95504557D01*
X104760817Y-95504557D02*
X104787754Y-95585369D01*
X104787754Y-95585369D02*
X105003253Y-95800868D01*
X103871882Y-95208245D02*
X104195131Y-95531494D01*
X104033507Y-95369870D02*
X104599192Y-94804184D01*
X104599192Y-94804184D02*
X104572255Y-94938871D01*
X104572255Y-94938871D02*
X104572255Y-95046621D01*
X104572255Y-95046621D02*
X104599192Y-95127433D01*
X103871882Y-94561747D02*
X103952694Y-94588685D01*
X103952694Y-94588685D02*
X104006569Y-94588685D01*
X104006569Y-94588685D02*
X104087381Y-94561747D01*
X104087381Y-94561747D02*
X104114319Y-94534810D01*
X104114319Y-94534810D02*
X104141256Y-94453998D01*
X104141256Y-94453998D02*
X104141256Y-94400123D01*
X104141256Y-94400123D02*
X104114319Y-94319311D01*
X104114319Y-94319311D02*
X104006569Y-94211561D01*
X104006569Y-94211561D02*
X103925757Y-94184624D01*
X103925757Y-94184624D02*
X103871882Y-94184624D01*
X103871882Y-94184624D02*
X103791070Y-94211561D01*
X103791070Y-94211561D02*
X103764133Y-94238499D01*
X103764133Y-94238499D02*
X103737195Y-94319311D01*
X103737195Y-94319311D02*
X103737195Y-94373186D01*
X103737195Y-94373186D02*
X103764133Y-94453998D01*
X103764133Y-94453998D02*
X103871882Y-94561747D01*
X103871882Y-94561747D02*
X103898820Y-94642560D01*
X103898820Y-94642560D02*
X103898820Y-94696434D01*
X103898820Y-94696434D02*
X103871882Y-94777247D01*
X103871882Y-94777247D02*
X103764133Y-94884996D01*
X103764133Y-94884996D02*
X103683320Y-94911934D01*
X103683320Y-94911934D02*
X103629446Y-94911934D01*
X103629446Y-94911934D02*
X103548633Y-94884996D01*
X103548633Y-94884996D02*
X103440884Y-94777247D01*
X103440884Y-94777247D02*
X103413946Y-94696434D01*
X103413946Y-94696434D02*
X103413946Y-94642560D01*
X103413946Y-94642560D02*
X103440884Y-94561747D01*
X103440884Y-94561747D02*
X103548633Y-94453998D01*
X103548633Y-94453998D02*
X103629446Y-94427060D01*
X103629446Y-94427060D02*
X103683320Y-94427060D01*
X103683320Y-94427060D02*
X103764133Y-94453998D01*
X105553564Y-85398431D02*
X105634376Y-85425368D01*
X105634376Y-85425368D02*
X105715188Y-85506180D01*
X105715188Y-85506180D02*
X105769063Y-85613930D01*
X105769063Y-85613930D02*
X105769063Y-85721680D01*
X105769063Y-85721680D02*
X105742126Y-85802492D01*
X105742126Y-85802492D02*
X105661314Y-85937179D01*
X105661314Y-85937179D02*
X105580501Y-86017991D01*
X105580501Y-86017991D02*
X105445814Y-86098803D01*
X105445814Y-86098803D02*
X105365002Y-86125741D01*
X105365002Y-86125741D02*
X105257253Y-86125741D01*
X105257253Y-86125741D02*
X105149503Y-86071866D01*
X105149503Y-86071866D02*
X105095628Y-86017991D01*
X105095628Y-86017991D02*
X105041753Y-85910241D01*
X105041753Y-85910241D02*
X105041753Y-85856367D01*
X105041753Y-85856367D02*
X105230315Y-85667805D01*
X105230315Y-85667805D02*
X105338065Y-85775554D01*
X104745442Y-85667805D02*
X105311127Y-85102119D01*
X105311127Y-85102119D02*
X104422193Y-85344556D01*
X104422193Y-85344556D02*
X104987879Y-84778871D01*
X104152819Y-85075182D02*
X104718505Y-84509497D01*
X104718505Y-84509497D02*
X104583818Y-84374810D01*
X104583818Y-84374810D02*
X104476068Y-84320935D01*
X104476068Y-84320935D02*
X104368319Y-84320935D01*
X104368319Y-84320935D02*
X104287506Y-84347872D01*
X104287506Y-84347872D02*
X104152819Y-84428685D01*
X104152819Y-84428685D02*
X104072007Y-84509497D01*
X104072007Y-84509497D02*
X103991195Y-84644184D01*
X103991195Y-84644184D02*
X103964258Y-84724996D01*
X103964258Y-84724996D02*
X103964258Y-84832746D01*
X103964258Y-84832746D02*
X104018132Y-84940495D01*
X104018132Y-84940495D02*
X104152819Y-85075182D01*
X131226627Y-62511494D02*
X131307439Y-62538431D01*
X131307439Y-62538431D02*
X131388251Y-62619243D01*
X131388251Y-62619243D02*
X131442126Y-62726993D01*
X131442126Y-62726993D02*
X131442126Y-62834742D01*
X131442126Y-62834742D02*
X131415189Y-62915555D01*
X131415189Y-62915555D02*
X131334376Y-63050242D01*
X131334376Y-63050242D02*
X131253564Y-63131054D01*
X131253564Y-63131054D02*
X131118877Y-63211866D01*
X131118877Y-63211866D02*
X131038065Y-63238803D01*
X131038065Y-63238803D02*
X130930315Y-63238803D01*
X130930315Y-63238803D02*
X130822566Y-63184929D01*
X130822566Y-63184929D02*
X130768691Y-63131054D01*
X130768691Y-63131054D02*
X130714816Y-63023304D01*
X130714816Y-63023304D02*
X130714816Y-62969429D01*
X130714816Y-62969429D02*
X130903378Y-62780868D01*
X130903378Y-62780868D02*
X131011128Y-62888617D01*
X130418505Y-62780868D02*
X130984190Y-62215182D01*
X130984190Y-62215182D02*
X130768691Y-61999683D01*
X130768691Y-61999683D02*
X130687879Y-61972746D01*
X130687879Y-61972746D02*
X130634004Y-61972746D01*
X130634004Y-61972746D02*
X130553192Y-61999683D01*
X130553192Y-61999683D02*
X130472380Y-62080495D01*
X130472380Y-62080495D02*
X130445442Y-62161307D01*
X130445442Y-62161307D02*
X130445442Y-62215182D01*
X130445442Y-62215182D02*
X130472380Y-62295994D01*
X130472380Y-62295994D02*
X130687879Y-62511494D01*
X130391567Y-61730309D02*
X130391567Y-61676434D01*
X130391567Y-61676434D02*
X130364630Y-61595622D01*
X130364630Y-61595622D02*
X130229943Y-61460935D01*
X130229943Y-61460935D02*
X130149131Y-61433998D01*
X130149131Y-61433998D02*
X130095256Y-61433998D01*
X130095256Y-61433998D02*
X130014444Y-61460935D01*
X130014444Y-61460935D02*
X129960569Y-61514810D01*
X129960569Y-61514810D02*
X129906694Y-61622559D01*
X129906694Y-61622559D02*
X129906694Y-62269057D01*
X129906694Y-62269057D02*
X129556508Y-61918871D01*
X105717592Y-62858584D02*
X105367406Y-62508398D01*
X105367406Y-62508398D02*
X105340468Y-62912459D01*
X105340468Y-62912459D02*
X105259656Y-62831646D01*
X105259656Y-62831646D02*
X105178844Y-62804709D01*
X105178844Y-62804709D02*
X105124969Y-62804709D01*
X105124969Y-62804709D02*
X105044157Y-62831646D01*
X105044157Y-62831646D02*
X104909470Y-62966333D01*
X104909470Y-62966333D02*
X104882532Y-63047146D01*
X104882532Y-63047146D02*
X104882532Y-63101020D01*
X104882532Y-63101020D02*
X104909470Y-63181833D01*
X104909470Y-63181833D02*
X105071094Y-63343457D01*
X105071094Y-63343457D02*
X105151906Y-63370394D01*
X105151906Y-63370394D02*
X105205781Y-63370394D01*
X105205781Y-62346773D02*
X104451534Y-62723897D01*
X104451534Y-62723897D02*
X104828657Y-61969649D01*
X104693971Y-61834963D02*
X104343784Y-61484776D01*
X104343784Y-61484776D02*
X104316847Y-61888837D01*
X104316847Y-61888837D02*
X104236035Y-61808025D01*
X104236035Y-61808025D02*
X104155223Y-61781088D01*
X104155223Y-61781088D02*
X104101348Y-61781088D01*
X104101348Y-61781088D02*
X104020535Y-61808025D01*
X104020535Y-61808025D02*
X103885848Y-61942712D01*
X103885848Y-61942712D02*
X103858911Y-62023524D01*
X103858911Y-62023524D02*
X103858911Y-62077399D01*
X103858911Y-62077399D02*
X103885848Y-62158211D01*
X103885848Y-62158211D02*
X104047473Y-62319836D01*
X104047473Y-62319836D02*
X104128285Y-62346773D01*
X104128285Y-62346773D02*
X104182160Y-62346773D01*
X103616474Y-61996587D02*
X103185476Y-61565588D01*
X103400975Y-61080715D02*
X103212413Y-60892153D01*
X102835290Y-61107652D02*
X103104664Y-61377026D01*
X103104664Y-61377026D02*
X103670349Y-60811341D01*
X103670349Y-60811341D02*
X103400975Y-60541967D01*
X102592853Y-60865215D02*
X103158538Y-60299530D01*
X103158538Y-60299530D02*
X102269604Y-60541967D01*
X102269604Y-60541967D02*
X102835289Y-59976281D01*
X131126627Y-70131494D02*
X131207439Y-70158431D01*
X131207439Y-70158431D02*
X131288251Y-70239243D01*
X131288251Y-70239243D02*
X131342126Y-70346993D01*
X131342126Y-70346993D02*
X131342126Y-70454742D01*
X131342126Y-70454742D02*
X131315189Y-70535555D01*
X131315189Y-70535555D02*
X131234376Y-70670242D01*
X131234376Y-70670242D02*
X131153564Y-70751054D01*
X131153564Y-70751054D02*
X131018877Y-70831866D01*
X131018877Y-70831866D02*
X130938065Y-70858803D01*
X130938065Y-70858803D02*
X130830315Y-70858803D01*
X130830315Y-70858803D02*
X130722566Y-70804929D01*
X130722566Y-70804929D02*
X130668691Y-70751054D01*
X130668691Y-70751054D02*
X130614816Y-70643304D01*
X130614816Y-70643304D02*
X130614816Y-70589429D01*
X130614816Y-70589429D02*
X130803378Y-70400868D01*
X130803378Y-70400868D02*
X130911128Y-70508617D01*
X130318505Y-70400868D02*
X130884190Y-69835182D01*
X130884190Y-69835182D02*
X130668691Y-69619683D01*
X130668691Y-69619683D02*
X130587879Y-69592746D01*
X130587879Y-69592746D02*
X130534004Y-69592746D01*
X130534004Y-69592746D02*
X130453192Y-69619683D01*
X130453192Y-69619683D02*
X130372380Y-69700495D01*
X130372380Y-69700495D02*
X130345442Y-69781307D01*
X130345442Y-69781307D02*
X130345442Y-69835182D01*
X130345442Y-69835182D02*
X130372380Y-69915994D01*
X130372380Y-69915994D02*
X130587879Y-70131494D01*
X130049131Y-69000123D02*
X130318505Y-69269497D01*
X130318505Y-69269497D02*
X130076068Y-69565808D01*
X130076068Y-69565808D02*
X130076068Y-69511933D01*
X130076068Y-69511933D02*
X130049131Y-69431121D01*
X130049131Y-69431121D02*
X129914444Y-69296434D01*
X129914444Y-69296434D02*
X129833632Y-69269497D01*
X129833632Y-69269497D02*
X129779757Y-69269497D01*
X129779757Y-69269497D02*
X129698945Y-69296434D01*
X129698945Y-69296434D02*
X129564258Y-69431121D01*
X129564258Y-69431121D02*
X129537320Y-69511933D01*
X129537320Y-69511933D02*
X129537320Y-69565808D01*
X129537320Y-69565808D02*
X129564258Y-69646620D01*
X129564258Y-69646620D02*
X129698945Y-69781307D01*
X129698945Y-69781307D02*
X129779757Y-69808245D01*
X129779757Y-69808245D02*
X129833632Y-69808245D01*
X131126627Y-54891494D02*
X131207439Y-54918431D01*
X131207439Y-54918431D02*
X131288251Y-54999243D01*
X131288251Y-54999243D02*
X131342126Y-55106993D01*
X131342126Y-55106993D02*
X131342126Y-55214742D01*
X131342126Y-55214742D02*
X131315189Y-55295555D01*
X131315189Y-55295555D02*
X131234376Y-55430242D01*
X131234376Y-55430242D02*
X131153564Y-55511054D01*
X131153564Y-55511054D02*
X131018877Y-55591866D01*
X131018877Y-55591866D02*
X130938065Y-55618803D01*
X130938065Y-55618803D02*
X130830315Y-55618803D01*
X130830315Y-55618803D02*
X130722566Y-55564929D01*
X130722566Y-55564929D02*
X130668691Y-55511054D01*
X130668691Y-55511054D02*
X130614816Y-55403304D01*
X130614816Y-55403304D02*
X130614816Y-55349429D01*
X130614816Y-55349429D02*
X130803378Y-55160868D01*
X130803378Y-55160868D02*
X130911128Y-55268617D01*
X130318505Y-55160868D02*
X130884190Y-54595182D01*
X130884190Y-54595182D02*
X130668691Y-54379683D01*
X130668691Y-54379683D02*
X130587879Y-54352746D01*
X130587879Y-54352746D02*
X130534004Y-54352746D01*
X130534004Y-54352746D02*
X130453192Y-54379683D01*
X130453192Y-54379683D02*
X130372380Y-54460495D01*
X130372380Y-54460495D02*
X130345442Y-54541307D01*
X130345442Y-54541307D02*
X130345442Y-54595182D01*
X130345442Y-54595182D02*
X130372380Y-54675994D01*
X130372380Y-54675994D02*
X130587879Y-54891494D01*
X130210755Y-53921747D02*
X130156880Y-53867872D01*
X130156880Y-53867872D02*
X130076068Y-53840935D01*
X130076068Y-53840935D02*
X130022193Y-53840935D01*
X130022193Y-53840935D02*
X129941381Y-53867872D01*
X129941381Y-53867872D02*
X129806694Y-53948685D01*
X129806694Y-53948685D02*
X129672007Y-54083372D01*
X129672007Y-54083372D02*
X129591195Y-54218059D01*
X129591195Y-54218059D02*
X129564258Y-54298871D01*
X129564258Y-54298871D02*
X129564258Y-54352746D01*
X129564258Y-54352746D02*
X129591195Y-54433558D01*
X129591195Y-54433558D02*
X129645070Y-54487433D01*
X129645070Y-54487433D02*
X129725882Y-54514370D01*
X129725882Y-54514370D02*
X129779757Y-54514370D01*
X129779757Y-54514370D02*
X129860569Y-54487433D01*
X129860569Y-54487433D02*
X129995256Y-54406620D01*
X129995256Y-54406620D02*
X130129943Y-54271933D01*
X130129943Y-54271933D02*
X130210755Y-54137246D01*
X130210755Y-54137246D02*
X130237693Y-54056434D01*
X130237693Y-54056434D02*
X130237693Y-54002559D01*
X130237693Y-54002559D02*
X130210755Y-53921747D01*
D11*
X128140000Y-101600000D02*
X128140000Y-102000000D01*
X128140000Y-99000000D02*
X128140000Y-99400000D01*
X128140000Y-96500000D02*
X128140000Y-96900000D01*
X128140000Y-94000000D02*
X128140000Y-94400000D01*
X128140000Y-91400000D02*
X128140000Y-91800000D01*
X128140000Y-88900000D02*
X128140000Y-89300000D01*
X128140000Y-86300000D02*
X128140000Y-86700000D01*
X128140000Y-83800000D02*
X128140000Y-84200000D01*
X128140000Y-81200000D02*
X128140000Y-81600000D01*
X128140000Y-78700000D02*
X128140000Y-79100000D01*
X128140000Y-76200000D02*
X128140000Y-76600000D01*
X128140000Y-73600000D02*
X128140000Y-74000000D01*
X128140000Y-71100000D02*
X128140000Y-71500000D01*
X128140000Y-68500000D02*
X128140000Y-68900000D01*
X128140000Y-66000000D02*
X128140000Y-66400000D01*
X128140000Y-63500000D02*
X128140000Y-63900000D01*
X128140000Y-60900000D02*
X128140000Y-61300000D01*
X128140000Y-58400000D02*
X128140000Y-58800000D01*
X128140000Y-56067000D02*
X125133000Y-56067000D01*
X128140000Y-55800000D02*
X128140000Y-56200000D01*
X128140000Y-53400000D02*
X128140000Y-53700000D01*
X128140000Y-53400000D02*
X107140000Y-53400000D01*
X125133000Y-56067000D02*
X125133000Y-53400000D01*
X121340000Y-104400000D02*
X128140000Y-104400000D01*
X119140000Y-104400000D02*
X118740000Y-104400000D01*
X116540000Y-104400000D02*
X116140000Y-104400000D01*
X107140000Y-104400000D02*
X113940000Y-104400000D01*
X107140000Y-101600000D02*
X107140000Y-102000000D01*
X107140000Y-99000000D02*
X107140000Y-99400000D01*
X107140000Y-96500000D02*
X107140000Y-96900000D01*
X107140000Y-94000000D02*
X107140000Y-94400000D01*
X107140000Y-91400000D02*
X107140000Y-91800000D01*
X107140000Y-88900000D02*
X107140000Y-89300000D01*
X107140000Y-86300000D02*
X107140000Y-86700000D01*
X107140000Y-83800000D02*
X107140000Y-84200000D01*
X107140000Y-81200000D02*
X107140000Y-81600000D01*
X107140000Y-78700000D02*
X107140000Y-79100000D01*
X107140000Y-76200000D02*
X107140000Y-76600000D01*
X107140000Y-73600000D02*
X107140000Y-74000000D01*
X107140000Y-71100000D02*
X107140000Y-71500000D01*
X107140000Y-68500000D02*
X107140000Y-68900000D01*
X107140000Y-66000000D02*
X107140000Y-66400000D01*
X107140000Y-63500000D02*
X107140000Y-63900000D01*
X107140000Y-60900000D02*
X107140000Y-61300000D01*
X107140000Y-58400000D02*
X107140000Y-58800000D01*
X107140000Y-55800000D02*
X107140000Y-56200000D01*
X107140000Y-53400000D02*
X107140000Y-53700000D01*
%TD*%
M02*
