%TF.GenerationSoftware,KiCad,Pcbnew,7.0.5*%
%TF.CreationDate,2023-06-25T23:49:52-07:00*%
%TF.ProjectId,umfd,756d6664-2e6b-4696-9361-645f70636258,rev?*%
%TF.SameCoordinates,Original*%
%TF.FileFunction,Drillmap*%
%TF.FilePolarity,Positive*%
%FSLAX45Y45*%
G04 Gerber Fmt 4.5, Leading zero omitted, Abs format (unit mm)*
G04 Created by KiCad (PCBNEW 7.0.5) date 2023-06-25 23:49:52*
%MOMM*%
%LPD*%
G01*
G04 APERTURE LIST*
%ADD10C,0.100000*%
%ADD11C,0.200000*%
%ADD12C,0.102000*%
%ADD13C,0.110000*%
G04 APERTURE END LIST*
D10*
X15300000Y-4700000D02*
X15300000Y-11000000D01*
X8600000Y-4300000D02*
X14900000Y-4300000D01*
X8200000Y-11000000D02*
X8200000Y-4700000D01*
X14900000Y-11400000D02*
X8600000Y-11400000D01*
X8200000Y-11000000D02*
G75*
G03*
X8600000Y-11400000I400000J0D01*
G01*
X14900000Y-11400000D02*
G75*
G03*
X15300000Y-11000000I0J400000D01*
G01*
X15300000Y-4700000D02*
G75*
G03*
X14900000Y-4300000I-400000J0D01*
G01*
X8600000Y-4300000D02*
G75*
G03*
X8200000Y-4700000I0J-400000D01*
G01*
D11*
D12*
X10824000Y-5426000D02*
X10926000Y-5528000D01*
X10926000Y-5426000D02*
X10824000Y-5528000D01*
X10824000Y-5680000D02*
X10926000Y-5782000D01*
X10926000Y-5680000D02*
X10824000Y-5782000D01*
X10824000Y-5934000D02*
X10926000Y-6036000D01*
X10926000Y-5934000D02*
X10824000Y-6036000D01*
X10824000Y-6188000D02*
X10926000Y-6290000D01*
X10926000Y-6188000D02*
X10824000Y-6290000D01*
X10824000Y-6442000D02*
X10926000Y-6544000D01*
X10926000Y-6442000D02*
X10824000Y-6544000D01*
X10824000Y-6696000D02*
X10926000Y-6798000D01*
X10926000Y-6696000D02*
X10824000Y-6798000D01*
X10824000Y-6950000D02*
X10926000Y-7052000D01*
X10926000Y-6950000D02*
X10824000Y-7052000D01*
X10824000Y-7204000D02*
X10926000Y-7306000D01*
X10926000Y-7204000D02*
X10824000Y-7306000D01*
X10824000Y-7458000D02*
X10926000Y-7560000D01*
X10926000Y-7458000D02*
X10824000Y-7560000D01*
X10824000Y-7712000D02*
X10926000Y-7814000D01*
X10926000Y-7712000D02*
X10824000Y-7814000D01*
X10824000Y-7966000D02*
X10926000Y-8068000D01*
X10926000Y-7966000D02*
X10824000Y-8068000D01*
X10824000Y-8220000D02*
X10926000Y-8322000D01*
X10926000Y-8220000D02*
X10824000Y-8322000D01*
X10824000Y-8474000D02*
X10926000Y-8576000D01*
X10926000Y-8474000D02*
X10824000Y-8576000D01*
X10824000Y-8728000D02*
X10926000Y-8830000D01*
X10926000Y-8728000D02*
X10824000Y-8830000D01*
X10824000Y-8982000D02*
X10926000Y-9084000D01*
X10926000Y-8982000D02*
X10824000Y-9084000D01*
X10824000Y-9236000D02*
X10926000Y-9338000D01*
X10926000Y-9236000D02*
X10824000Y-9338000D01*
X10824000Y-9490000D02*
X10926000Y-9592000D01*
X10926000Y-9490000D02*
X10824000Y-9592000D01*
X10824000Y-9744000D02*
X10926000Y-9846000D01*
X10926000Y-9744000D02*
X10824000Y-9846000D01*
X10824000Y-9998000D02*
X10926000Y-10100000D01*
X10926000Y-9998000D02*
X10824000Y-10100000D01*
X10824000Y-10252000D02*
X10926000Y-10354000D01*
X10926000Y-10252000D02*
X10824000Y-10354000D01*
X12602000Y-5426000D02*
X12704000Y-5528000D01*
X12704000Y-5426000D02*
X12602000Y-5528000D01*
X12602000Y-5680000D02*
X12704000Y-5782000D01*
X12704000Y-5680000D02*
X12602000Y-5782000D01*
X12602000Y-5934000D02*
X12704000Y-6036000D01*
X12704000Y-5934000D02*
X12602000Y-6036000D01*
X12602000Y-6188000D02*
X12704000Y-6290000D01*
X12704000Y-6188000D02*
X12602000Y-6290000D01*
X12602000Y-6442000D02*
X12704000Y-6544000D01*
X12704000Y-6442000D02*
X12602000Y-6544000D01*
X12602000Y-6696000D02*
X12704000Y-6798000D01*
X12704000Y-6696000D02*
X12602000Y-6798000D01*
X12602000Y-6950000D02*
X12704000Y-7052000D01*
X12704000Y-6950000D02*
X12602000Y-7052000D01*
X12602000Y-7204000D02*
X12704000Y-7306000D01*
X12704000Y-7204000D02*
X12602000Y-7306000D01*
X12602000Y-7458000D02*
X12704000Y-7560000D01*
X12704000Y-7458000D02*
X12602000Y-7560000D01*
X12602000Y-7712000D02*
X12704000Y-7814000D01*
X12704000Y-7712000D02*
X12602000Y-7814000D01*
X12602000Y-7966000D02*
X12704000Y-8068000D01*
X12704000Y-7966000D02*
X12602000Y-8068000D01*
X12602000Y-8220000D02*
X12704000Y-8322000D01*
X12704000Y-8220000D02*
X12602000Y-8322000D01*
X12602000Y-8474000D02*
X12704000Y-8576000D01*
X12704000Y-8474000D02*
X12602000Y-8576000D01*
X12602000Y-8728000D02*
X12704000Y-8830000D01*
X12704000Y-8728000D02*
X12602000Y-8830000D01*
X12602000Y-8982000D02*
X12704000Y-9084000D01*
X12704000Y-8982000D02*
X12602000Y-9084000D01*
X12602000Y-9236000D02*
X12704000Y-9338000D01*
X12704000Y-9236000D02*
X12602000Y-9338000D01*
X12602000Y-9490000D02*
X12704000Y-9592000D01*
X12704000Y-9490000D02*
X12602000Y-9592000D01*
X12602000Y-9744000D02*
X12704000Y-9846000D01*
X12704000Y-9744000D02*
X12602000Y-9846000D01*
X12602000Y-9998000D02*
X12704000Y-10100000D01*
X12704000Y-9998000D02*
X12602000Y-10100000D01*
X12602000Y-10252000D02*
X12704000Y-10354000D01*
X12704000Y-10252000D02*
X12602000Y-10354000D01*
D13*
X8545500Y-5497000D02*
G75*
G03*
X8545500Y-5497000I-55000J0D01*
G01*
X8545500Y-6147000D02*
G75*
G03*
X8545500Y-6147000I-55000J0D01*
G01*
X8545500Y-6513000D02*
G75*
G03*
X8545500Y-6513000I-55000J0D01*
G01*
X8545500Y-7163000D02*
G75*
G03*
X8545500Y-7163000I-55000J0D01*
G01*
X8545500Y-7529000D02*
G75*
G03*
X8545500Y-7529000I-55000J0D01*
G01*
X8545500Y-8179000D02*
G75*
G03*
X8545500Y-8179000I-55000J0D01*
G01*
X8545500Y-8545000D02*
G75*
G03*
X8545500Y-8545000I-55000J0D01*
G01*
X8545500Y-9195000D02*
G75*
G03*
X8545500Y-9195000I-55000J0D01*
G01*
X8545500Y-9561000D02*
G75*
G03*
X8545500Y-9561000I-55000J0D01*
G01*
X8545500Y-10211000D02*
G75*
G03*
X8545500Y-10211000I-55000J0D01*
G01*
X8995500Y-5497000D02*
G75*
G03*
X8995500Y-5497000I-55000J0D01*
G01*
X8995500Y-6147000D02*
G75*
G03*
X8995500Y-6147000I-55000J0D01*
G01*
X8995500Y-6513000D02*
G75*
G03*
X8995500Y-6513000I-55000J0D01*
G01*
X8995500Y-7163000D02*
G75*
G03*
X8995500Y-7163000I-55000J0D01*
G01*
X8995500Y-7529000D02*
G75*
G03*
X8995500Y-7529000I-55000J0D01*
G01*
X8995500Y-8179000D02*
G75*
G03*
X8995500Y-8179000I-55000J0D01*
G01*
X8995500Y-8545000D02*
G75*
G03*
X8995500Y-8545000I-55000J0D01*
G01*
X8995500Y-9195000D02*
G75*
G03*
X8995500Y-9195000I-55000J0D01*
G01*
X8995500Y-9561000D02*
G75*
G03*
X8995500Y-9561000I-55000J0D01*
G01*
X8995500Y-10211000D02*
G75*
G03*
X8995500Y-10211000I-55000J0D01*
G01*
X9445500Y-4597000D02*
G75*
G03*
X9445500Y-4597000I-55000J0D01*
G01*
X9445500Y-5047000D02*
G75*
G03*
X9445500Y-5047000I-55000J0D01*
G01*
X9453000Y-10697000D02*
G75*
G03*
X9453000Y-10697000I-55000J0D01*
G01*
X9453000Y-11147000D02*
G75*
G03*
X9453000Y-11147000I-55000J0D01*
G01*
X10095500Y-4597000D02*
G75*
G03*
X10095500Y-4597000I-55000J0D01*
G01*
X10095500Y-5047000D02*
G75*
G03*
X10095500Y-5047000I-55000J0D01*
G01*
X10103000Y-10697000D02*
G75*
G03*
X10103000Y-10697000I-55000J0D01*
G01*
X10103000Y-11147000D02*
G75*
G03*
X10103000Y-11147000I-55000J0D01*
G01*
X10461500Y-4597000D02*
G75*
G03*
X10461500Y-4597000I-55000J0D01*
G01*
X10461500Y-5047000D02*
G75*
G03*
X10461500Y-5047000I-55000J0D01*
G01*
X10469000Y-10697000D02*
G75*
G03*
X10469000Y-10697000I-55000J0D01*
G01*
X10469000Y-11147000D02*
G75*
G03*
X10469000Y-11147000I-55000J0D01*
G01*
X11111500Y-4597000D02*
G75*
G03*
X11111500Y-4597000I-55000J0D01*
G01*
X11111500Y-5047000D02*
G75*
G03*
X11111500Y-5047000I-55000J0D01*
G01*
X11119000Y-10697000D02*
G75*
G03*
X11119000Y-10697000I-55000J0D01*
G01*
X11119000Y-11147000D02*
G75*
G03*
X11119000Y-11147000I-55000J0D01*
G01*
X11477500Y-4597000D02*
G75*
G03*
X11477500Y-4597000I-55000J0D01*
G01*
X11477500Y-5047000D02*
G75*
G03*
X11477500Y-5047000I-55000J0D01*
G01*
X11485000Y-10697000D02*
G75*
G03*
X11485000Y-10697000I-55000J0D01*
G01*
X11485000Y-11147000D02*
G75*
G03*
X11485000Y-11147000I-55000J0D01*
G01*
X12127500Y-4597000D02*
G75*
G03*
X12127500Y-4597000I-55000J0D01*
G01*
X12127500Y-5047000D02*
G75*
G03*
X12127500Y-5047000I-55000J0D01*
G01*
X12135000Y-10697000D02*
G75*
G03*
X12135000Y-10697000I-55000J0D01*
G01*
X12135000Y-11147000D02*
G75*
G03*
X12135000Y-11147000I-55000J0D01*
G01*
X12493500Y-4597000D02*
G75*
G03*
X12493500Y-4597000I-55000J0D01*
G01*
X12493500Y-5047000D02*
G75*
G03*
X12493500Y-5047000I-55000J0D01*
G01*
X12501000Y-10697000D02*
G75*
G03*
X12501000Y-10697000I-55000J0D01*
G01*
X12501000Y-11147000D02*
G75*
G03*
X12501000Y-11147000I-55000J0D01*
G01*
X13143500Y-4597000D02*
G75*
G03*
X13143500Y-4597000I-55000J0D01*
G01*
X13143500Y-5047000D02*
G75*
G03*
X13143500Y-5047000I-55000J0D01*
G01*
X13151000Y-10697000D02*
G75*
G03*
X13151000Y-10697000I-55000J0D01*
G01*
X13151000Y-11147000D02*
G75*
G03*
X13151000Y-11147000I-55000J0D01*
G01*
X13509500Y-4597000D02*
G75*
G03*
X13509500Y-4597000I-55000J0D01*
G01*
X13509500Y-5047000D02*
G75*
G03*
X13509500Y-5047000I-55000J0D01*
G01*
X13517000Y-10697000D02*
G75*
G03*
X13517000Y-10697000I-55000J0D01*
G01*
X13517000Y-11147000D02*
G75*
G03*
X13517000Y-11147000I-55000J0D01*
G01*
X14159500Y-4597000D02*
G75*
G03*
X14159500Y-4597000I-55000J0D01*
G01*
X14159500Y-5047000D02*
G75*
G03*
X14159500Y-5047000I-55000J0D01*
G01*
X14167000Y-10697000D02*
G75*
G03*
X14167000Y-10697000I-55000J0D01*
G01*
X14167000Y-11147000D02*
G75*
G03*
X14167000Y-11147000I-55000J0D01*
G01*
X14609000Y-5497000D02*
G75*
G03*
X14609000Y-5497000I-55000J0D01*
G01*
X14609000Y-6147000D02*
G75*
G03*
X14609000Y-6147000I-55000J0D01*
G01*
X14609000Y-6513000D02*
G75*
G03*
X14609000Y-6513000I-55000J0D01*
G01*
X14609000Y-7163000D02*
G75*
G03*
X14609000Y-7163000I-55000J0D01*
G01*
X14609000Y-7529000D02*
G75*
G03*
X14609000Y-7529000I-55000J0D01*
G01*
X14609000Y-8179000D02*
G75*
G03*
X14609000Y-8179000I-55000J0D01*
G01*
X14609000Y-8545000D02*
G75*
G03*
X14609000Y-8545000I-55000J0D01*
G01*
X14609000Y-9195000D02*
G75*
G03*
X14609000Y-9195000I-55000J0D01*
G01*
X14609000Y-9561000D02*
G75*
G03*
X14609000Y-9561000I-55000J0D01*
G01*
X14609000Y-10211000D02*
G75*
G03*
X14609000Y-10211000I-55000J0D01*
G01*
X15059000Y-5497000D02*
G75*
G03*
X15059000Y-5497000I-55000J0D01*
G01*
X15059000Y-6147000D02*
G75*
G03*
X15059000Y-6147000I-55000J0D01*
G01*
X15059000Y-6513000D02*
G75*
G03*
X15059000Y-6513000I-55000J0D01*
G01*
X15059000Y-7163000D02*
G75*
G03*
X15059000Y-7163000I-55000J0D01*
G01*
X15059000Y-7529000D02*
G75*
G03*
X15059000Y-7529000I-55000J0D01*
G01*
X15059000Y-8179000D02*
G75*
G03*
X15059000Y-8179000I-55000J0D01*
G01*
X15059000Y-8545000D02*
G75*
G03*
X15059000Y-8545000I-55000J0D01*
G01*
X15059000Y-9195000D02*
G75*
G03*
X15059000Y-9195000I-55000J0D01*
G01*
X15059000Y-9561000D02*
G75*
G03*
X15059000Y-9561000I-55000J0D01*
G01*
X15059000Y-10211000D02*
G75*
G03*
X15059000Y-10211000I-55000J0D01*
G01*
D11*
X8455777Y-11716484D02*
X8455777Y-11516484D01*
X8455777Y-11516484D02*
X8503396Y-11516484D01*
X8503396Y-11516484D02*
X8531967Y-11526008D01*
X8531967Y-11526008D02*
X8551015Y-11545055D01*
X8551015Y-11545055D02*
X8560539Y-11564103D01*
X8560539Y-11564103D02*
X8570063Y-11602198D01*
X8570063Y-11602198D02*
X8570063Y-11630769D01*
X8570063Y-11630769D02*
X8560539Y-11668865D01*
X8560539Y-11668865D02*
X8551015Y-11687912D01*
X8551015Y-11687912D02*
X8531967Y-11706960D01*
X8531967Y-11706960D02*
X8503396Y-11716484D01*
X8503396Y-11716484D02*
X8455777Y-11716484D01*
X8655777Y-11716484D02*
X8655777Y-11583150D01*
X8655777Y-11621246D02*
X8665301Y-11602198D01*
X8665301Y-11602198D02*
X8674824Y-11592674D01*
X8674824Y-11592674D02*
X8693872Y-11583150D01*
X8693872Y-11583150D02*
X8712920Y-11583150D01*
X8779586Y-11716484D02*
X8779586Y-11583150D01*
X8779586Y-11516484D02*
X8770063Y-11526008D01*
X8770063Y-11526008D02*
X8779586Y-11535531D01*
X8779586Y-11535531D02*
X8789110Y-11526008D01*
X8789110Y-11526008D02*
X8779586Y-11516484D01*
X8779586Y-11516484D02*
X8779586Y-11535531D01*
X8903396Y-11716484D02*
X8884348Y-11706960D01*
X8884348Y-11706960D02*
X8874824Y-11687912D01*
X8874824Y-11687912D02*
X8874824Y-11516484D01*
X9008158Y-11716484D02*
X8989110Y-11706960D01*
X8989110Y-11706960D02*
X8979586Y-11687912D01*
X8979586Y-11687912D02*
X8979586Y-11516484D01*
X9236729Y-11716484D02*
X9236729Y-11516484D01*
X9236729Y-11516484D02*
X9303396Y-11659341D01*
X9303396Y-11659341D02*
X9370063Y-11516484D01*
X9370063Y-11516484D02*
X9370063Y-11716484D01*
X9551015Y-11716484D02*
X9551015Y-11611722D01*
X9551015Y-11611722D02*
X9541491Y-11592674D01*
X9541491Y-11592674D02*
X9522444Y-11583150D01*
X9522444Y-11583150D02*
X9484348Y-11583150D01*
X9484348Y-11583150D02*
X9465301Y-11592674D01*
X9551015Y-11706960D02*
X9531967Y-11716484D01*
X9531967Y-11716484D02*
X9484348Y-11716484D01*
X9484348Y-11716484D02*
X9465301Y-11706960D01*
X9465301Y-11706960D02*
X9455777Y-11687912D01*
X9455777Y-11687912D02*
X9455777Y-11668865D01*
X9455777Y-11668865D02*
X9465301Y-11649817D01*
X9465301Y-11649817D02*
X9484348Y-11640293D01*
X9484348Y-11640293D02*
X9531967Y-11640293D01*
X9531967Y-11640293D02*
X9551015Y-11630769D01*
X9646253Y-11583150D02*
X9646253Y-11783150D01*
X9646253Y-11592674D02*
X9665301Y-11583150D01*
X9665301Y-11583150D02*
X9703396Y-11583150D01*
X9703396Y-11583150D02*
X9722444Y-11592674D01*
X9722444Y-11592674D02*
X9731967Y-11602198D01*
X9731967Y-11602198D02*
X9741491Y-11621246D01*
X9741491Y-11621246D02*
X9741491Y-11678388D01*
X9741491Y-11678388D02*
X9731967Y-11697436D01*
X9731967Y-11697436D02*
X9722444Y-11706960D01*
X9722444Y-11706960D02*
X9703396Y-11716484D01*
X9703396Y-11716484D02*
X9665301Y-11716484D01*
X9665301Y-11716484D02*
X9646253Y-11706960D01*
X9827205Y-11697436D02*
X9836729Y-11706960D01*
X9836729Y-11706960D02*
X9827205Y-11716484D01*
X9827205Y-11716484D02*
X9817682Y-11706960D01*
X9817682Y-11706960D02*
X9827205Y-11697436D01*
X9827205Y-11697436D02*
X9827205Y-11716484D01*
X9827205Y-11592674D02*
X9836729Y-11602198D01*
X9836729Y-11602198D02*
X9827205Y-11611722D01*
X9827205Y-11611722D02*
X9817682Y-11602198D01*
X9817682Y-11602198D02*
X9827205Y-11592674D01*
X9827205Y-11592674D02*
X9827205Y-11611722D01*
D12*
X8093000Y-11994000D02*
X8195000Y-12096000D01*
X8195000Y-11994000D02*
X8093000Y-12096000D01*
D11*
X8560539Y-12136484D02*
X8446253Y-12136484D01*
X8503396Y-12136484D02*
X8503396Y-11936484D01*
X8503396Y-11936484D02*
X8484348Y-11965055D01*
X8484348Y-11965055D02*
X8465301Y-11984103D01*
X8465301Y-11984103D02*
X8446253Y-11993627D01*
X8646253Y-12117436D02*
X8655777Y-12126960D01*
X8655777Y-12126960D02*
X8646253Y-12136484D01*
X8646253Y-12136484D02*
X8636729Y-12126960D01*
X8636729Y-12126960D02*
X8646253Y-12117436D01*
X8646253Y-12117436D02*
X8646253Y-12136484D01*
X8779586Y-11936484D02*
X8798634Y-11936484D01*
X8798634Y-11936484D02*
X8817682Y-11946008D01*
X8817682Y-11946008D02*
X8827205Y-11955531D01*
X8827205Y-11955531D02*
X8836729Y-11974579D01*
X8836729Y-11974579D02*
X8846253Y-12012674D01*
X8846253Y-12012674D02*
X8846253Y-12060293D01*
X8846253Y-12060293D02*
X8836729Y-12098388D01*
X8836729Y-12098388D02*
X8827205Y-12117436D01*
X8827205Y-12117436D02*
X8817682Y-12126960D01*
X8817682Y-12126960D02*
X8798634Y-12136484D01*
X8798634Y-12136484D02*
X8779586Y-12136484D01*
X8779586Y-12136484D02*
X8760539Y-12126960D01*
X8760539Y-12126960D02*
X8751015Y-12117436D01*
X8751015Y-12117436D02*
X8741491Y-12098388D01*
X8741491Y-12098388D02*
X8731967Y-12060293D01*
X8731967Y-12060293D02*
X8731967Y-12012674D01*
X8731967Y-12012674D02*
X8741491Y-11974579D01*
X8741491Y-11974579D02*
X8751015Y-11955531D01*
X8751015Y-11955531D02*
X8760539Y-11946008D01*
X8760539Y-11946008D02*
X8779586Y-11936484D01*
X8922444Y-11955531D02*
X8931967Y-11946008D01*
X8931967Y-11946008D02*
X8951015Y-11936484D01*
X8951015Y-11936484D02*
X8998634Y-11936484D01*
X8998634Y-11936484D02*
X9017682Y-11946008D01*
X9017682Y-11946008D02*
X9027205Y-11955531D01*
X9027205Y-11955531D02*
X9036729Y-11974579D01*
X9036729Y-11974579D02*
X9036729Y-11993627D01*
X9036729Y-11993627D02*
X9027205Y-12022198D01*
X9027205Y-12022198D02*
X8912920Y-12136484D01*
X8912920Y-12136484D02*
X9036729Y-12136484D01*
X9160539Y-11936484D02*
X9179586Y-11936484D01*
X9179586Y-11936484D02*
X9198634Y-11946008D01*
X9198634Y-11946008D02*
X9208158Y-11955531D01*
X9208158Y-11955531D02*
X9217682Y-11974579D01*
X9217682Y-11974579D02*
X9227205Y-12012674D01*
X9227205Y-12012674D02*
X9227205Y-12060293D01*
X9227205Y-12060293D02*
X9217682Y-12098388D01*
X9217682Y-12098388D02*
X9208158Y-12117436D01*
X9208158Y-12117436D02*
X9198634Y-12126960D01*
X9198634Y-12126960D02*
X9179586Y-12136484D01*
X9179586Y-12136484D02*
X9160539Y-12136484D01*
X9160539Y-12136484D02*
X9141491Y-12126960D01*
X9141491Y-12126960D02*
X9131967Y-12117436D01*
X9131967Y-12117436D02*
X9122444Y-12098388D01*
X9122444Y-12098388D02*
X9112920Y-12060293D01*
X9112920Y-12060293D02*
X9112920Y-12012674D01*
X9112920Y-12012674D02*
X9122444Y-11974579D01*
X9122444Y-11974579D02*
X9131967Y-11955531D01*
X9131967Y-11955531D02*
X9141491Y-11946008D01*
X9141491Y-11946008D02*
X9160539Y-11936484D01*
X9312920Y-12136484D02*
X9312920Y-12003150D01*
X9312920Y-12022198D02*
X9322444Y-12012674D01*
X9322444Y-12012674D02*
X9341491Y-12003150D01*
X9341491Y-12003150D02*
X9370063Y-12003150D01*
X9370063Y-12003150D02*
X9389110Y-12012674D01*
X9389110Y-12012674D02*
X9398634Y-12031722D01*
X9398634Y-12031722D02*
X9398634Y-12136484D01*
X9398634Y-12031722D02*
X9408158Y-12012674D01*
X9408158Y-12012674D02*
X9427205Y-12003150D01*
X9427205Y-12003150D02*
X9455777Y-12003150D01*
X9455777Y-12003150D02*
X9474825Y-12012674D01*
X9474825Y-12012674D02*
X9484348Y-12031722D01*
X9484348Y-12031722D02*
X9484348Y-12136484D01*
X9579586Y-12136484D02*
X9579586Y-12003150D01*
X9579586Y-12022198D02*
X9589110Y-12012674D01*
X9589110Y-12012674D02*
X9608158Y-12003150D01*
X9608158Y-12003150D02*
X9636729Y-12003150D01*
X9636729Y-12003150D02*
X9655777Y-12012674D01*
X9655777Y-12012674D02*
X9665301Y-12031722D01*
X9665301Y-12031722D02*
X9665301Y-12136484D01*
X9665301Y-12031722D02*
X9674825Y-12012674D01*
X9674825Y-12012674D02*
X9693872Y-12003150D01*
X9693872Y-12003150D02*
X9722444Y-12003150D01*
X9722444Y-12003150D02*
X9741491Y-12012674D01*
X9741491Y-12012674D02*
X9751015Y-12031722D01*
X9751015Y-12031722D02*
X9751015Y-12136484D01*
X10141491Y-11926960D02*
X9970063Y-12184103D01*
X10398634Y-11936484D02*
X10417682Y-11936484D01*
X10417682Y-11936484D02*
X10436729Y-11946008D01*
X10436729Y-11946008D02*
X10446253Y-11955531D01*
X10446253Y-11955531D02*
X10455777Y-11974579D01*
X10455777Y-11974579D02*
X10465301Y-12012674D01*
X10465301Y-12012674D02*
X10465301Y-12060293D01*
X10465301Y-12060293D02*
X10455777Y-12098388D01*
X10455777Y-12098388D02*
X10446253Y-12117436D01*
X10446253Y-12117436D02*
X10436729Y-12126960D01*
X10436729Y-12126960D02*
X10417682Y-12136484D01*
X10417682Y-12136484D02*
X10398634Y-12136484D01*
X10398634Y-12136484D02*
X10379587Y-12126960D01*
X10379587Y-12126960D02*
X10370063Y-12117436D01*
X10370063Y-12117436D02*
X10360539Y-12098388D01*
X10360539Y-12098388D02*
X10351015Y-12060293D01*
X10351015Y-12060293D02*
X10351015Y-12012674D01*
X10351015Y-12012674D02*
X10360539Y-11974579D01*
X10360539Y-11974579D02*
X10370063Y-11955531D01*
X10370063Y-11955531D02*
X10379587Y-11946008D01*
X10379587Y-11946008D02*
X10398634Y-11936484D01*
X10551015Y-12117436D02*
X10560539Y-12126960D01*
X10560539Y-12126960D02*
X10551015Y-12136484D01*
X10551015Y-12136484D02*
X10541491Y-12126960D01*
X10541491Y-12126960D02*
X10551015Y-12117436D01*
X10551015Y-12117436D02*
X10551015Y-12136484D01*
X10684348Y-11936484D02*
X10703396Y-11936484D01*
X10703396Y-11936484D02*
X10722444Y-11946008D01*
X10722444Y-11946008D02*
X10731968Y-11955531D01*
X10731968Y-11955531D02*
X10741491Y-11974579D01*
X10741491Y-11974579D02*
X10751015Y-12012674D01*
X10751015Y-12012674D02*
X10751015Y-12060293D01*
X10751015Y-12060293D02*
X10741491Y-12098388D01*
X10741491Y-12098388D02*
X10731968Y-12117436D01*
X10731968Y-12117436D02*
X10722444Y-12126960D01*
X10722444Y-12126960D02*
X10703396Y-12136484D01*
X10703396Y-12136484D02*
X10684348Y-12136484D01*
X10684348Y-12136484D02*
X10665301Y-12126960D01*
X10665301Y-12126960D02*
X10655777Y-12117436D01*
X10655777Y-12117436D02*
X10646253Y-12098388D01*
X10646253Y-12098388D02*
X10636729Y-12060293D01*
X10636729Y-12060293D02*
X10636729Y-12012674D01*
X10636729Y-12012674D02*
X10646253Y-11974579D01*
X10646253Y-11974579D02*
X10655777Y-11955531D01*
X10655777Y-11955531D02*
X10665301Y-11946008D01*
X10665301Y-11946008D02*
X10684348Y-11936484D01*
X10922444Y-12003150D02*
X10922444Y-12136484D01*
X10874825Y-11926960D02*
X10827206Y-12069817D01*
X10827206Y-12069817D02*
X10951015Y-12069817D01*
X11065301Y-11936484D02*
X11084349Y-11936484D01*
X11084349Y-11936484D02*
X11103396Y-11946008D01*
X11103396Y-11946008D02*
X11112920Y-11955531D01*
X11112920Y-11955531D02*
X11122444Y-11974579D01*
X11122444Y-11974579D02*
X11131968Y-12012674D01*
X11131968Y-12012674D02*
X11131968Y-12060293D01*
X11131968Y-12060293D02*
X11122444Y-12098388D01*
X11122444Y-12098388D02*
X11112920Y-12117436D01*
X11112920Y-12117436D02*
X11103396Y-12126960D01*
X11103396Y-12126960D02*
X11084349Y-12136484D01*
X11084349Y-12136484D02*
X11065301Y-12136484D01*
X11065301Y-12136484D02*
X11046253Y-12126960D01*
X11046253Y-12126960D02*
X11036729Y-12117436D01*
X11036729Y-12117436D02*
X11027206Y-12098388D01*
X11027206Y-12098388D02*
X11017682Y-12060293D01*
X11017682Y-12060293D02*
X11017682Y-12012674D01*
X11017682Y-12012674D02*
X11027206Y-11974579D01*
X11027206Y-11974579D02*
X11036729Y-11955531D01*
X11036729Y-11955531D02*
X11046253Y-11946008D01*
X11046253Y-11946008D02*
X11065301Y-11936484D01*
X11208158Y-11955531D02*
X11217682Y-11946008D01*
X11217682Y-11946008D02*
X11236729Y-11936484D01*
X11236729Y-11936484D02*
X11284348Y-11936484D01*
X11284348Y-11936484D02*
X11303396Y-11946008D01*
X11303396Y-11946008D02*
X11312920Y-11955531D01*
X11312920Y-11955531D02*
X11322444Y-11974579D01*
X11322444Y-11974579D02*
X11322444Y-11993627D01*
X11322444Y-11993627D02*
X11312920Y-12022198D01*
X11312920Y-12022198D02*
X11198634Y-12136484D01*
X11198634Y-12136484D02*
X11322444Y-12136484D01*
X11398634Y-11936484D02*
X11398634Y-11974579D01*
X11474825Y-11936484D02*
X11474825Y-11974579D01*
X11770063Y-12212674D02*
X11760539Y-12203150D01*
X11760539Y-12203150D02*
X11741491Y-12174579D01*
X11741491Y-12174579D02*
X11731968Y-12155531D01*
X11731968Y-12155531D02*
X11722444Y-12126960D01*
X11722444Y-12126960D02*
X11712920Y-12079341D01*
X11712920Y-12079341D02*
X11712920Y-12041246D01*
X11712920Y-12041246D02*
X11722444Y-11993627D01*
X11722444Y-11993627D02*
X11731968Y-11965055D01*
X11731968Y-11965055D02*
X11741491Y-11946008D01*
X11741491Y-11946008D02*
X11760539Y-11917436D01*
X11760539Y-11917436D02*
X11770063Y-11907912D01*
X11931968Y-12003150D02*
X11931968Y-12136484D01*
X11884348Y-11926960D02*
X11836729Y-12069817D01*
X11836729Y-12069817D02*
X11960539Y-12069817D01*
X12074825Y-11936484D02*
X12093872Y-11936484D01*
X12093872Y-11936484D02*
X12112920Y-11946008D01*
X12112920Y-11946008D02*
X12122444Y-11955531D01*
X12122444Y-11955531D02*
X12131968Y-11974579D01*
X12131968Y-11974579D02*
X12141491Y-12012674D01*
X12141491Y-12012674D02*
X12141491Y-12060293D01*
X12141491Y-12060293D02*
X12131968Y-12098388D01*
X12131968Y-12098388D02*
X12122444Y-12117436D01*
X12122444Y-12117436D02*
X12112920Y-12126960D01*
X12112920Y-12126960D02*
X12093872Y-12136484D01*
X12093872Y-12136484D02*
X12074825Y-12136484D01*
X12074825Y-12136484D02*
X12055777Y-12126960D01*
X12055777Y-12126960D02*
X12046253Y-12117436D01*
X12046253Y-12117436D02*
X12036729Y-12098388D01*
X12036729Y-12098388D02*
X12027206Y-12060293D01*
X12027206Y-12060293D02*
X12027206Y-12012674D01*
X12027206Y-12012674D02*
X12036729Y-11974579D01*
X12036729Y-11974579D02*
X12046253Y-11955531D01*
X12046253Y-11955531D02*
X12055777Y-11946008D01*
X12055777Y-11946008D02*
X12074825Y-11936484D01*
X12379587Y-12136484D02*
X12379587Y-11936484D01*
X12465301Y-12136484D02*
X12465301Y-12031722D01*
X12465301Y-12031722D02*
X12455777Y-12012674D01*
X12455777Y-12012674D02*
X12436730Y-12003150D01*
X12436730Y-12003150D02*
X12408158Y-12003150D01*
X12408158Y-12003150D02*
X12389110Y-12012674D01*
X12389110Y-12012674D02*
X12379587Y-12022198D01*
X12589110Y-12136484D02*
X12570063Y-12126960D01*
X12570063Y-12126960D02*
X12560539Y-12117436D01*
X12560539Y-12117436D02*
X12551015Y-12098388D01*
X12551015Y-12098388D02*
X12551015Y-12041246D01*
X12551015Y-12041246D02*
X12560539Y-12022198D01*
X12560539Y-12022198D02*
X12570063Y-12012674D01*
X12570063Y-12012674D02*
X12589110Y-12003150D01*
X12589110Y-12003150D02*
X12617682Y-12003150D01*
X12617682Y-12003150D02*
X12636730Y-12012674D01*
X12636730Y-12012674D02*
X12646253Y-12022198D01*
X12646253Y-12022198D02*
X12655777Y-12041246D01*
X12655777Y-12041246D02*
X12655777Y-12098388D01*
X12655777Y-12098388D02*
X12646253Y-12117436D01*
X12646253Y-12117436D02*
X12636730Y-12126960D01*
X12636730Y-12126960D02*
X12617682Y-12136484D01*
X12617682Y-12136484D02*
X12589110Y-12136484D01*
X12770063Y-12136484D02*
X12751015Y-12126960D01*
X12751015Y-12126960D02*
X12741491Y-12107912D01*
X12741491Y-12107912D02*
X12741491Y-11936484D01*
X12922444Y-12126960D02*
X12903396Y-12136484D01*
X12903396Y-12136484D02*
X12865301Y-12136484D01*
X12865301Y-12136484D02*
X12846253Y-12126960D01*
X12846253Y-12126960D02*
X12836730Y-12107912D01*
X12836730Y-12107912D02*
X12836730Y-12031722D01*
X12836730Y-12031722D02*
X12846253Y-12012674D01*
X12846253Y-12012674D02*
X12865301Y-12003150D01*
X12865301Y-12003150D02*
X12903396Y-12003150D01*
X12903396Y-12003150D02*
X12922444Y-12012674D01*
X12922444Y-12012674D02*
X12931968Y-12031722D01*
X12931968Y-12031722D02*
X12931968Y-12050769D01*
X12931968Y-12050769D02*
X12836730Y-12069817D01*
X13008158Y-12126960D02*
X13027206Y-12136484D01*
X13027206Y-12136484D02*
X13065301Y-12136484D01*
X13065301Y-12136484D02*
X13084349Y-12126960D01*
X13084349Y-12126960D02*
X13093872Y-12107912D01*
X13093872Y-12107912D02*
X13093872Y-12098388D01*
X13093872Y-12098388D02*
X13084349Y-12079341D01*
X13084349Y-12079341D02*
X13065301Y-12069817D01*
X13065301Y-12069817D02*
X13036730Y-12069817D01*
X13036730Y-12069817D02*
X13017682Y-12060293D01*
X13017682Y-12060293D02*
X13008158Y-12041246D01*
X13008158Y-12041246D02*
X13008158Y-12031722D01*
X13008158Y-12031722D02*
X13017682Y-12012674D01*
X13017682Y-12012674D02*
X13036730Y-12003150D01*
X13036730Y-12003150D02*
X13065301Y-12003150D01*
X13065301Y-12003150D02*
X13084349Y-12012674D01*
X13160539Y-12212674D02*
X13170063Y-12203150D01*
X13170063Y-12203150D02*
X13189111Y-12174579D01*
X13189111Y-12174579D02*
X13198634Y-12155531D01*
X13198634Y-12155531D02*
X13208158Y-12126960D01*
X13208158Y-12126960D02*
X13217682Y-12079341D01*
X13217682Y-12079341D02*
X13217682Y-12041246D01*
X13217682Y-12041246D02*
X13208158Y-11993627D01*
X13208158Y-11993627D02*
X13198634Y-11965055D01*
X13198634Y-11965055D02*
X13189111Y-11946008D01*
X13189111Y-11946008D02*
X13170063Y-11917436D01*
X13170063Y-11917436D02*
X13160539Y-11907912D01*
D13*
X8195000Y-12309000D02*
G75*
G03*
X8195000Y-12309000I-55000J0D01*
G01*
D11*
X8560539Y-12400484D02*
X8446253Y-12400484D01*
X8503396Y-12400484D02*
X8503396Y-12200484D01*
X8503396Y-12200484D02*
X8484348Y-12229055D01*
X8484348Y-12229055D02*
X8465301Y-12248103D01*
X8465301Y-12248103D02*
X8446253Y-12257627D01*
X8646253Y-12381436D02*
X8655777Y-12390960D01*
X8655777Y-12390960D02*
X8646253Y-12400484D01*
X8646253Y-12400484D02*
X8636729Y-12390960D01*
X8636729Y-12390960D02*
X8646253Y-12381436D01*
X8646253Y-12381436D02*
X8646253Y-12400484D01*
X8846253Y-12400484D02*
X8731967Y-12400484D01*
X8789110Y-12400484D02*
X8789110Y-12200484D01*
X8789110Y-12200484D02*
X8770063Y-12229055D01*
X8770063Y-12229055D02*
X8751015Y-12248103D01*
X8751015Y-12248103D02*
X8731967Y-12257627D01*
X8970063Y-12200484D02*
X8989110Y-12200484D01*
X8989110Y-12200484D02*
X9008158Y-12210008D01*
X9008158Y-12210008D02*
X9017682Y-12219531D01*
X9017682Y-12219531D02*
X9027205Y-12238579D01*
X9027205Y-12238579D02*
X9036729Y-12276674D01*
X9036729Y-12276674D02*
X9036729Y-12324293D01*
X9036729Y-12324293D02*
X9027205Y-12362388D01*
X9027205Y-12362388D02*
X9017682Y-12381436D01*
X9017682Y-12381436D02*
X9008158Y-12390960D01*
X9008158Y-12390960D02*
X8989110Y-12400484D01*
X8989110Y-12400484D02*
X8970063Y-12400484D01*
X8970063Y-12400484D02*
X8951015Y-12390960D01*
X8951015Y-12390960D02*
X8941491Y-12381436D01*
X8941491Y-12381436D02*
X8931967Y-12362388D01*
X8931967Y-12362388D02*
X8922444Y-12324293D01*
X8922444Y-12324293D02*
X8922444Y-12276674D01*
X8922444Y-12276674D02*
X8931967Y-12238579D01*
X8931967Y-12238579D02*
X8941491Y-12219531D01*
X8941491Y-12219531D02*
X8951015Y-12210008D01*
X8951015Y-12210008D02*
X8970063Y-12200484D01*
X9160539Y-12200484D02*
X9179586Y-12200484D01*
X9179586Y-12200484D02*
X9198634Y-12210008D01*
X9198634Y-12210008D02*
X9208158Y-12219531D01*
X9208158Y-12219531D02*
X9217682Y-12238579D01*
X9217682Y-12238579D02*
X9227205Y-12276674D01*
X9227205Y-12276674D02*
X9227205Y-12324293D01*
X9227205Y-12324293D02*
X9217682Y-12362388D01*
X9217682Y-12362388D02*
X9208158Y-12381436D01*
X9208158Y-12381436D02*
X9198634Y-12390960D01*
X9198634Y-12390960D02*
X9179586Y-12400484D01*
X9179586Y-12400484D02*
X9160539Y-12400484D01*
X9160539Y-12400484D02*
X9141491Y-12390960D01*
X9141491Y-12390960D02*
X9131967Y-12381436D01*
X9131967Y-12381436D02*
X9122444Y-12362388D01*
X9122444Y-12362388D02*
X9112920Y-12324293D01*
X9112920Y-12324293D02*
X9112920Y-12276674D01*
X9112920Y-12276674D02*
X9122444Y-12238579D01*
X9122444Y-12238579D02*
X9131967Y-12219531D01*
X9131967Y-12219531D02*
X9141491Y-12210008D01*
X9141491Y-12210008D02*
X9160539Y-12200484D01*
X9312920Y-12400484D02*
X9312920Y-12267150D01*
X9312920Y-12286198D02*
X9322444Y-12276674D01*
X9322444Y-12276674D02*
X9341491Y-12267150D01*
X9341491Y-12267150D02*
X9370063Y-12267150D01*
X9370063Y-12267150D02*
X9389110Y-12276674D01*
X9389110Y-12276674D02*
X9398634Y-12295722D01*
X9398634Y-12295722D02*
X9398634Y-12400484D01*
X9398634Y-12295722D02*
X9408158Y-12276674D01*
X9408158Y-12276674D02*
X9427205Y-12267150D01*
X9427205Y-12267150D02*
X9455777Y-12267150D01*
X9455777Y-12267150D02*
X9474825Y-12276674D01*
X9474825Y-12276674D02*
X9484348Y-12295722D01*
X9484348Y-12295722D02*
X9484348Y-12400484D01*
X9579586Y-12400484D02*
X9579586Y-12267150D01*
X9579586Y-12286198D02*
X9589110Y-12276674D01*
X9589110Y-12276674D02*
X9608158Y-12267150D01*
X9608158Y-12267150D02*
X9636729Y-12267150D01*
X9636729Y-12267150D02*
X9655777Y-12276674D01*
X9655777Y-12276674D02*
X9665301Y-12295722D01*
X9665301Y-12295722D02*
X9665301Y-12400484D01*
X9665301Y-12295722D02*
X9674825Y-12276674D01*
X9674825Y-12276674D02*
X9693872Y-12267150D01*
X9693872Y-12267150D02*
X9722444Y-12267150D01*
X9722444Y-12267150D02*
X9741491Y-12276674D01*
X9741491Y-12276674D02*
X9751015Y-12295722D01*
X9751015Y-12295722D02*
X9751015Y-12400484D01*
X10141491Y-12190960D02*
X9970063Y-12448103D01*
X10398634Y-12200484D02*
X10417682Y-12200484D01*
X10417682Y-12200484D02*
X10436729Y-12210008D01*
X10436729Y-12210008D02*
X10446253Y-12219531D01*
X10446253Y-12219531D02*
X10455777Y-12238579D01*
X10455777Y-12238579D02*
X10465301Y-12276674D01*
X10465301Y-12276674D02*
X10465301Y-12324293D01*
X10465301Y-12324293D02*
X10455777Y-12362388D01*
X10455777Y-12362388D02*
X10446253Y-12381436D01*
X10446253Y-12381436D02*
X10436729Y-12390960D01*
X10436729Y-12390960D02*
X10417682Y-12400484D01*
X10417682Y-12400484D02*
X10398634Y-12400484D01*
X10398634Y-12400484D02*
X10379587Y-12390960D01*
X10379587Y-12390960D02*
X10370063Y-12381436D01*
X10370063Y-12381436D02*
X10360539Y-12362388D01*
X10360539Y-12362388D02*
X10351015Y-12324293D01*
X10351015Y-12324293D02*
X10351015Y-12276674D01*
X10351015Y-12276674D02*
X10360539Y-12238579D01*
X10360539Y-12238579D02*
X10370063Y-12219531D01*
X10370063Y-12219531D02*
X10379587Y-12210008D01*
X10379587Y-12210008D02*
X10398634Y-12200484D01*
X10551015Y-12381436D02*
X10560539Y-12390960D01*
X10560539Y-12390960D02*
X10551015Y-12400484D01*
X10551015Y-12400484D02*
X10541491Y-12390960D01*
X10541491Y-12390960D02*
X10551015Y-12381436D01*
X10551015Y-12381436D02*
X10551015Y-12400484D01*
X10684348Y-12200484D02*
X10703396Y-12200484D01*
X10703396Y-12200484D02*
X10722444Y-12210008D01*
X10722444Y-12210008D02*
X10731968Y-12219531D01*
X10731968Y-12219531D02*
X10741491Y-12238579D01*
X10741491Y-12238579D02*
X10751015Y-12276674D01*
X10751015Y-12276674D02*
X10751015Y-12324293D01*
X10751015Y-12324293D02*
X10741491Y-12362388D01*
X10741491Y-12362388D02*
X10731968Y-12381436D01*
X10731968Y-12381436D02*
X10722444Y-12390960D01*
X10722444Y-12390960D02*
X10703396Y-12400484D01*
X10703396Y-12400484D02*
X10684348Y-12400484D01*
X10684348Y-12400484D02*
X10665301Y-12390960D01*
X10665301Y-12390960D02*
X10655777Y-12381436D01*
X10655777Y-12381436D02*
X10646253Y-12362388D01*
X10646253Y-12362388D02*
X10636729Y-12324293D01*
X10636729Y-12324293D02*
X10636729Y-12276674D01*
X10636729Y-12276674D02*
X10646253Y-12238579D01*
X10646253Y-12238579D02*
X10655777Y-12219531D01*
X10655777Y-12219531D02*
X10665301Y-12210008D01*
X10665301Y-12210008D02*
X10684348Y-12200484D01*
X10922444Y-12267150D02*
X10922444Y-12400484D01*
X10874825Y-12190960D02*
X10827206Y-12333817D01*
X10827206Y-12333817D02*
X10951015Y-12333817D01*
X11008158Y-12200484D02*
X11131968Y-12200484D01*
X11131968Y-12200484D02*
X11065301Y-12276674D01*
X11065301Y-12276674D02*
X11093872Y-12276674D01*
X11093872Y-12276674D02*
X11112920Y-12286198D01*
X11112920Y-12286198D02*
X11122444Y-12295722D01*
X11122444Y-12295722D02*
X11131968Y-12314769D01*
X11131968Y-12314769D02*
X11131968Y-12362388D01*
X11131968Y-12362388D02*
X11122444Y-12381436D01*
X11122444Y-12381436D02*
X11112920Y-12390960D01*
X11112920Y-12390960D02*
X11093872Y-12400484D01*
X11093872Y-12400484D02*
X11036729Y-12400484D01*
X11036729Y-12400484D02*
X11017682Y-12390960D01*
X11017682Y-12390960D02*
X11008158Y-12381436D01*
X11198634Y-12200484D02*
X11322444Y-12200484D01*
X11322444Y-12200484D02*
X11255777Y-12276674D01*
X11255777Y-12276674D02*
X11284348Y-12276674D01*
X11284348Y-12276674D02*
X11303396Y-12286198D01*
X11303396Y-12286198D02*
X11312920Y-12295722D01*
X11312920Y-12295722D02*
X11322444Y-12314769D01*
X11322444Y-12314769D02*
X11322444Y-12362388D01*
X11322444Y-12362388D02*
X11312920Y-12381436D01*
X11312920Y-12381436D02*
X11303396Y-12390960D01*
X11303396Y-12390960D02*
X11284348Y-12400484D01*
X11284348Y-12400484D02*
X11227206Y-12400484D01*
X11227206Y-12400484D02*
X11208158Y-12390960D01*
X11208158Y-12390960D02*
X11198634Y-12381436D01*
X11398634Y-12200484D02*
X11398634Y-12238579D01*
X11474825Y-12200484D02*
X11474825Y-12238579D01*
X11770063Y-12476674D02*
X11760539Y-12467150D01*
X11760539Y-12467150D02*
X11741491Y-12438579D01*
X11741491Y-12438579D02*
X11731968Y-12419531D01*
X11731968Y-12419531D02*
X11722444Y-12390960D01*
X11722444Y-12390960D02*
X11712920Y-12343341D01*
X11712920Y-12343341D02*
X11712920Y-12305246D01*
X11712920Y-12305246D02*
X11722444Y-12257627D01*
X11722444Y-12257627D02*
X11731968Y-12229055D01*
X11731968Y-12229055D02*
X11741491Y-12210008D01*
X11741491Y-12210008D02*
X11760539Y-12181436D01*
X11760539Y-12181436D02*
X11770063Y-12171912D01*
X11874825Y-12286198D02*
X11855777Y-12276674D01*
X11855777Y-12276674D02*
X11846253Y-12267150D01*
X11846253Y-12267150D02*
X11836729Y-12248103D01*
X11836729Y-12248103D02*
X11836729Y-12238579D01*
X11836729Y-12238579D02*
X11846253Y-12219531D01*
X11846253Y-12219531D02*
X11855777Y-12210008D01*
X11855777Y-12210008D02*
X11874825Y-12200484D01*
X11874825Y-12200484D02*
X11912920Y-12200484D01*
X11912920Y-12200484D02*
X11931968Y-12210008D01*
X11931968Y-12210008D02*
X11941491Y-12219531D01*
X11941491Y-12219531D02*
X11951015Y-12238579D01*
X11951015Y-12238579D02*
X11951015Y-12248103D01*
X11951015Y-12248103D02*
X11941491Y-12267150D01*
X11941491Y-12267150D02*
X11931968Y-12276674D01*
X11931968Y-12276674D02*
X11912920Y-12286198D01*
X11912920Y-12286198D02*
X11874825Y-12286198D01*
X11874825Y-12286198D02*
X11855777Y-12295722D01*
X11855777Y-12295722D02*
X11846253Y-12305246D01*
X11846253Y-12305246D02*
X11836729Y-12324293D01*
X11836729Y-12324293D02*
X11836729Y-12362388D01*
X11836729Y-12362388D02*
X11846253Y-12381436D01*
X11846253Y-12381436D02*
X11855777Y-12390960D01*
X11855777Y-12390960D02*
X11874825Y-12400484D01*
X11874825Y-12400484D02*
X11912920Y-12400484D01*
X11912920Y-12400484D02*
X11931968Y-12390960D01*
X11931968Y-12390960D02*
X11941491Y-12381436D01*
X11941491Y-12381436D02*
X11951015Y-12362388D01*
X11951015Y-12362388D02*
X11951015Y-12324293D01*
X11951015Y-12324293D02*
X11941491Y-12305246D01*
X11941491Y-12305246D02*
X11931968Y-12295722D01*
X11931968Y-12295722D02*
X11912920Y-12286198D01*
X12074825Y-12200484D02*
X12093872Y-12200484D01*
X12093872Y-12200484D02*
X12112920Y-12210008D01*
X12112920Y-12210008D02*
X12122444Y-12219531D01*
X12122444Y-12219531D02*
X12131968Y-12238579D01*
X12131968Y-12238579D02*
X12141491Y-12276674D01*
X12141491Y-12276674D02*
X12141491Y-12324293D01*
X12141491Y-12324293D02*
X12131968Y-12362388D01*
X12131968Y-12362388D02*
X12122444Y-12381436D01*
X12122444Y-12381436D02*
X12112920Y-12390960D01*
X12112920Y-12390960D02*
X12093872Y-12400484D01*
X12093872Y-12400484D02*
X12074825Y-12400484D01*
X12074825Y-12400484D02*
X12055777Y-12390960D01*
X12055777Y-12390960D02*
X12046253Y-12381436D01*
X12046253Y-12381436D02*
X12036729Y-12362388D01*
X12036729Y-12362388D02*
X12027206Y-12324293D01*
X12027206Y-12324293D02*
X12027206Y-12276674D01*
X12027206Y-12276674D02*
X12036729Y-12238579D01*
X12036729Y-12238579D02*
X12046253Y-12219531D01*
X12046253Y-12219531D02*
X12055777Y-12210008D01*
X12055777Y-12210008D02*
X12074825Y-12200484D01*
X12379587Y-12400484D02*
X12379587Y-12200484D01*
X12465301Y-12400484D02*
X12465301Y-12295722D01*
X12465301Y-12295722D02*
X12455777Y-12276674D01*
X12455777Y-12276674D02*
X12436730Y-12267150D01*
X12436730Y-12267150D02*
X12408158Y-12267150D01*
X12408158Y-12267150D02*
X12389110Y-12276674D01*
X12389110Y-12276674D02*
X12379587Y-12286198D01*
X12589110Y-12400484D02*
X12570063Y-12390960D01*
X12570063Y-12390960D02*
X12560539Y-12381436D01*
X12560539Y-12381436D02*
X12551015Y-12362388D01*
X12551015Y-12362388D02*
X12551015Y-12305246D01*
X12551015Y-12305246D02*
X12560539Y-12286198D01*
X12560539Y-12286198D02*
X12570063Y-12276674D01*
X12570063Y-12276674D02*
X12589110Y-12267150D01*
X12589110Y-12267150D02*
X12617682Y-12267150D01*
X12617682Y-12267150D02*
X12636730Y-12276674D01*
X12636730Y-12276674D02*
X12646253Y-12286198D01*
X12646253Y-12286198D02*
X12655777Y-12305246D01*
X12655777Y-12305246D02*
X12655777Y-12362388D01*
X12655777Y-12362388D02*
X12646253Y-12381436D01*
X12646253Y-12381436D02*
X12636730Y-12390960D01*
X12636730Y-12390960D02*
X12617682Y-12400484D01*
X12617682Y-12400484D02*
X12589110Y-12400484D01*
X12770063Y-12400484D02*
X12751015Y-12390960D01*
X12751015Y-12390960D02*
X12741491Y-12371912D01*
X12741491Y-12371912D02*
X12741491Y-12200484D01*
X12922444Y-12390960D02*
X12903396Y-12400484D01*
X12903396Y-12400484D02*
X12865301Y-12400484D01*
X12865301Y-12400484D02*
X12846253Y-12390960D01*
X12846253Y-12390960D02*
X12836730Y-12371912D01*
X12836730Y-12371912D02*
X12836730Y-12295722D01*
X12836730Y-12295722D02*
X12846253Y-12276674D01*
X12846253Y-12276674D02*
X12865301Y-12267150D01*
X12865301Y-12267150D02*
X12903396Y-12267150D01*
X12903396Y-12267150D02*
X12922444Y-12276674D01*
X12922444Y-12276674D02*
X12931968Y-12295722D01*
X12931968Y-12295722D02*
X12931968Y-12314769D01*
X12931968Y-12314769D02*
X12836730Y-12333817D01*
X13008158Y-12390960D02*
X13027206Y-12400484D01*
X13027206Y-12400484D02*
X13065301Y-12400484D01*
X13065301Y-12400484D02*
X13084349Y-12390960D01*
X13084349Y-12390960D02*
X13093872Y-12371912D01*
X13093872Y-12371912D02*
X13093872Y-12362388D01*
X13093872Y-12362388D02*
X13084349Y-12343341D01*
X13084349Y-12343341D02*
X13065301Y-12333817D01*
X13065301Y-12333817D02*
X13036730Y-12333817D01*
X13036730Y-12333817D02*
X13017682Y-12324293D01*
X13017682Y-12324293D02*
X13008158Y-12305246D01*
X13008158Y-12305246D02*
X13008158Y-12295722D01*
X13008158Y-12295722D02*
X13017682Y-12276674D01*
X13017682Y-12276674D02*
X13036730Y-12267150D01*
X13036730Y-12267150D02*
X13065301Y-12267150D01*
X13065301Y-12267150D02*
X13084349Y-12276674D01*
X13160539Y-12476674D02*
X13170063Y-12467150D01*
X13170063Y-12467150D02*
X13189111Y-12438579D01*
X13189111Y-12438579D02*
X13198634Y-12419531D01*
X13198634Y-12419531D02*
X13208158Y-12390960D01*
X13208158Y-12390960D02*
X13217682Y-12343341D01*
X13217682Y-12343341D02*
X13217682Y-12305246D01*
X13217682Y-12305246D02*
X13208158Y-12257627D01*
X13208158Y-12257627D02*
X13198634Y-12229055D01*
X13198634Y-12229055D02*
X13189111Y-12210008D01*
X13189111Y-12210008D02*
X13170063Y-12181436D01*
X13170063Y-12181436D02*
X13160539Y-12171912D01*
M02*
