%TF.GenerationSoftware,KiCad,Pcbnew,7.0.5*%
%TF.CreationDate,2023-06-25T23:49:07-07:00*%
%TF.ProjectId,umfd,756d6664-2e6b-4696-9361-645f70636258,rev?*%
%TF.SameCoordinates,Original*%
%TF.FileFunction,Copper,L2,Bot*%
%TF.FilePolarity,Positive*%
%FSLAX46Y46*%
G04 Gerber Fmt 4.6, Leading zero omitted, Abs format (unit mm)*
G04 Created by KiCad (PCBNEW 7.0.5) date 2023-06-25 23:49:07*
%MOMM*%
%LPD*%
G01*
G04 APERTURE LIST*
%TA.AperFunction,NonConductor*%
%ADD10C,0.200000*%
%TD*%
%TA.AperFunction,ComponentPad*%
%ADD11O,1.700000X1.700000*%
%TD*%
%TA.AperFunction,SMDPad,CuDef*%
%ADD12R,3.500000X1.700000*%
%TD*%
%TA.AperFunction,ComponentPad*%
%ADD13R,1.700000X1.700000*%
%TD*%
%TA.AperFunction,ComponentPad*%
%ADD14C,2.000000*%
%TD*%
G04 APERTURE END LIST*
D10*
X203250000Y-44000000D02*
X216250000Y-44000000D01*
X216250000Y-63250000D01*
X203250000Y-63250000D01*
X203250000Y-44000000D01*
D11*
%TO.P,U1,1,GPIO0*%
%TO.N,Net-(U1-GPIO0)*%
X126530000Y-54770000D03*
D12*
X127430000Y-54770000D03*
D11*
%TO.P,U1,2,GPIO1*%
%TO.N,Net-(U1-GPIO1)*%
X126530000Y-57310000D03*
D12*
X127430000Y-57310000D03*
D13*
%TO.P,U1,3,GND*%
%TO.N,GND*%
X126530000Y-59850000D03*
D12*
X127430000Y-59850000D03*
D11*
%TO.P,U1,4,GPIO2*%
%TO.N,Net-(U1-GPIO2)*%
X126530000Y-62390000D03*
D12*
X127430000Y-62390000D03*
D11*
%TO.P,U1,5,GPIO3*%
%TO.N,Net-(U1-GPIO3)*%
X126530000Y-64930000D03*
D12*
X127430000Y-64930000D03*
D11*
%TO.P,U1,6,GPIO4*%
%TO.N,Net-(U1-GPIO4)*%
X126530000Y-67470000D03*
D12*
X127430000Y-67470000D03*
D11*
%TO.P,U1,7,GPIO5*%
%TO.N,Net-(U1-GPIO5)*%
X126530000Y-70010000D03*
D12*
X127430000Y-70010000D03*
D13*
%TO.P,U1,8,GND*%
%TO.N,GND*%
X126530000Y-72550000D03*
D12*
X127430000Y-72550000D03*
D11*
%TO.P,U1,9,GPIO6*%
%TO.N,Net-(U1-GPIO6)*%
X126530000Y-75090000D03*
D12*
X127430000Y-75090000D03*
D11*
%TO.P,U1,10,GPIO7*%
%TO.N,Net-(U1-GPIO7)*%
X126530000Y-77630000D03*
D12*
X127430000Y-77630000D03*
D11*
%TO.P,U1,11,GPIO8*%
%TO.N,Net-(U1-GPIO8)*%
X126530000Y-80170000D03*
D12*
X127430000Y-80170000D03*
D11*
%TO.P,U1,12,GPIO9*%
%TO.N,Net-(U1-GPIO9)*%
X126530000Y-82710000D03*
D12*
X127430000Y-82710000D03*
D13*
%TO.P,U1,13,GND*%
%TO.N,GND*%
X126530000Y-85250000D03*
D12*
X127430000Y-85250000D03*
D11*
%TO.P,U1,14,GPIO10*%
%TO.N,Net-(U1-GPIO10)*%
X126530000Y-87790000D03*
D12*
X127430000Y-87790000D03*
D11*
%TO.P,U1,15,GPIO11*%
%TO.N,Net-(U1-GPIO11)*%
X126530000Y-90330000D03*
D12*
X127430000Y-90330000D03*
D11*
%TO.P,U1,16,GPIO12*%
%TO.N,Net-(U1-GPIO12)*%
X126530000Y-92870000D03*
D12*
X127430000Y-92870000D03*
D11*
%TO.P,U1,17,GPIO13*%
%TO.N,Net-(U1-GPIO13)*%
X126530000Y-95410000D03*
D12*
X127430000Y-95410000D03*
D13*
%TO.P,U1,18,GND*%
%TO.N,unconnected-(U1-GND-Pad18)*%
X126530000Y-97950000D03*
D12*
X127430000Y-97950000D03*
D11*
%TO.P,U1,19,GPIO14*%
%TO.N,Net-(U1-GPIO14)*%
X126530000Y-100490000D03*
D12*
X127430000Y-100490000D03*
D11*
%TO.P,U1,20,GPIO15*%
%TO.N,Net-(U1-GPIO15)*%
X126530000Y-103030000D03*
D12*
X127430000Y-103030000D03*
D11*
%TO.P,U1,21,GPIO16*%
%TO.N,Net-(U1-GPIO16)*%
X108750000Y-103030000D03*
D12*
X107850000Y-103030000D03*
D11*
%TO.P,U1,22,GPIO17*%
%TO.N,Net-(U1-GPIO17)*%
X108750000Y-100490000D03*
D12*
X107850000Y-100490000D03*
D13*
%TO.P,U1,23,GND*%
%TO.N,GND*%
X108750000Y-97950000D03*
D12*
X107850000Y-97950000D03*
D11*
%TO.P,U1,24,GPIO18*%
%TO.N,Net-(U1-GPIO18)*%
X108750000Y-95410000D03*
D12*
X107850000Y-95410000D03*
D11*
%TO.P,U1,25,GPIO19*%
%TO.N,Net-(U1-GPIO19)*%
X108750000Y-92870000D03*
D12*
X107850000Y-92870000D03*
D11*
%TO.P,U1,26,GPIO20*%
%TO.N,unconnected-(U1-GPIO20-Pad26)*%
X108750000Y-90330000D03*
D12*
X107850000Y-90330000D03*
D11*
%TO.P,U1,27,GPIO21*%
%TO.N,unconnected-(U1-GPIO21-Pad27)*%
X108750000Y-87790000D03*
D12*
X107850000Y-87790000D03*
D13*
%TO.P,U1,28,GND*%
%TO.N,GND*%
X108750000Y-85250000D03*
D12*
X107850000Y-85250000D03*
D11*
%TO.P,U1,29,GPIO22*%
%TO.N,unconnected-(U1-GPIO22-Pad29)*%
X108750000Y-82710000D03*
D12*
X107850000Y-82710000D03*
D11*
%TO.P,U1,30,RUN*%
%TO.N,unconnected-(U1-RUN-Pad30)*%
X108750000Y-80170000D03*
D12*
X107850000Y-80170000D03*
D11*
%TO.P,U1,31,GPIO26_ADC0*%
%TO.N,unconnected-(U1-GPIO26_ADC0-Pad31)*%
X108750000Y-77630000D03*
D12*
X107850000Y-77630000D03*
D11*
%TO.P,U1,32,GPIO27_ADC1*%
%TO.N,unconnected-(U1-GPIO27_ADC1-Pad32)*%
X108750000Y-75090000D03*
D12*
X107850000Y-75090000D03*
D13*
%TO.P,U1,33,AGND*%
%TO.N,unconnected-(U1-AGND-Pad33)*%
X108750000Y-72550000D03*
D12*
X107850000Y-72550000D03*
D11*
%TO.P,U1,34,GPIO28_ADC2*%
%TO.N,unconnected-(U1-GPIO28_ADC2-Pad34)*%
X108750000Y-70010000D03*
D12*
X107850000Y-70010000D03*
D11*
%TO.P,U1,35,ADC_VREF*%
%TO.N,unconnected-(U1-ADC_VREF-Pad35)*%
X108750000Y-67470000D03*
D12*
X107850000Y-67470000D03*
D11*
%TO.P,U1,36,3V3*%
%TO.N,unconnected-(U1-3V3-Pad36)*%
X108750000Y-64930000D03*
D12*
X107850000Y-64930000D03*
D11*
%TO.P,U1,37,3V3_EN*%
%TO.N,unconnected-(U1-3V3_EN-Pad37)*%
X108750000Y-62390000D03*
D12*
X107850000Y-62390000D03*
D13*
%TO.P,U1,38,GND*%
%TO.N,GND*%
X108750000Y-59850000D03*
D12*
X107850000Y-59850000D03*
D11*
%TO.P,U1,39,VSYS*%
%TO.N,unconnected-(U1-VSYS-Pad39)*%
X108750000Y-57310000D03*
D12*
X107850000Y-57310000D03*
D11*
%TO.P,U1,40,VBUS*%
%TO.N,unconnected-(U1-VBUS-Pad40)*%
X108750000Y-54770000D03*
D12*
X107850000Y-54770000D03*
%TD*%
D14*
%TO.P,SW12,2,2*%
%TO.N,Net-(U1-GPIO11)*%
X124460000Y-106970000D03*
X130960000Y-106970000D03*
%TO.P,SW12,1,1*%
%TO.N,GND*%
X124460000Y-111470000D03*
X130960000Y-111470000D03*
%TD*%
%TO.P,SW10,1,1*%
%TO.N,GND*%
X150040000Y-95610000D03*
X150040000Y-102110000D03*
%TO.P,SW10,2,2*%
%TO.N,Net-(U1-GPIO9)*%
X145540000Y-95610000D03*
X145540000Y-102110000D03*
%TD*%
%TO.P,SW8,1,1*%
%TO.N,GND*%
X150040000Y-75290000D03*
X150040000Y-81790000D03*
%TO.P,SW8,2,2*%
%TO.N,Net-(U1-GPIO7)*%
X145540000Y-75290000D03*
X145540000Y-81790000D03*
%TD*%
%TO.P,SW13,1,1*%
%TO.N,GND*%
X120800000Y-111470000D03*
X114300000Y-111470000D03*
%TO.P,SW13,2,2*%
%TO.N,Net-(U1-GPIO12)*%
X120800000Y-106970000D03*
X114300000Y-106970000D03*
%TD*%
%TO.P,SW15,1,1*%
%TO.N,GND*%
X100480000Y-111470000D03*
X93980000Y-111470000D03*
%TO.P,SW15,2,2*%
%TO.N,Net-(U1-GPIO14)*%
X100480000Y-106970000D03*
X93980000Y-106970000D03*
%TD*%
%TO.P,SW18,1,1*%
%TO.N,GND*%
X84905000Y-81790000D03*
X84905000Y-75290000D03*
%TO.P,SW18,2,2*%
%TO.N,Net-(U1-GPIO17)*%
X89405000Y-81790000D03*
X89405000Y-75290000D03*
%TD*%
%TO.P,SW3,1,1*%
%TO.N,GND*%
X114225000Y-45970000D03*
X120725000Y-45970000D03*
%TO.P,SW3,2,2*%
%TO.N,Net-(U1-GPIO2)*%
X114225000Y-50470000D03*
X120725000Y-50470000D03*
%TD*%
%TO.P,SW19,1,1*%
%TO.N,GND*%
X84905000Y-71630000D03*
X84905000Y-65130000D03*
%TO.P,SW19,2,2*%
%TO.N,Net-(U1-GPIO18)*%
X89405000Y-71630000D03*
X89405000Y-65130000D03*
%TD*%
%TO.P,SW14,2,2*%
%TO.N,Net-(U1-GPIO13)*%
X104140000Y-106970000D03*
X110640000Y-106970000D03*
%TO.P,SW14,1,1*%
%TO.N,GND*%
X104140000Y-111470000D03*
X110640000Y-111470000D03*
%TD*%
%TO.P,SW16,1,1*%
%TO.N,GND*%
X84905000Y-102110000D03*
X84905000Y-95610000D03*
%TO.P,SW16,2,2*%
%TO.N,Net-(U1-GPIO15)*%
X89405000Y-102110000D03*
X89405000Y-95610000D03*
%TD*%
%TO.P,SW17,1,1*%
%TO.N,GND*%
X84905000Y-91950000D03*
X84905000Y-85450000D03*
%TO.P,SW17,2,2*%
%TO.N,Net-(U1-GPIO16)*%
X89405000Y-91950000D03*
X89405000Y-85450000D03*
%TD*%
%TO.P,SW20,1,1*%
%TO.N,GND*%
X84905000Y-61470000D03*
X84905000Y-54970000D03*
%TO.P,SW20,2,2*%
%TO.N,Net-(U1-GPIO19)*%
X89405000Y-61470000D03*
X89405000Y-54970000D03*
%TD*%
%TO.P,SW11,2,2*%
%TO.N,Net-(U1-GPIO10)*%
X134620000Y-106970000D03*
X141120000Y-106970000D03*
%TO.P,SW11,1,1*%
%TO.N,GND*%
X134620000Y-111470000D03*
X141120000Y-111470000D03*
%TD*%
%TO.P,SW9,1,1*%
%TO.N,GND*%
X150040000Y-85450000D03*
X150040000Y-91950000D03*
%TO.P,SW9,2,2*%
%TO.N,Net-(U1-GPIO8)*%
X145540000Y-85450000D03*
X145540000Y-91950000D03*
%TD*%
%TO.P,SW5,1,1*%
%TO.N,GND*%
X134545000Y-45970000D03*
X141045000Y-45970000D03*
%TO.P,SW5,2,2*%
%TO.N,Net-(U1-GPIO4)*%
X134545000Y-50470000D03*
X141045000Y-50470000D03*
%TD*%
%TO.P,SW7,1,1*%
%TO.N,GND*%
X150040000Y-65130000D03*
X150040000Y-71630000D03*
%TO.P,SW7,2,2*%
%TO.N,Net-(U1-GPIO6)*%
X145540000Y-65130000D03*
X145540000Y-71630000D03*
%TD*%
%TO.P,SW1,1,1*%
%TO.N,GND*%
X93905000Y-45970000D03*
X100405000Y-45970000D03*
%TO.P,SW1,2,2*%
%TO.N,Net-(U1-GPIO0)*%
X93905000Y-50470000D03*
X100405000Y-50470000D03*
%TD*%
%TO.P,SW4,1,1*%
%TO.N,GND*%
X124385000Y-45970000D03*
X130885000Y-45970000D03*
%TO.P,SW4,2,2*%
%TO.N,Net-(U1-GPIO3)*%
X124385000Y-50470000D03*
X130885000Y-50470000D03*
%TD*%
%TO.P,SW6,1,1*%
%TO.N,GND*%
X150040000Y-54970000D03*
X150040000Y-61470000D03*
%TO.P,SW6,2,2*%
%TO.N,Net-(U1-GPIO5)*%
X145540000Y-54970000D03*
X145540000Y-61470000D03*
%TD*%
%TO.P,SW2,1,1*%
%TO.N,GND*%
X104065000Y-45970000D03*
X110565000Y-45970000D03*
%TO.P,SW2,2,2*%
%TO.N,Net-(U1-GPIO1)*%
X104065000Y-50470000D03*
X110565000Y-50470000D03*
%TD*%
M02*
